<?xml version="1.0" encoding="UTF-8" standalone="no"?>
<!DOCTYPE svg PUBLIC "-//W3C//DTD SVG 1.1//EN" "http://www.w3.org/Graphics/SVG/1.1/DTD/svg11.dtd">
<svg width="480.00" height="480.00" viewBox="0.00 0.00 2000.00 2000.00" xmlns="http://www.w3.org/2000/svg" xmlns:xlink="http://www.w3.org/1999/xlink" fill="rgba(255, 255, 255, 0)"  stroke="rgb(0, 0, 0)" stroke-width="3.00" stroke-opacity="1.00" stroke-linejoin="round" id="svgId">
<g stroke-linecap="round" id="honshu">
<path d="M407.39,1488.75 C407.42,1488.74 407.63,1488.64 408.02,1488.45 C407.42,1489.23 406.91,1491.77 406.40,1492.42 C403.50,1495.61 402.44,1501.19 401.46,1501.63 C399.18,1501.68 397.41,1502.62 396.36,1504.60 C395.60,1506.03 390.09,1508.93 390.29,1509.62 C391.30,1509.65 389.95,1513.92 390.02,1514.34 C390.02,1514.34 385.26,1516.75 385.26,1516.75 C385.31,1518.48 384.30,1520.88 384.14,1521.02 C381.85,1522.99 378.31,1522.97 377.85,1522.88 C377.70,1523.19 375.48,1523.63 374.36,1524.55 C374.20,1524.68 372.41,1527.16 371.42,1527.15 C368.78,1527.20 364.21,1527.11 364.11,1527.04 C364.11,1527.04 366.03,1524.32 366.03,1524.32 C366.03,1524.32 363.52,1523.46 363.52,1523.46 C363.52,1523.46 367.34,1521.06 367.34,1521.06 C367.30,1520.56 366.69,1519.52 366.23,1519.29 C365.80,1519.08 357.64,1517.90 356.57,1518.49 C354.87,1519.48 357.69,1522.46 357.74,1522.61 C358.47,1525.35 356.52,1525.95 356.05,1525.57 C355.43,1525.34 351.59,1520.45 351.36,1520.17 C350.96,1519.69 349.20,1518.45 347.58,1518.55 C345.47,1518.68 343.62,1520.33 342.97,1520.71 C342.97,1520.71 339.79,1520.28 339.79,1520.28 C340.05,1518.44 340.77,1517.68 342.97,1517.41 C344.48,1517.22 344.59,1516.58 344.60,1516.15 C344.29,1515.79 337.13,1514.40 335.55,1514.88 C333.31,1515.57 331.76,1517.42 331.17,1518.19 C331.17,1518.19 330.33,1518.99 330.33,1518.99 C329.98,1519.28 329.46,1520.23 329.46,1520.94 C329.47,1521.48 330.91,1522.71 331.13,1522.90 C331.88,1523.52 333.19,1523.73 333.69,1524.18 C334.25,1524.69 331.75,1525.17 331.67,1525.18 C330.00,1525.39 329.57,1526.91 329.49,1527.13 C329.49,1527.13 327.82,1527.59 327.82,1527.59 C326.99,1528.14 324.80,1528.99 324.25,1529.81 C324.13,1529.99 323.79,1530.78 323.66,1531.07 C323.66,1531.07 322.73,1531.49 322.73,1531.49 C322.20,1531.17 319.48,1534.67 320.00,1535.43 C320.03,1535.48 320.31,1535.59 320.47,1535.66 C320.47,1535.66 320.52,1536.04 320.52,1536.04 C320.38,1536.10 326.66,1541.83 327.20,1543.06 C327.29,1543.30 325.81,1548.12 325.78,1548.18 C325.44,1548.40 323.38,1547.82 323.07,1548.80 C322.10,1551.94 320.71,1553.61 320.47,1554.20 C320.22,1554.27 317.86,1556.20 317.77,1556.44 C317.10,1558.27 318.15,1562.64 319.75,1564.88 C320.43,1565.87 321.51,1567.44 322.16,1568.65 C322.78,1569.79 321.58,1571.13 321.27,1571.46 C321.27,1571.46 322.75,1572.93 322.91,1573.43 C323.11,1574.09 322.76,1575.17 322.13,1575.68 C321.58,1576.14 320.49,1576.32 320.41,1576.42 C319.64,1577.41 322.97,1579.62 322.90,1580.96 C322.90,1581.20 320.33,1581.35 319.92,1581.54 C318.98,1581.99 321.25,1586.09 321.27,1586.10 C321.85,1586.32 322.67,1586.35 323.48,1585.52 C324.15,1584.81 326.07,1582.31 326.70,1581.95 C327.45,1581.54 334.25,1583.61 334.69,1583.10 C334.90,1582.81 334.68,1581.90 333.55,1581.20 C331.06,1579.66 331.16,1579.10 331.17,1579.07 C332.05,1578.56 334.21,1577.32 335.24,1576.81 C336.05,1576.25 335.92,1571.48 336.25,1571.19 C337.29,1570.32 339.25,1570.09 340.20,1570.54 C341.48,1571.19 342.03,1573.59 343.56,1574.54 C343.89,1574.74 345.98,1575.75 346.70,1576.81 C346.91,1577.13 347.01,1579.33 347.66,1580.00 C347.99,1580.32 350.66,1581.21 350.85,1581.68 C351.10,1582.32 350.81,1583.75 351.07,1585.08 C351.33,1586.30 352.02,1586.96 352.33,1587.29 C352.33,1587.29 353.50,1588.00 353.50,1588.00 C354.68,1586.22 357.15,1586.11 357.22,1586.14 C357.73,1587.40 359.00,1589.03 359.52,1589.54 C360.39,1590.39 363.48,1590.62 364.63,1590.52 C364.74,1590.51 374.07,1586.79 374.48,1586.36 C374.72,1586.09 376.51,1583.16 376.69,1582.23 C376.77,1581.83 377.94,1580.53 377.97,1580.09 C378.10,1577.93 378.75,1576.31 378.99,1576.01 C379.71,1575.94 380.07,1576.57 380.07,1578.54 C380.07,1579.10 379.88,1580.96 379.89,1581.55 C379.89,1581.55 382.28,1585.28 382.28,1585.28 C384.86,1585.98 385.43,1583.75 387.10,1580.29 C387.13,1580.29 389.56,1579.14 390.38,1579.56 C391.02,1579.89 393.08,1582.71 393.16,1582.80 C393.58,1583.27 397.96,1585.79 399.59,1585.74 C399.81,1585.45 400.08,1583.22 401.00,1582.20 C402.23,1580.86 406.92,1580.39 407.72,1580.38 C407.98,1583.50 413.04,1579.47 413.34,1579.25 C413.28,1579.03 413.25,1578.89 413.23,1578.83 C413.21,1578.76 413.19,1578.69 413.15,1578.60 C413.89,1578.82 420.98,1579.06 422.15,1579.83 C423.03,1580.42 423.66,1582.02 423.57,1582.84 C423.51,1583.42 426.76,1584.35 427.10,1584.57 C427.61,1584.94 427.67,1586.61 427.68,1587.15 C428.67,1587.58 431.70,1587.44 431.98,1588.40 C432.39,1589.76 432.51,1590.02 434.15,1591.36 C436.01,1592.89 435.39,1594.17 435.41,1594.22 C435.41,1594.22 436.17,1595.17 436.17,1595.17 C436.17,1595.17 436.79,1595.34 439.26,1599.31 C439.84,1600.21 444.08,1601.08 444.66,1601.33 C444.85,1601.41 445.70,1602.54 445.78,1602.74 C445.92,1603.11 446.75,1602.73 447.02,1602.60 C447.44,1604.03 449.50,1601.72 450.24,1601.70 C450.46,1601.89 455.59,1606.81 456.62,1607.22 C457.44,1607.56 458.78,1610.37 459.39,1610.28 C461.60,1609.91 463.49,1612.21 463.65,1612.38 C463.97,1611.58 462.97,1608.08 462.89,1607.71 C462.49,1605.89 463.02,1603.00 463.04,1602.80 C463.17,1601.62 466.97,1600.96 467.17,1600.95 C468.80,1600.85 470.77,1599.70 471.63,1598.14 C471.68,1598.04 473.15,1595.00 474.61,1593.69 C475.32,1593.03 474.84,1588.20 473.65,1583.64 C473.48,1582.96 473.12,1578.11 473.23,1577.61 C473.82,1576.63 475.02,1576.58 475.39,1576.56 C475.75,1576.55 477.27,1576.96 478.13,1576.82 C478.59,1576.74 479.15,1575.87 479.18,1575.57 C479.26,1574.87 480.30,1573.84 480.35,1573.64 C480.36,1573.59 480.14,1566.31 479.39,1564.66 C479.16,1564.12 479.44,1563.43 479.47,1563.16 C479.57,1563.14 481.19,1563.31 481.89,1562.86 C483.43,1561.86 486.05,1560.43 486.23,1560.33 C488.15,1559.26 489.82,1557.73 490.79,1555.72 C490.90,1555.50 491.60,1553.86 491.53,1553.63 C490.87,1552.12 489.52,1552.41 489.30,1552.42 C489.30,1552.42 487.70,1551.34 487.70,1551.34 C487.69,1550.94 488.94,1549.18 489.41,1548.99 C489.62,1548.91 493.25,1547.44 493.93,1547.25 C494.66,1547.04 499.36,1545.95 500.04,1545.99 C500.37,1546.01 504.37,1546.06 504.82,1546.24 C506.25,1546.85 508.09,1548.24 509.11,1549.83 C509.54,1550.52 508.48,1552.43 508.73,1553.94 C508.84,1554.64 508.81,1558.32 509.05,1559.15 C510.08,1562.60 512.12,1565.93 513.36,1566.29 C513.34,1567.61 511.55,1569.71 510.56,1570.73 C509.39,1572.25 506.99,1574.64 506.95,1574.68 C506.74,1574.87 503.78,1575.32 503.61,1575.48 C503.02,1575.80 506.82,1577.65 506.84,1577.69 C507.30,1578.54 507.22,1579.11 506.81,1579.52 C506.65,1579.67 504.02,1582.16 504.27,1582.56 C504.73,1583.16 507.94,1583.43 509.14,1583.04 C510.37,1582.65 512.29,1584.30 512.29,1584.30 C512.86,1583.29 514.46,1580.95 514.67,1580.42 C514.84,1579.92 513.68,1577.88 513.54,1577.51 C514.08,1575.25 519.60,1569.86 521.38,1569.35 C521.83,1569.24 525.46,1569.49 526.62,1570.17 C526.80,1570.28 528.33,1573.88 528.66,1574.35 C528.70,1574.38 532.42,1574.95 532.80,1575.23 C533.15,1575.48 534.72,1575.76 535.05,1575.69 C535.37,1575.61 535.51,1575.09 535.04,1574.16 C534.67,1573.45 529.34,1570.59 529.22,1570.50 C529.16,1570.32 531.95,1567.89 532.80,1567.87 C533.05,1567.86 540.04,1566.56 540.47,1566.21 C540.47,1566.21 540.47,1566.21 540.47,1566.21 C540.47,1566.21 546.41,1561.61 546.41,1561.61 C546.17,1561.54 545.15,1561.27 544.44,1560.99 C544.20,1560.91 543.12,1560.71 543.06,1559.60 C543.03,1557.19 546.89,1556.07 547.11,1556.05 C547.90,1555.98 549.95,1561.74 551.16,1561.84 C552.03,1561.88 553.70,1558.89 553.98,1558.50 C554.43,1557.89 557.21,1556.29 558.63,1556.24 C559.38,1556.22 569.49,1558.76 573.60,1558.98 C575.84,1559.08 578.60,1557.43 578.73,1557.34 C578.78,1557.10 578.94,1553.41 579.52,1552.31 C580.11,1551.21 582.41,1549.82 584.26,1549.81 C585.10,1549.82 588.19,1550.39 589.34,1551.54 C590.37,1552.57 591.36,1554.45 593.36,1555.22 C594.10,1555.49 595.13,1555.63 595.49,1555.40 C596.35,1554.81 597.14,1546.89 598.24,1546.14 C598.75,1545.84 600.38,1545.74 600.63,1545.72 C600.73,1545.79 601.44,1546.82 601.53,1547.28 C601.60,1547.64 600.58,1549.68 600.57,1549.83 C600.58,1549.93 603.78,1551.84 604.97,1552.18 C606.89,1552.71 609.47,1554.68 610.33,1555.00 C611.42,1555.38 612.50,1555.46 613.10,1554.96 C613.24,1554.84 613.86,1551.39 614.02,1550.72 C614.13,1550.27 617.05,1549.02 617.40,1548.19 C617.56,1547.78 617.48,1547.00 617.26,1546.41 C617.84,1546.68 620.44,1548.81 621.32,1548.14 C621.69,1547.82 622.61,1544.75 623.80,1544.29 C623.85,1544.27 623.87,1544.27 623.87,1544.29 C623.87,1544.29 626.41,1546.66 626.41,1546.66 C626.41,1546.66 628.14,1546.19 628.14,1546.19 C629.30,1546.93 631.02,1546.35 632.27,1545.04 C633.13,1544.19 638.37,1541.53 639.33,1541.08 C640.12,1540.71 642.90,1539.82 643.87,1540.06 C644.04,1540.10 645.57,1540.43 646.02,1540.40 C646.02,1540.40 646.75,1539.60 646.75,1539.60 C646.75,1539.60 649.61,1540.20 649.61,1540.20 C649.67,1540.35 655.27,1544.73 655.62,1544.62 C655.63,1544.62 655.65,1544.62 655.68,1544.61 C655.68,1544.61 656.21,1542.83 656.21,1542.83 C656.91,1542.60 659.91,1545.75 659.97,1545.80 C663.71,1548.48 665.91,1548.76 666.86,1548.05 C667.41,1547.62 668.30,1546.39 668.33,1546.38 C668.68,1546.25 670.80,1545.67 671.22,1545.61 C671.22,1545.61 671.51,1544.12 671.51,1544.12 C672.22,1544.12 673.93,1546.39 674.18,1546.42 C675.74,1546.52 680.97,1544.31 681.61,1543.74 C682.47,1542.95 682.98,1540.14 683.94,1539.82 C684.27,1539.31 686.57,1538.44 687.61,1538.31 C688.22,1538.24 691.90,1535.68 692.01,1535.60 C693.23,1534.61 692.87,1530.29 692.26,1529.73 C692.05,1529.00 693.89,1528.99 694.79,1530.06 C695.85,1531.30 697.86,1531.32 700.44,1531.11 C701.70,1531.01 705.51,1529.45 705.68,1529.20 C705.82,1528.99 706.64,1527.39 706.64,1526.43 C706.62,1526.03 705.35,1525.82 705.33,1525.78 C705.33,1525.78 704.98,1524.43 704.98,1524.43 C704.98,1524.43 703.30,1521.12 703.30,1521.12 C704.41,1520.48 705.82,1521.04 707.02,1520.59 C709.18,1519.77 710.79,1519.32 710.76,1518.13 C710.76,1518.04 710.75,1517.96 710.75,1517.87 C711.23,1517.16 716.59,1515.69 718.08,1515.30 C720.38,1514.70 722.03,1514.83 722.33,1514.67 C723.28,1514.15 724.29,1513.62 724.80,1513.55 C724.93,1513.54 727.01,1515.15 728.25,1514.33 C728.45,1514.20 734.81,1516.23 735.50,1516.21 C735.96,1516.18 736.41,1515.81 736.82,1515.16 C736.82,1515.16 738.67,1515.17 738.67,1515.17 C738.67,1515.17 738.45,1512.68 738.45,1512.68 C738.45,1512.68 744.09,1509.70 744.09,1509.70 C744.23,1509.09 744.68,1508.21 745.11,1508.05 C745.24,1508.00 747.53,1507.17 747.76,1507.10 C748.11,1507.00 750.98,1507.62 751.56,1507.87 C751.76,1507.97 752.80,1509.01 753.19,1509.18 C753.23,1509.31 753.28,1510.15 753.45,1510.29 C754.59,1511.11 759.49,1512.38 762.43,1512.19 C762.60,1512.18 764.86,1511.10 764.99,1511.10 C765.36,1511.11 767.94,1511.95 768.26,1512.05 C768.73,1512.20 771.01,1511.65 771.56,1511.52 C771.69,1511.52 776.00,1510.84 776.72,1510.92 C776.94,1510.95 780.43,1515.11 784.33,1517.67 C785.06,1518.15 786.68,1519.27 787.07,1520.79 C787.21,1521.29 789.30,1521.08 789.63,1521.10 C789.63,1521.10 792.55,1524.74 792.55,1524.74 C794.66,1524.77 799.67,1527.27 800.62,1528.79 C800.95,1529.31 805.07,1532.84 807.12,1532.88 C808.78,1532.91 810.53,1533.58 810.75,1533.57 C810.75,1533.57 811.84,1533.86 811.84,1533.86 C812.04,1534.22 812.81,1535.34 814.20,1535.08 C814.74,1534.97 816.11,1534.20 816.84,1534.13 C816.86,1534.10 820.37,1534.20 821.62,1534.00 C825.54,1533.34 829.30,1532.13 830.40,1531.12 C831.02,1530.57 831.41,1530.45 831.66,1530.46 C831.94,1530.93 831.98,1535.80 832.76,1536.10 C834.10,1536.59 836.74,1536.01 836.87,1535.07 C836.89,1534.81 837.54,1533.05 837.22,1531.87 C837.04,1531.21 836.43,1529.13 836.41,1528.47 C837.03,1528.44 839.73,1528.97 840.28,1528.51 C841.61,1527.39 843.53,1526.99 844.48,1526.93 C848.37,1526.58 850.07,1527.49 850.63,1527.83 C850.63,1527.83 850.91,1529.01 850.91,1529.01 C850.91,1529.01 854.74,1530.72 854.74,1530.72 C854.74,1530.72 852.19,1532.58 852.19,1532.58 C852.19,1532.93 853.61,1534.17 853.77,1534.35 C854.15,1534.74 854.66,1536.50 855.05,1537.37 C855.03,1538.27 856.51,1539.75 856.54,1539.89 C856.56,1539.99 856.52,1540.40 856.51,1541.23 C856.51,1541.23 856.15,1547.17 856.15,1547.17 C856.15,1547.17 853.79,1548.13 853.79,1548.13 C853.79,1548.13 853.02,1549.91 853.02,1549.91 C853.02,1549.91 852.08,1551.81 852.08,1551.81 C851.88,1551.63 851.44,1551.37 851.44,1551.37 C851.45,1551.35 849.81,1554.50 849.52,1554.85 C849.01,1555.47 846.80,1558.28 846.77,1558.36 C845.85,1560.72 845.07,1561.57 843.31,1562.52 C842.99,1562.70 841.68,1565.35 840.97,1565.88 C840.51,1566.23 839.79,1566.74 839.55,1566.91 C839.55,1566.91 837.85,1565.95 837.85,1565.95 C837.85,1565.95 837.33,1564.39 837.33,1564.39 C838.07,1563.41 838.21,1562.67 837.71,1561.86 C837.16,1561.02 833.69,1560.81 832.73,1561.02 C831.73,1561.24 830.17,1562.89 829.75,1563.25 C829.70,1564.78 830.78,1566.22 831.09,1566.30 C831.90,1566.49 833.93,1565.87 834.19,1565.74 C834.19,1565.74 836.98,1569.67 836.98,1569.67 C835.98,1570.43 829.89,1574.59 829.75,1574.87 C828.68,1577.05 825.93,1576.64 822.52,1577.14 C822.52,1577.14 819.24,1577.58 819.24,1577.58 C819.24,1577.58 815.27,1579.50 815.27,1579.50 C815.27,1579.50 810.46,1584.59 810.46,1584.59 C810.46,1584.59 809.84,1586.33 809.84,1586.33 C809.74,1586.39 809.54,1587.17 813.32,1589.08 C814.30,1589.62 815.59,1591.34 817.05,1593.07 C818.04,1594.28 818.32,1595.84 818.42,1596.00 C818.84,1596.09 820.49,1595.95 820.86,1596.17 C822.20,1596.99 822.09,1599.64 822.72,1599.78 C823.69,1599.92 825.81,1601.47 825.79,1602.01 C825.72,1602.21 821.99,1604.24 821.71,1604.22 C821.50,1604.19 818.26,1603.84 816.85,1604.85 C816.41,1605.18 814.86,1606.46 814.86,1606.54 C813.00,1606.55 811.08,1607.09 811.11,1607.35 C811.42,1608.30 814.61,1609.66 814.74,1609.98 C814.52,1610.07 812.99,1610.51 812.87,1610.67 C812.59,1611.07 812.24,1614.27 812.29,1614.39 C813.07,1614.94 815.86,1615.03 816.79,1614.75 C817.69,1614.50 818.49,1614.63 819.03,1615.36 C820.02,1616.78 820.98,1618.88 820.89,1619.03 C820.58,1619.37 819.38,1621.54 818.40,1622.97 C817.46,1624.34 816.17,1624.88 814.42,1624.67 C814.30,1624.66 813.02,1624.24 812.58,1624.32 C812.56,1624.32 810.74,1627.49 810.58,1628.24 C809.60,1632.90 808.20,1638.84 808.83,1640.07 C809.00,1640.38 810.86,1640.96 810.98,1640.98 C811.41,1641.07 815.97,1640.65 816.41,1640.81 C817.77,1641.33 819.42,1645.86 821.27,1647.53 C822.18,1648.19 824.57,1649.28 824.84,1649.68 C825.04,1650.00 826.28,1653.30 826.37,1653.36 C826.38,1653.36 829.81,1654.63 830.17,1655.47 C830.27,1655.71 830.35,1656.87 830.77,1657.28 C831.60,1658.04 834.12,1657.11 835.65,1657.50 C836.45,1657.70 839.63,1659.84 839.89,1660.41 C840.28,1661.28 839.08,1667.45 839.08,1670.09 C839.09,1672.18 839.95,1673.39 841.28,1673.78 C841.75,1673.91 843.93,1673.76 845.85,1675.09 C846.57,1675.61 847.12,1676.67 847.19,1677.17 C847.22,1677.60 845.97,1679.04 845.88,1680.84 C845.87,1681.19 851.07,1688.00 853.35,1688.90 C854.04,1689.17 857.99,1692.22 858.27,1692.37 C861.81,1694.20 875.98,1699.36 881.62,1701.25 C883.34,1701.74 889.80,1702.91 889.81,1702.92 C889.94,1703.02 890.37,1703.34 891.03,1703.87 C891.03,1703.87 888.98,1703.94 888.98,1703.94 C888.97,1703.99 888.57,1705.93 888.90,1706.31 C889.16,1706.58 890.19,1708.36 890.65,1708.53 C890.98,1708.64 896.33,1705.80 896.66,1706.00 C897.79,1706.71 899.62,1706.45 900.53,1705.63 C900.93,1705.24 901.18,1704.03 900.73,1703.13 C900.45,1702.98 896.99,1703.40 896.15,1703.41 C894.39,1703.41 894.09,1702.55 894.59,1701.43 C895.05,1700.46 900.43,1698.34 903.19,1697.43 C906.46,1696.18 910.93,1692.75 912.91,1691.08 C914.34,1690.07 915.44,1687.61 915.39,1687.22 C915.26,1686.45 913.42,1686.31 913.47,1685.20 C913.54,1684.14 915.89,1679.80 915.86,1679.81 C917.87,1679.84 920.05,1675.33 920.67,1674.46 C920.85,1674.17 922.61,1670.22 925.75,1665.25 C926.15,1664.62 927.78,1660.49 929.27,1655.79 C929.34,1655.05 932.48,1647.95 934.56,1646.72 C935.74,1646.05 937.86,1646.96 939.05,1647.90 C939.63,1648.35 942.12,1647.69 942.91,1646.96 C949.30,1640.92 950.29,1640.04 951.71,1639.58 C952.03,1639.48 953.92,1639.81 954.27,1639.77 C954.41,1639.76 957.47,1634.05 957.76,1632.96 C958.32,1631.66 958.86,1628.77 958.64,1628.04 C958.32,1627.04 956.50,1626.40 954.92,1624.67 C954.67,1624.39 954.44,1624.18 954.07,1623.86 C954.07,1623.86 955.26,1621.58 955.26,1621.58 C955.91,1621.48 958.61,1621.39 959.95,1620.59 C960.89,1620.00 962.71,1615.60 962.71,1615.29 C962.68,1615.26 961.99,1614.75 961.14,1613.86 C960.77,1613.46 961.57,1610.95 962.96,1610.10 C963.76,1609.62 966.11,1607.99 966.15,1607.99 C967.52,1608.00 975.46,1604.82 976.39,1604.57 C976.65,1604.51 979.64,1604.80 980.49,1604.70 C980.97,1604.64 985.04,1603.95 986.00,1603.16 C986.98,1602.33 988.93,1601.04 989.27,1600.55 C989.40,1600.53 990.70,1601.13 991.45,1601.16 C992.55,1601.20 993.92,1598.91 994.52,1599.01 C994.52,1599.01 995.00,1600.42 995.00,1600.42 C995.00,1600.42 997.29,1600.49 997.29,1600.49 C997.30,1600.43 996.43,1596.90 1001.41,1594.45 C1002.38,1593.99 1004.91,1595.31 1005.69,1595.71 C1006.18,1595.96 1007.58,1595.80 1007.88,1595.28 C1008.37,1594.37 1009.11,1593.21 1009.33,1593.10 C1010.88,1592.35 1012.32,1594.59 1012.64,1595.27 C1013.00,1596.33 1014.01,1598.99 1014.72,1599.37 C1014.81,1599.42 1018.18,1600.11 1019.10,1600.64 C1020.26,1601.30 1022.54,1601.32 1024.12,1600.78 C1024.51,1600.65 1028.63,1599.01 1029.18,1598.69 C1030.59,1597.87 1031.86,1595.95 1032.66,1594.39 C1033.06,1593.53 1031.26,1586.91 1031.26,1586.07 C1034.08,1584.54 1037.05,1580.44 1037.23,1579.36 C1037.34,1578.61 1037.64,1574.85 1037.60,1573.32 C1037.60,1572.18 1036.73,1570.09 1035.74,1569.52 C1033.30,1568.13 1030.47,1568.91 1029.35,1569.88 C1029.09,1569.66 1029.41,1566.78 1029.01,1565.34 C1028.42,1563.27 1026.78,1561.71 1025.97,1561.70 C1024.78,1561.70 1020.98,1561.59 1020.18,1561.37 C1019.72,1561.24 1016.61,1560.64 1015.84,1559.81 C1015.63,1559.58 1010.23,1555.40 1007.09,1553.94 C1006.46,1553.66 1005.04,1553.68 1004.96,1553.61 C1004.78,1553.44 1004.10,1550.25 1004.07,1550.08 C1003.84,1549.03 995.94,1546.13 995.52,1546.10 C994.44,1546.06 991.91,1547.04 991.09,1546.71 C990.69,1546.57 989.92,1546.17 989.67,1545.97 C989.68,1545.96 992.12,1544.36 993.44,1542.87 C994.30,1541.91 995.31,1539.20 994.85,1538.32 C993.22,1535.36 989.94,1535.10 988.88,1535.19 C988.92,1535.19 991.49,1534.21 991.91,1533.17 C992.15,1532.55 992.91,1529.71 992.59,1528.86 C992.39,1528.35 991.16,1527.04 990.13,1526.71 C990.13,1526.20 993.21,1524.01 993.57,1523.69 C996.11,1521.43 997.26,1519.30 998.20,1517.98 C998.28,1517.83 1000.83,1512.49 1001.20,1511.92 C1003.19,1508.82 1005.60,1505.62 1005.87,1505.23 C1007.25,1503.18 1007.07,1500.40 1006.98,1499.72 C1006.98,1499.72 1005.37,1499.17 1005.37,1499.17 C1005.37,1499.17 1007.04,1497.24 1007.04,1497.24 C1007.04,1497.24 1006.71,1493.97 1006.71,1493.97 C1006.84,1493.78 1011.94,1487.31 1014.02,1486.97 C1015.52,1486.50 1018.73,1485.76 1019.06,1486.00 C1019.36,1486.25 1021.73,1487.83 1021.87,1488.17 C1022.83,1490.54 1023.29,1493.25 1023.33,1493.27 C1023.69,1493.24 1028.49,1488.09 1029.29,1486.84 C1029.51,1486.49 1030.30,1484.12 1031.17,1483.44 C1031.56,1483.42 1032.68,1485.05 1031.31,1488.16 C1030.14,1490.78 1025.92,1494.77 1024.52,1496.10 C1024.50,1496.27 1025.52,1496.98 1025.94,1497.25 C1027.11,1498.04 1024.97,1505.54 1025.42,1507.33 C1025.62,1508.08 1028.61,1510.76 1028.85,1511.01 C1029.91,1512.16 1031.02,1514.89 1031.04,1516.98 C1031.05,1517.94 1030.29,1520.05 1028.95,1521.61 C1027.65,1523.12 1027.57,1523.65 1027.92,1524.29 C1028.78,1525.77 1030.53,1529.58 1033.66,1532.32 C1034.18,1532.79 1036.59,1535.69 1036.76,1535.85 C1037.60,1536.61 1039.95,1537.05 1040.35,1536.92 C1041.39,1536.58 1042.48,1535.11 1042.65,1534.80 C1042.81,1534.55 1044.98,1536.77 1045.24,1536.80 C1046.71,1537.40 1048.19,1537.49 1049.70,1536.95 C1051.24,1536.35 1052.32,1534.67 1052.35,1534.42 C1052.48,1533.10 1051.50,1532.32 1050.78,1532.26 C1049.13,1532.15 1047.01,1532.71 1046.03,1532.75 C1043.60,1532.83 1040.12,1528.37 1038.73,1525.33 C1038.19,1524.22 1038.07,1522.00 1038.10,1521.20 C1038.12,1520.91 1040.84,1518.35 1041.04,1516.41 C1041.05,1516.30 1041.09,1515.99 1041.09,1515.59 C1041.40,1515.75 1042.68,1517.78 1043.06,1518.04 C1044.00,1518.66 1046.73,1519.37 1047.10,1520.29 C1047.44,1521.26 1048.53,1524.19 1049.37,1524.85 C1049.96,1525.31 1051.86,1526.21 1052.55,1525.91 C1053.98,1525.27 1056.47,1524.62 1057.01,1524.68 C1059.28,1525.43 1061.69,1526.19 1062.06,1526.19 C1062.76,1525.68 1064.98,1525.23 1065.54,1525.70 C1065.72,1525.87 1065.72,1526.87 1065.83,1527.30 C1067.07,1527.48 1069.08,1527.59 1069.84,1526.73 C1069.91,1526.64 1070.96,1524.21 1071.37,1523.13 C1071.37,1523.13 1071.99,1521.42 1071.99,1521.42 C1074.99,1521.29 1077.06,1522.46 1080.53,1523.63 C1081.19,1523.84 1082.62,1523.90 1082.63,1523.92 C1082.65,1523.99 1083.81,1524.90 1084.14,1525.65 C1084.31,1526.06 1083.94,1528.74 1083.62,1528.83 C1082.77,1530.26 1067.50,1541.21 1067.04,1541.26 C1066.70,1541.29 1063.57,1542.34 1062.75,1542.01 C1061.19,1541.35 1055.39,1541.46 1054.79,1541.47 C1054.79,1541.47 1053.64,1541.77 1053.64,1541.77 C1053.56,1541.77 1054.03,1543.25 1053.93,1543.77 C1053.81,1544.37 1051.70,1547.07 1051.33,1547.56 C1050.92,1548.13 1048.37,1549.71 1047.59,1550.87 C1046.91,1551.67 1046.91,1553.12 1047.53,1553.59 C1047.64,1553.68 1051.52,1554.97 1052.55,1554.31 C1055.75,1552.17 1065.58,1552.56 1066.25,1552.35 C1071.51,1550.27 1083.26,1545.53 1086.84,1544.73 C1088.30,1544.41 1095.08,1542.81 1097.54,1542.73 C1097.99,1542.70 1102.86,1542.45 1103.11,1542.45 C1103.11,1542.60 1103.93,1542.94 1108.04,1543.41 C1112.77,1543.93 1125.32,1544.95 1129.15,1545.37 C1129.23,1545.37 1133.20,1546.52 1136.66,1548.34 C1137.65,1548.89 1139.50,1549.37 1140.51,1548.93 C1141.14,1548.65 1147.05,1545.45 1149.03,1545.24 C1152.66,1544.88 1162.99,1544.52 1166.56,1544.91 C1167.32,1545.00 1172.81,1547.17 1176.80,1550.11 C1177.34,1550.50 1185.28,1556.45 1188.60,1557.78 C1188.94,1557.91 1192.31,1557.46 1192.48,1557.43 C1192.78,1556.83 1193.10,1556.24 1193.09,1553.34 C1193.09,1552.45 1191.87,1549.28 1190.63,1547.87 C1190.38,1547.59 1189.29,1546.73 1189.09,1546.53 C1189.08,1546.11 1190.44,1543.86 1190.63,1543.01 C1191.73,1537.94 1194.55,1536.94 1194.98,1536.79 C1195.34,1536.08 1199.89,1530.97 1203.89,1528.36 C1204.29,1528.09 1205.90,1525.39 1206.38,1524.52 C1207.57,1522.76 1207.44,1520.74 1207.69,1519.32 C1207.91,1518.06 1207.19,1512.80 1207.16,1512.50 C1207.03,1511.12 1207.59,1510.34 1207.69,1510.20 C1207.88,1510.17 1217.68,1506.28 1220.16,1505.48 C1223.22,1504.39 1226.94,1501.97 1229.90,1499.04 C1231.66,1497.41 1232.68,1495.44 1232.08,1494.83 C1231.87,1494.65 1228.59,1495.41 1227.77,1495.54 C1227.77,1495.54 1228.41,1494.10 1228.41,1494.10 C1228.41,1494.10 1228.76,1492.66 1228.76,1492.66 C1228.97,1492.72 1231.28,1490.70 1231.42,1490.49 C1231.96,1489.77 1236.30,1487.09 1237.24,1486.45 C1239.43,1485.16 1244.51,1482.34 1248.51,1480.54 C1249.64,1480.04 1252.72,1479.25 1254.34,1479.47 C1254.83,1479.53 1257.86,1479.90 1260.35,1480.84 C1263.56,1482.06 1267.46,1486.43 1268.92,1488.36 C1271.75,1492.54 1272.13,1494.68 1272.12,1494.82 C1265.44,1494.64 1261.77,1493.40 1259.31,1495.57 C1258.13,1496.62 1258.19,1499.89 1258.20,1500.34 C1258.25,1500.98 1257.49,1504.72 1257.47,1504.76 C1257.43,1504.80 1260.09,1510.14 1260.18,1510.78 C1260.20,1510.93 1254.58,1517.03 1254.70,1517.61 C1255.01,1518.84 1257.55,1520.76 1257.44,1521.46 C1257.24,1522.33 1254.89,1524.85 1254.28,1525.50 C1253.85,1525.95 1254.07,1526.75 1254.18,1527.06 C1254.58,1528.05 1258.47,1533.64 1258.01,1534.14 C1257.64,1534.50 1254.59,1537.19 1254.55,1537.26 C1254.56,1539.16 1253.92,1540.02 1253.33,1543.46 C1253.18,1544.51 1253.34,1545.35 1253.80,1545.50 C1255.02,1545.88 1256.11,1545.59 1256.79,1545.59 C1258.19,1545.60 1259.05,1546.32 1259.10,1546.93 C1259.18,1548.15 1258.95,1550.99 1259.77,1552.18 C1260.08,1552.62 1263.67,1554.63 1264.17,1555.04 C1265.09,1555.80 1266.18,1555.83 1267.75,1555.07 C1267.84,1555.03 1270.58,1554.17 1271.37,1553.38 C1274.38,1550.35 1277.89,1548.03 1278.59,1547.94 C1280.17,1549.50 1281.09,1549.92 1282.03,1549.35 C1283.12,1548.66 1283.27,1547.63 1283.13,1544.88 C1283.07,1543.76 1283.22,1541.17 1284.89,1539.46 C1285.00,1539.34 1289.95,1534.72 1291.47,1533.61 C1292.72,1532.47 1293.57,1529.51 1293.86,1528.51 C1294.51,1525.90 1295.45,1522.56 1295.81,1521.95 C1296.78,1520.18 1301.11,1517.19 1302.49,1515.75 C1303.97,1514.20 1305.11,1511.39 1305.12,1508.80 C1305.12,1507.00 1305.03,1506.21 1304.77,1505.83 C1304.84,1505.87 1302.58,1504.77 1301.97,1504.23 C1299.25,1501.76 1297.93,1497.90 1297.88,1497.80 C1297.88,1497.80 1297.88,1497.79 1297.88,1497.78 C1297.72,1496.94 1298.84,1494.51 1298.85,1493.76 C1298.85,1493.22 1298.03,1489.92 1297.94,1489.87 C1296.87,1489.29 1296.17,1486.46 1296.43,1484.62 C1296.64,1483.34 1299.14,1480.65 1299.52,1480.37 C1301.77,1478.77 1302.92,1478.29 1303.27,1478.35 C1303.74,1478.44 1306.49,1479.69 1306.52,1479.68 C1306.52,1479.60 1306.12,1477.64 1304.59,1475.32 C1303.68,1473.92 1305.25,1468.23 1305.49,1467.74 C1305.65,1467.42 1307.00,1464.36 1309.14,1462.10 C1309.50,1461.72 1316.65,1457.33 1318.43,1456.83 C1319.99,1456.04 1325.31,1454.10 1327.46,1453.79 C1327.49,1453.78 1337.80,1453.69 1339.46,1454.11 C1340.06,1454.28 1342.42,1455.19 1342.28,1455.43 C1341.92,1456.04 1340.53,1455.59 1340.33,1456.27 C1339.96,1457.43 1340.53,1457.78 1342.03,1457.34 C1342.31,1457.25 1342.55,1456.65 1342.76,1455.55 C1342.76,1455.55 1344.01,1455.87 1344.01,1455.87 C1344.01,1455.87 1345.81,1456.25 1345.81,1456.25 C1347.58,1456.73 1348.55,1457.12 1351.04,1458.44 C1353.60,1459.80 1353.86,1460.00 1353.80,1460.51 C1353.73,1460.78 1354.72,1463.55 1354.78,1463.81 C1354.91,1464.30 1359.35,1466.46 1359.96,1467.44 C1360.63,1468.60 1360.50,1469.00 1360.51,1468.99 C1360.51,1468.99 1358.65,1468.68 1358.65,1468.68 C1358.65,1468.68 1360.39,1472.28 1360.39,1472.28 C1360.39,1472.28 1358.65,1472.06 1358.65,1472.06 C1358.43,1473.28 1359.34,1475.28 1358.93,1476.30 C1358.79,1476.61 1358.09,1479.51 1358.12,1480.05 C1358.27,1480.20 1359.45,1480.46 1361.30,1480.47 C1362.13,1480.46 1364.19,1479.36 1364.80,1479.34 C1365.76,1479.34 1366.22,1479.43 1366.57,1479.54 C1366.67,1479.26 1365.44,1475.79 1365.29,1474.86 C1365.20,1474.17 1368.14,1470.49 1368.24,1470.47 C1368.80,1470.35 1372.65,1470.33 1372.86,1469.64 C1374.16,1465.10 1374.14,1464.31 1374.18,1463.73 C1374.18,1463.73 1371.04,1462.66 1371.04,1462.66 C1371.04,1462.66 1371.09,1462.56 1371.09,1462.56 C1371.01,1462.52 1368.63,1460.23 1367.03,1458.61 C1365.87,1457.43 1364.47,1454.96 1364.50,1453.81 C1364.54,1453.13 1365.40,1451.41 1365.76,1449.27 C1366.21,1446.46 1364.19,1443.80 1363.92,1443.59 C1363.92,1443.59 1365.73,1442.09 1365.73,1442.09 C1366.15,1442.44 1367.42,1443.47 1367.94,1443.64 C1368.61,1443.84 1370.48,1441.77 1369.73,1440.78 C1369.58,1440.58 1368.54,1439.69 1368.30,1439.46 C1368.45,1439.15 1370.06,1437.54 1368.67,1435.63 C1368.67,1435.63 1382.83,1427.27 1382.83,1427.27 C1382.83,1427.27 1384.72,1425.80 1384.72,1425.80 C1384.71,1425.70 1385.58,1424.29 1385.57,1423.38 C1385.54,1422.57 1382.36,1420.14 1381.79,1419.32 C1381.16,1418.40 1380.03,1415.71 1379.98,1415.60 C1379.34,1414.19 1379.46,1413.20 1380.09,1412.55 C1381.58,1414.77 1384.84,1417.94 1386.44,1416.06 C1387.62,1414.62 1385.30,1412.90 1385.08,1412.76 C1384.89,1412.63 1384.11,1411.70 1384.09,1411.63 C1383.99,1411.16 1384.92,1410.58 1386.42,1410.06 C1386.51,1411.01 1386.65,1411.28 1387.18,1411.17 C1387.90,1411.05 1389.13,1410.82 1389.63,1410.71 C1389.63,1410.71 1391.34,1409.62 1391.34,1409.62 C1391.34,1409.62 1392.87,1410.16 1392.87,1410.16 C1394.08,1410.80 1394.90,1411.34 1395.67,1411.08 C1396.03,1410.96 1397.75,1410.77 1397.87,1410.24 C1397.99,1409.73 1396.97,1408.58 1397.13,1407.15 C1397.19,1406.67 1397.40,1405.58 1397.40,1405.59 C1397.40,1405.59 1398.50,1404.01 1398.50,1404.01 C1398.84,1403.72 1401.53,1401.63 1402.50,1401.63 C1403.19,1401.65 1403.35,1403.77 1403.32,1404.37 C1403.27,1405.73 1403.68,1406.89 1404.73,1407.35 C1405.01,1407.46 1406.83,1405.94 1407.14,1405.70 C1407.14,1405.70 1413.61,1413.93 1413.61,1413.93 C1414.22,1414.12 1416.32,1413.58 1417.17,1414.43 C1417.30,1414.57 1417.65,1415.77 1417.66,1415.79 C1417.65,1415.86 1416.88,1415.29 1416.40,1415.43 C1415.33,1415.76 1415.84,1418.24 1416.14,1419.54 C1416.14,1419.55 1416.14,1419.58 1416.14,1419.61 C1415.77,1419.97 1414.76,1419.98 1414.60,1420.19 C1413.92,1421.11 1413.89,1421.20 1414.20,1422.11 C1414.40,1422.69 1414.58,1424.01 1414.58,1424.06 C1414.26,1424.30 1413.13,1423.65 1412.88,1423.72 C1412.69,1423.79 1408.07,1429.14 1407.90,1429.70 C1407.65,1430.53 1405.51,1432.42 1405.33,1432.58 C1403.85,1432.87 1401.38,1433.31 1400.44,1434.03 C1399.48,1434.78 1399.48,1435.07 1397.69,1437.24 C1397.11,1437.94 1393.33,1438.94 1393.33,1438.98 C1393.29,1441.11 1393.41,1441.86 1393.77,1443.01 C1394.04,1443.79 1395.54,1445.47 1394.81,1446.61 C1394.26,1447.44 1392.92,1448.55 1392.69,1448.77 C1391.97,1448.12 1390.30,1446.24 1389.56,1446.54 C1388.98,1446.78 1387.66,1447.26 1387.17,1447.54 C1387.56,1447.81 1386.02,1447.90 1385.78,1448.25 C1385.64,1448.48 1384.97,1453.92 1384.50,1454.38 C1384.30,1454.56 1381.73,1457.27 1381.73,1457.74 C1382.09,1457.86 1385.44,1459.72 1386.45,1461.12 C1388.63,1464.24 1389.27,1468.85 1389.25,1468.92 C1389.25,1468.92 1387.43,1470.52 1387.43,1470.52 C1387.22,1470.79 1384.69,1471.94 1384.24,1473.55 C1384.08,1474.25 1383.73,1475.57 1383.71,1476.96 C1383.71,1478.91 1385.47,1480.66 1385.75,1480.89 C1385.81,1481.20 1383.52,1484.09 1383.86,1485.21 C1384.11,1485.97 1385.97,1486.76 1386.15,1487.11 C1386.16,1487.99 1385.03,1489.64 1385.05,1491.80 C1385.05,1492.22 1384.42,1493.89 1384.88,1495.09 C1385.01,1495.41 1386.86,1498.79 1387.01,1499.02 C1387.01,1499.02 1387.04,1502.53 1387.04,1502.53 C1387.04,1502.53 1375.73,1504.57 1375.73,1504.57 C1375.73,1504.57 1380.79,1509.29 1380.79,1509.29 C1380.79,1509.29 1382.74,1511.53 1382.74,1511.53 C1382.74,1511.53 1382.64,1513.13 1382.64,1513.13 C1382.91,1513.25 1384.74,1514.01 1385.70,1514.16 C1391.94,1515.06 1396.77,1510.97 1398.16,1509.71 C1400.74,1507.36 1404.16,1497.73 1404.77,1497.13 C1406.94,1494.95 1415.13,1491.05 1415.47,1490.69 C1415.86,1490.25 1417.64,1486.81 1417.92,1486.57 C1419.60,1485.11 1422.48,1483.28 1424.53,1483.20 C1425.72,1483.17 1430.55,1483.77 1431.71,1483.59 C1434.22,1483.17 1437.21,1480.74 1437.56,1480.47 C1438.20,1479.97 1439.87,1480.26 1440.86,1480.33 C1441.57,1480.35 1443.23,1478.90 1444.30,1479.11 C1444.31,1479.11 1444.32,1479.11 1444.31,1479.11 C1444.31,1479.11 1445.57,1477.55 1445.57,1477.55 C1446.27,1477.40 1447.99,1477.48 1448.16,1477.45 C1449.56,1477.15 1451.55,1474.73 1452.01,1474.33 C1452.09,1474.26 1453.98,1470.70 1454.11,1468.66 C1454.13,1468.23 1454.53,1465.97 1454.46,1465.50 C1454.19,1464.08 1452.47,1462.46 1452.43,1462.40 C1452.87,1461.80 1455.79,1459.76 1455.66,1458.77 C1455.65,1458.71 1455.45,1457.62 1455.60,1457.10 C1455.46,1457.09 1453.58,1454.65 1452.98,1454.16 C1452.01,1453.33 1451.18,1443.44 1451.95,1441.19 C1452.24,1440.35 1452.71,1438.09 1452.83,1437.89 C1452.83,1437.89 1453.77,1434.94 1453.77,1434.94 C1455.09,1432.49 1456.03,1429.47 1459.45,1423.96 C1460.04,1423.07 1462.98,1418.44 1463.14,1418.23 C1464.17,1416.84 1470.76,1409.75 1474.04,1407.23 C1475.63,1405.98 1479.71,1402.61 1483.63,1401.05 C1483.74,1401.01 1490.41,1398.62 1490.40,1398.67 C1490.40,1398.67 1491.30,1399.87 1491.30,1399.87 C1493.95,1399.31 1499.38,1397.14 1500.91,1396.86 C1501.53,1396.75 1503.24,1396.61 1503.54,1396.85 C1504.71,1397.88 1505.74,1400.38 1506.39,1400.64 C1507.56,1401.07 1509.24,1400.35 1509.66,1399.54 C1509.90,1399.06 1510.06,1393.74 1510.07,1393.59 C1510.07,1393.59 1503.74,1388.61 1503.74,1388.61 C1503.75,1388.48 1502.58,1386.93 1496.73,1378.91 C1496.42,1378.47 1493.38,1372.51 1492.15,1370.29 C1491.60,1369.17 1489.81,1366.77 1488.80,1366.76 C1488.01,1366.76 1487.61,1366.61 1487.54,1366.55 C1487.52,1366.02 1487.80,1365.39 1487.89,1365.22 C1488.17,1364.64 1489.32,1364.13 1489.49,1363.89 C1489.20,1363.19 1486.26,1357.17 1485.97,1356.54 C1485.13,1354.70 1481.95,1344.54 1480.79,1342.27 C1474.77,1331.11 1473.27,1325.04 1473.12,1324.57 C1472.87,1323.70 1473.06,1315.30 1473.49,1314.46 C1474.66,1312.59 1476.88,1310.69 1477.34,1309.88 C1477.48,1309.62 1480.26,1305.90 1480.61,1304.09 C1480.69,1303.68 1481.33,1300.95 1481.28,1300.00 C1481.28,1300.00 1480.13,1286.15 1480.13,1286.15 C1480.62,1286.18 1482.15,1283.07 1482.16,1282.84 C1482.16,1280.55 1481.81,1277.83 1482.22,1277.06 C1483.91,1273.90 1492.72,1260.24 1492.89,1258.80 C1493.28,1255.34 1493.47,1250.50 1493.53,1250.28 C1494.19,1247.83 1497.12,1238.07 1497.32,1237.81 C1497.32,1237.81 1497.99,1236.95 1497.99,1236.95 C1497.99,1236.95 1499.54,1236.15 1499.54,1236.15 C1499.54,1236.15 1501.06,1229.59 1501.06,1229.59 C1501.06,1229.59 1502.81,1226.61 1502.81,1226.61 C1503.38,1225.97 1507.10,1223.17 1508.78,1222.25 C1510.83,1221.14 1515.02,1220.22 1515.26,1219.99 C1515.29,1219.97 1518.60,1218.14 1518.83,1218.15 C1518.83,1218.15 1522.45,1212.02 1522.45,1212.02 C1522.45,1212.02 1521.87,1209.27 1521.87,1209.27 C1521.87,1209.27 1521.17,1205.56 1521.17,1205.56 C1522.43,1202.67 1524.87,1193.71 1524.95,1190.68 C1524.99,1189.08 1527.16,1176.58 1527.31,1175.62 C1527.99,1170.91 1529.74,1164.47 1529.94,1160.24 C1530.42,1155.31 1530.42,1142.70 1529.94,1139.74 C1529.54,1137.27 1529.30,1127.61 1528.30,1122.20 C1527.36,1117.11 1526.65,1106.84 1526.37,1105.95 C1526.17,1105.34 1524.49,1096.43 1524.03,1095.04 C1521.07,1087.56 1517.92,1073.99 1517.90,1073.69 C1517.69,1071.29 1516.40,1067.04 1516.38,1066.87 C1515.86,1063.77 1516.06,1055.83 1517.19,1050.50 C1517.26,1050.03 1519.51,1037.05 1522.45,1033.90 C1523.53,1032.75 1527.08,1028.32 1527.89,1027.99 C1527.89,1027.99 1528.43,1026.80 1528.43,1026.80 C1528.43,1026.80 1529.34,1026.00 1529.34,1026.00 C1529.34,1026.00 1530.51,1025.77 1530.51,1025.77 C1530.51,1025.77 1531.64,1025.36 1531.64,1025.36 C1531.64,1025.36 1532.44,1024.41 1532.44,1024.41 C1532.44,1024.41 1532.73,1023.17 1532.73,1023.17 C1532.73,1023.17 1532.45,1022.11 1532.45,1022.11 C1532.45,1022.11 1532.43,1020.11 1532.43,1020.11 C1532.43,1020.11 1530.58,1019.07 1530.58,1019.07 C1530.58,1019.07 1529.66,1018.41 1529.66,1018.41 C1529.66,1018.41 1529.24,1017.48 1529.24,1017.48 C1529.24,1017.48 1529.40,1012.96 1529.40,1012.96 C1529.40,1012.96 1531.45,1011.09 1531.45,1011.09 C1531.45,1011.09 1532.44,1010.83 1532.44,1010.83 C1532.44,1010.83 1536.89,1009.67 1536.89,1009.67 C1536.89,1009.67 1539.57,1009.47 1539.57,1009.47 C1539.57,1009.47 1537.18,1012.70 1537.18,1012.70 C1537.18,1012.70 1541.15,1012.64 1541.15,1012.64 C1541.15,1012.64 1542.15,1011.73 1542.15,1011.73 C1542.15,1011.73 1542.79,1010.96 1542.79,1010.96 C1542.79,1010.96 1543.90,1010.44 1543.90,1010.44 C1543.90,1010.44 1545.36,1008.83 1545.36,1008.83 C1545.36,1008.83 1548.34,1006.82 1548.34,1006.82 C1548.34,1006.82 1553.19,1005.34 1553.19,1005.34 C1554.26,1006.74 1555.89,1006.41 1556.41,1006.24 C1556.41,1006.24 1559.39,1007.82 1559.39,1007.82 C1559.39,1007.82 1560.68,1006.76 1560.68,1006.76 C1560.68,1006.76 1561.96,1005.27 1561.96,1005.27 C1561.96,1005.27 1563.89,1005.21 1563.89,1005.21 C1563.89,1005.21 1564.30,1006.53 1564.30,1006.53 C1564.30,1006.53 1565.29,1005.98 1565.29,1005.98 C1565.29,1005.98 1568.45,1006.40 1568.45,1006.40 C1568.45,1006.40 1569.50,1009.47 1569.50,1009.47 C1569.74,1009.51 1570.11,1009.76 1571.14,1010.63 C1571.55,1010.98 1571.43,1011.37 1570.91,1012.25 C1570.91,1012.25 1573.71,1018.13 1573.71,1018.13 C1573.71,1018.13 1574.94,1016.93 1574.94,1016.93 C1574.94,1016.93 1573.71,1022.00 1573.71,1022.00 C1575.34,1024.49 1579.11,1024.46 1579.09,1024.46 C1579.09,1024.46 1580.67,1027.40 1580.67,1027.40 C1580.67,1027.40 1582.83,1023.62 1582.83,1023.62 C1582.83,1023.62 1583.42,1022.42 1583.42,1022.42 C1583.42,1022.42 1584.70,1024.85 1584.70,1024.85 C1584.70,1024.85 1590.26,1023.04 1590.26,1023.04 C1590.26,1023.04 1591.48,1023.10 1591.48,1023.10 C1591.48,1023.10 1590.37,1021.23 1590.37,1021.23 C1590.37,1021.23 1588.09,1018.77 1588.09,1018.77 C1588.09,1018.77 1585.99,1018.45 1585.99,1018.45 C1585.99,1018.45 1584.23,1015.16 1584.23,1015.16 C1584.23,1015.16 1584.47,1012.06 1584.47,1012.06 C1584.47,1012.06 1585.35,1008.70 1585.35,1008.70 C1584.62,1008.13 1583.45,1007.86 1581.72,1007.86 C1581.04,1007.86 1580.30,1007.41 1578.39,1006.05 C1578.39,1006.10 1577.45,1002.91 1577.34,1002.53 C1577.04,1001.45 1578.90,999.90 1579.32,999.49 C1579.76,999.06 1580.33,998.50 1580.38,998.56 C1580.38,998.56 1580.14,1002.24 1580.14,1002.24 C1580.14,1002.24 1581.84,1003.01 1581.84,1003.01 C1581.84,1003.01 1581.66,1005.92 1581.66,1005.92 C1582.43,1005.81 1584.16,1004.34 1584.82,1002.11 C1584.97,1001.48 1585.15,1000.69 1585.23,1000.69 C1585.06,1000.49 1584.90,997.70 1584.18,995.42 C1584.01,994.90 1584.92,991.15 1584.59,988.28 C1584.54,987.93 1584.43,987.28 1584.23,986.35 C1584.23,986.35 1583.30,985.44 1583.30,985.44 C1583.30,985.44 1579.32,979.89 1579.32,979.89 C1579.32,979.89 1583.24,975.37 1583.24,975.37 C1583.24,975.37 1585.29,972.30 1585.29,972.30 C1585.29,972.30 1582.71,972.01 1582.71,972.01 C1582.71,972.01 1576.28,966.06 1576.28,966.06 C1576.28,966.06 1578.04,965.03 1578.04,965.03 C1578.74,965.61 1579.89,966.56 1580.03,966.58 C1580.31,966.61 1581.03,965.64 1582.54,964.64 C1582.54,964.64 1583.59,963.09 1583.59,963.09 C1583.59,963.09 1586.63,963.29 1586.63,963.29 C1586.63,963.29 1587.63,962.90 1587.63,962.90 C1587.71,962.36 1587.04,961.32 1586.69,959.54 C1586.58,958.95 1587.22,957.08 1586.81,956.70 C1586.81,956.70 1582.36,953.08 1582.36,953.08 C1582.36,953.08 1582.36,951.72 1582.36,951.72 C1582.36,951.72 1585.29,948.75 1585.29,948.75 C1585.29,948.75 1587.63,948.11 1587.63,948.11 C1587.63,948.11 1589.38,950.24 1589.38,950.24 C1589.38,950.24 1589.15,945.72 1589.15,945.72 C1589.15,945.72 1591.25,943.84 1591.25,943.84 C1591.25,943.84 1592.54,940.68 1592.54,940.68 C1592.54,940.68 1593.65,939.87 1593.65,939.87 C1593.65,939.87 1593.24,936.48 1593.24,936.48 C1593.24,936.48 1596.16,937.25 1596.16,937.25 C1596.16,937.25 1597.91,937.97 1597.91,937.97 C1597.91,937.98 1597.49,935.39 1597.15,932.02 C1597.15,931.59 1595.13,925.69 1595.11,925.21 C1595.11,925.21 1596.10,924.76 1596.10,924.76 C1596.10,924.76 1598.26,924.72 1598.26,924.72 C1597.90,923.45 1597.44,922.08 1597.15,921.72 C1597.06,921.60 1594.91,920.09 1594.52,919.56 C1594.17,919.08 1594.03,917.93 1594.06,917.42 C1594.06,917.42 1596.22,917.49 1596.22,917.49 C1596.48,918.08 1599.53,919.13 1600.02,920.43 C1600.36,921.34 1601.37,924.39 1601.77,924.69 C1602.13,924.96 1603.33,925.06 1604.11,925.05 C1604.07,924.11 1603.94,921.03 1603.82,920.46 C1603.62,919.54 1603.93,917.72 1604.11,916.97 C1604.11,916.97 1606.33,918.85 1606.33,918.85 C1606.33,918.85 1606.10,917.42 1606.10,917.42 C1607.10,917.66 1609.66,922.13 1609.72,922.17 C1609.84,922.25 1610.11,922.41 1610.54,922.66 C1610.54,922.66 1611.36,914.84 1611.36,914.84 C1611.36,914.84 1613.87,916.65 1613.87,916.65 C1613.87,916.65 1618.14,915.23 1618.14,915.23 C1618.14,915.23 1616.74,911.64 1616.74,911.64 C1616.74,911.64 1621.00,911.29 1621.00,911.29 C1621.00,911.29 1615.10,903.80 1615.10,903.80 C1615.81,903.56 1619.93,904.81 1621.59,905.83 C1621.76,905.94 1623.18,906.06 1624.16,906.44 C1624.16,906.44 1624.45,905.35 1624.45,905.35 C1624.45,905.35 1621.41,901.57 1621.41,901.57 C1621.41,901.57 1625.80,900.82 1625.80,900.82 C1625.80,900.82 1625.86,898.37 1625.86,898.37 C1625.86,898.37 1620.13,897.34 1620.13,897.34 C1620.11,896.91 1620.56,894.62 1621.24,894.20 C1621.65,893.94 1622.24,893.58 1622.82,893.27 C1622.82,893.27 1624.45,891.07 1624.45,891.07 C1625.89,889.57 1627.88,890.00 1628.37,889.97 C1628.37,889.97 1629.25,887.52 1629.25,887.52 C1629.25,887.52 1628.25,883.87 1628.25,883.87 C1628.25,883.87 1631.35,882.93 1631.35,882.93 C1631.35,882.93 1630.82,881.54 1630.82,881.54 C1630.82,881.54 1626.56,880.61 1626.56,880.61 C1626.56,880.61 1626.91,877.83 1626.91,877.83 C1626.91,877.83 1628.25,873.69 1628.25,873.69 C1629.09,873.69 1629.87,875.08 1630.06,875.31 C1630.83,876.19 1632.27,876.53 1632.87,876.47 C1632.87,876.47 1632.29,872.79 1632.29,872.79 C1633.01,872.46 1632.57,869.33 1632.52,868.49 C1632.51,868.32 1632.51,868.09 1632.52,867.82 C1634.80,867.92 1633.24,864.14 1633.10,864.13 C1633.10,864.13 1627.61,864.39 1627.61,864.39 C1627.61,864.39 1627.73,863.00 1627.73,863.00 C1628.03,859.75 1630.04,858.22 1631.00,858.29 C1631.00,858.29 1632.58,860.06 1632.58,860.06 C1632.58,860.06 1633.75,859.26 1633.75,859.26 C1633.75,859.26 1637.49,860.94 1637.49,860.94 C1637.49,860.94 1638.01,859.10 1638.01,859.10 C1638.01,859.10 1639.18,856.74 1639.18,856.74 C1639.18,856.74 1639.01,853.19 1639.01,853.19 C1639.01,853.19 1641.41,851.25 1641.41,851.25 C1641.41,851.25 1641.05,849.21 1641.05,849.21 C1641.08,849.08 1638.63,848.14 1637.55,848.70 C1637.06,848.95 1632.79,851.45 1632.58,851.47 C1632.32,851.50 1631.56,851.50 1630.30,851.47 C1630.30,851.47 1629.95,847.60 1629.95,847.60 C1630.63,847.62 1631.50,847.21 1631.99,847.15 C1634.37,846.92 1637.57,844.75 1637.90,844.53 C1638.53,844.08 1640.16,843.24 1641.52,842.33 C1642.11,838.89 1640.20,837.72 1639.94,837.71 C1639.72,834.21 1637.69,831.56 1636.49,831.51 C1636.49,831.51 1636.49,826.93 1636.49,826.93 C1636.49,826.93 1635.33,824.28 1635.33,824.28 C1635.33,824.28 1631.58,828.54 1631.58,828.54 C1631.43,828.54 1631.31,824.88 1631.82,823.50 C1632.62,821.32 1632.64,817.88 1632.75,815.95 C1632.81,813.71 1633.81,812.02 1634.62,811.72 C1635.54,811.32 1634.83,802.82 1634.68,801.61 C1634.18,798.28 1629.19,787.86 1628.95,787.46 C1626.89,784.30 1627.61,781.93 1628.25,781.19 C1629.29,781.12 1630.41,780.35 1631.00,779.16 C1631.09,778.94 1629.73,776.67 1629.42,776.38 C1629.26,776.22 1626.91,774.78 1626.09,774.09 C1625.70,773.76 1623.27,769.51 1621.53,768.05 C1616.15,763.59 1615.12,762.31 1614.22,760.94 C1613.71,760.07 1613.96,754.37 1614.05,752.64 C1614.05,752.64 1618.02,753.61 1618.02,753.61 C1616.56,749.51 1611.76,746.30 1609.66,743.47 C1609.29,743.02 1609.26,740.97 1609.66,741.15 C1610.62,741.77 1612.19,741.70 1614.28,741.47 C1613.78,740.89 1611.75,733.92 1611.65,733.75 C1611.02,732.68 1609.18,730.04 1609.08,729.81 C1608.60,728.73 1607.59,725.84 1607.33,725.19 C1607.25,725.01 1603.61,721.37 1602.94,720.02 C1602.12,718.31 1600.63,713.33 1600.19,712.40 C1599.40,710.77 1596.61,707.98 1596.45,708.01 C1594.39,708.33 1591.44,701.53 1591.19,701.39 C1591.19,701.39 1591.20,700.08 1591.20,700.08 C1591.20,700.08 1590.35,699.56 1590.35,699.56 C1590.35,699.56 1584.81,697.28 1584.81,697.28 C1584.81,697.28 1579.66,696.14 1579.66,696.14 C1579.37,695.61 1577.12,693.26 1577.09,693.17 C1576.52,691.09 1576.15,690.47 1576.04,690.20 C1575.19,688.23 1572.60,683.78 1572.24,681.38 C1572.13,680.56 1567.84,668.24 1566.12,654.14 C1565.11,647.03 1563.79,636.57 1563.00,632.16 C1562.59,627.62 1562.60,606.11 1563.53,601.22 C1563.88,599.42 1566.83,588.14 1567.04,585.07 C1567.18,579.13 1568.09,577.24 1568.97,573.25 C1569.11,572.62 1570.46,571.06 1570.54,570.37 C1570.63,569.53 1570.44,568.09 1570.31,568.14 C1570.31,568.14 1567.39,569.15 1567.39,569.15 C1567.39,569.15 1564.58,571.83 1564.58,571.83 C1564.58,571.83 1563.88,573.89 1563.88,573.89 C1563.79,573.86 1560.19,576.58 1559.96,576.90 C1559.93,576.94 1555.45,579.09 1555.40,579.09 C1555.37,579.09 1550.80,579.07 1550.32,579.03 C1549.37,578.95 1543.87,574.47 1542.25,573.38 C1537.14,569.97 1527.49,559.37 1527.23,559.26 C1526.22,558.88 1518.62,557.32 1517.17,556.26 C1517.05,556.17 1510.57,551.20 1510.27,550.67 C1510.27,550.67 1508.58,548.99 1508.58,548.99 C1508.58,548.99 1506.18,552.61 1506.18,552.61 C1506.18,552.61 1506.59,555.19 1506.59,555.19 C1509.16,554.20 1505.07,561.22 1503.44,564.30 C1502.76,566.83 1500.38,569.47 1500.10,569.73 C1499.29,570.52 1498.40,575.45 1498.06,578.64 C1497.36,582.39 1495.16,590.78 1494.67,592.63 C1493.66,596.37 1492.81,606.10 1493.67,608.94 C1494.47,611.37 1496.64,612.65 1496.77,612.81 C1497.62,612.82 1499.57,613.23 1500.22,613.13 C1501.72,612.91 1502.22,612.15 1502.38,612.00 C1505.84,608.92 1506.99,606.92 1511.33,605.42 C1513.94,604.53 1518.48,604.28 1519.63,603.54 C1519.63,603.54 1519.69,601.83 1519.69,601.83 C1520.17,601.93 1525.57,603.31 1525.88,603.38 C1527.34,603.61 1534.17,596.75 1534.33,596.71 C1534.33,596.71 1536.03,595.94 1536.03,595.94 C1536.03,595.94 1537.81,594.77 1537.81,594.77 C1537.81,594.77 1540.03,592.44 1540.03,592.44 C1540.03,592.44 1542.24,592.35 1542.24,592.35 C1542.24,592.35 1543.84,593.65 1543.84,593.65 C1543.84,593.65 1545.55,596.16 1545.55,596.16 C1545.99,597.19 1547.24,600.65 1547.28,601.25 C1547.32,601.95 1547.87,607.84 1547.75,608.58 C1547.58,609.47 1545.56,612.16 1545.41,613.17 C1544.47,623.21 1544.49,628.17 1543.48,632.13 C1542.31,636.69 1538.67,644.59 1538.04,645.17 C1536.09,646.80 1534.22,647.30 1532.84,646.56 C1532.32,646.23 1524.45,639.28 1523.49,638.49 C1519.69,634.97 1515.13,629.13 1514.60,628.80 C1513.75,628.27 1507.02,625.61 1505.89,625.73 C1505.89,625.73 1505.19,631.90 1505.19,631.90 C1505.19,631.90 1502.38,635.68 1502.38,635.68 C1501.82,635.79 1502.17,636.27 1502.32,636.49 C1503.17,637.64 1504.81,643.09 1504.60,643.72 C1503.88,645.74 1498.74,651.41 1498.17,651.83 C1495.75,653.82 1491.73,653.47 1490.46,653.41 C1488.95,651.68 1487.66,648.66 1487.36,647.92 C1487.20,647.49 1486.16,638.29 1485.72,634.77 C1485.05,630.58 1484.56,625.10 1483.68,622.76 C1483.24,621.62 1481.12,617.35 1481.10,617.30 C1480.50,615.44 1482.01,607.22 1482.16,605.80 C1482.39,603.38 1481.34,600.69 1480.75,600.02 C1480.55,599.81 1479.33,598.49 1479.29,598.15 C1478.36,597.11 1476.56,595.46 1476.49,595.40 C1475.04,594.26 1471.09,593.98 1470.00,594.01 C1470.00,594.01 1465.32,599.05 1465.32,599.05 C1465.32,599.05 1463.57,600.51 1463.57,600.51 C1463.57,600.51 1462.40,600.54 1462.40,600.54 C1460.92,600.49 1457.59,599.09 1456.44,598.28 C1455.65,597.72 1454.62,595.86 1453.05,594.69 C1452.87,594.57 1449.34,592.16 1448.72,591.82 C1448.05,591.74 1447.81,591.79 1447.38,594.89 C1446.74,599.55 1447.26,604.11 1447.26,604.12 C1447.23,604.38 1445.51,605.88 1445.10,606.61 C1441.23,606.57 1439.27,606.50 1438.31,607.32 C1438.18,607.44 1437.87,607.74 1437.38,608.23 C1437.48,611.15 1441.54,612.65 1443.34,613.23 C1443.36,613.43 1445.41,620.56 1445.62,621.40 C1446.00,623.01 1446.08,627.50 1446.38,629.77 C1446.49,630.64 1440.75,646.37 1440.59,646.72 C1439.59,651.05 1437.65,656.67 1437.73,656.61 C1437.63,656.60 1436.41,657.82 1433.74,658.61 C1433.01,658.82 1432.27,659.04 1431.53,659.25 C1431.53,659.25 1427.21,661.52 1427.21,661.52 C1427.21,661.52 1423.58,665.65 1423.58,665.65 C1423.58,665.65 1423.00,661.74 1423.00,661.74 C1423.00,661.74 1417.21,659.90 1417.21,659.90 C1416.64,660.00 1414.51,660.33 1412.94,660.93 C1411.94,661.34 1409.06,665.41 1408.03,666.94 C1406.83,668.36 1406.87,675.06 1404.76,675.34 C1404.76,675.34 1400.90,678.31 1400.90,678.31 C1400.90,678.31 1395.88,681.73 1395.88,681.73 C1395.92,681.78 1395.22,686.42 1395.47,687.32 C1395.99,689.06 1397.98,689.15 1399.03,690.45 C1400.24,690.51 1402.95,694.75 1403.59,696.43 C1404.10,697.78 1404.76,699.47 1404.99,701.98 C1405.24,704.83 1403.82,708.59 1403.47,710.12 C1403.17,711.48 1406.38,715.10 1406.63,715.23 C1407.76,716.10 1410.07,717.63 1411.13,719.46 C1411.90,720.80 1412.90,723.03 1412.94,723.20 C1412.96,723.27 1413.94,728.47 1414.00,729.86 C1414.08,732.34 1412.67,736.45 1412.54,736.96 C1412.47,737.23 1412.41,737.62 1412.36,738.12 C1412.36,738.12 1403.71,765.13 1403.71,765.13 C1403.71,765.13 1401.49,769.19 1401.49,769.19 C1401.49,769.19 1394.24,776.82 1394.24,776.82 C1392.37,776.98 1387.38,775.95 1386.76,775.85 C1384.92,775.52 1381.63,772.90 1381.50,772.94 C1381.50,772.94 1378.81,771.65 1378.81,771.65 C1378.81,771.65 1377.40,770.03 1377.40,770.03 C1376.88,771.78 1376.81,779.80 1377.29,782.53 C1377.54,783.98 1379.70,787.43 1379.92,787.64 C1380.39,788.07 1381.58,788.48 1382.02,789.45 C1382.53,790.61 1382.62,791.17 1382.61,792.80 C1382.71,792.86 1384.38,794.75 1385.18,795.00 C1385.93,795.10 1389.70,796.76 1391.14,795.90 C1391.35,795.78 1391.89,795.34 1392.37,795.10 C1392.37,795.10 1394.47,793.64 1394.47,793.64 C1394.47,793.64 1396.11,791.22 1396.11,791.22 C1396.11,791.22 1397.51,789.15 1397.51,789.15 C1400.25,789.09 1402.74,789.75 1404.88,790.96 C1408.19,792.87 1413.82,798.59 1414.35,799.81 C1414.35,799.81 1414.58,802.91 1414.58,802.91 C1414.69,803.04 1414.87,805.51 1416.69,809.02 C1417.16,810.33 1417.27,813.76 1417.33,813.75 C1417.33,813.75 1417.43,815.11 1417.43,815.11 C1419.74,817.53 1417.14,837.97 1415.65,844.85 C1415.33,846.48 1413.68,856.83 1413.42,860.71 C1413.26,862.99 1411.16,869.42 1411.15,869.66 C1411.14,869.90 1408.78,874.20 1408.75,874.40 C1407.67,875.65 1407.09,876.07 1404.89,876.21 C1403.91,876.28 1403.30,876.35 1403.19,876.54 C1403.10,876.73 1401.53,880.89 1401.32,882.25 C1401.17,883.25 1399.13,886.32 1397.82,888.36 C1397.81,888.37 1397.36,893.42 1397.41,894.43 C1397.84,894.89 1395.91,900.27 1395.65,901.34 C1395.61,901.53 1395.05,906.61 1394.89,907.64 C1393.88,913.65 1392.23,920.20 1391.80,922.08 C1388.70,922.53 1387.53,926.25 1387.59,926.40 C1387.59,926.40 1388.76,926.86 1388.76,926.86 C1388.76,931.23 1389.43,934.86 1389.34,935.77 C1389.13,937.66 1386.81,942.96 1385.48,945.72 C1385.48,945.72 1374.61,958.38 1374.61,958.38 C1374.61,958.38 1369.93,961.19 1369.93,961.19 C1369.93,961.19 1368.76,961.51 1368.76,961.51 C1368.09,962.58 1367.47,962.60 1367.07,963.25 C1366.74,963.81 1362.59,972.25 1361.98,973.33 C1361.95,973.38 1360.36,978.57 1359.94,979.18 C1359.47,980.16 1357.42,984.91 1356.90,986.83 C1356.87,986.94 1355.61,991.64 1353.80,994.10 C1353.58,994.40 1351.92,996.43 1351.23,997.84 C1349.33,1000.49 1347.85,1003.71 1347.78,1004.01 C1347.46,1005.64 1346.83,1009.34 1347.02,1012.22 C1347.08,1013.20 1347.70,1017.81 1347.71,1020.07 C1347.73,1025.51 1347.65,1027.45 1346.77,1030.28 C1346.25,1031.90 1345.77,1032.90 1345.26,1033.57 C1345.26,1033.57 1339.89,1042.61 1339.89,1042.61 C1339.89,1042.61 1334.74,1049.39 1334.74,1049.39 C1334.74,1049.39 1329.13,1057.72 1329.13,1057.72 C1329.13,1057.72 1327.32,1058.79 1327.32,1058.79 C1327.32,1058.79 1324.34,1060.37 1324.34,1060.37 C1324.34,1060.37 1322.99,1060.92 1322.99,1060.92 C1322.99,1060.92 1321.86,1061.06 1321.86,1061.06 C1321.86,1061.06 1320.31,1061.12 1320.31,1061.12 C1320.31,1061.12 1319.38,1062.38 1319.38,1062.38 C1319.38,1062.38 1318.32,1064.19 1318.32,1064.19 C1317.35,1064.66 1313.71,1066.56 1310.14,1067.52 C1307.42,1068.24 1304.36,1068.69 1303.24,1069.13 C1303.24,1069.13 1296.64,1073.59 1296.64,1073.59 C1294.67,1074.04 1288.19,1081.17 1284.50,1083.31 C1280.57,1085.57 1276.23,1089.12 1275.59,1089.93 C1274.81,1090.93 1271.09,1097.95 1270.68,1100.33 C1270.04,1103.84 1268.66,1111.75 1268.17,1113.12 C1268.17,1113.12 1266.53,1113.57 1266.53,1113.57 C1266.35,1113.99 1266.19,1117.19 1266.12,1117.55 C1265.63,1119.96 1261.67,1125.86 1260.92,1127.40 C1257.97,1130.14 1254.51,1131.75 1252.39,1135.12 C1252.35,1135.18 1247.67,1144.41 1246.66,1145.90 C1242.49,1151.98 1241.92,1152.50 1241.75,1152.52 C1241.23,1153.03 1237.87,1156.33 1236.78,1156.66 C1235.55,1157.02 1229.89,1159.25 1229.24,1159.82 C1228.97,1160.06 1226.43,1163.25 1225.09,1163.99 C1224.58,1164.32 1223.14,1165.33 1222.69,1165.99 C1221.45,1167.79 1219.45,1168.58 1218.89,1168.84 C1217.26,1169.60 1212.30,1175.93 1212.40,1175.94 C1212.40,1175.94 1206.67,1176.75 1206.67,1176.75 C1206.74,1178.17 1205.20,1179.39 1204.04,1179.98 C1200.47,1181.77 1198.03,1182.65 1195.16,1182.56 C1194.53,1182.54 1189.29,1180.17 1187.85,1181.01 C1187.78,1181.06 1187.18,1181.83 1187.15,1181.79 C1186.45,1182.50 1184.77,1183.61 1184.52,1184.05 C1184.24,1184.54 1183.64,1185.74 1183.64,1185.73 C1182.71,1185.91 1181.38,1188.13 1180.54,1188.86 C1179.91,1189.40 1177.01,1191.01 1176.98,1191.02 C1176.54,1191.12 1173.26,1191.97 1172.77,1192.06 C1171.17,1192.35 1169.02,1193.92 1168.68,1193.93 C1168.68,1193.93 1165.69,1196.72 1165.69,1196.72 C1161.23,1197.26 1146.91,1204.35 1145.35,1204.81 C1137.19,1207.22 1132.51,1208.57 1132.32,1208.59 C1132.24,1208.64 1126.67,1209.08 1124.89,1209.72 C1124.37,1209.92 1123.92,1210.25 1123.90,1210.34 C1123.90,1210.34 1122.85,1210.92 1122.85,1210.92 C1122.85,1210.92 1118.25,1211.64 1118.25,1211.64 C1118.25,1211.64 1116.53,1211.47 1116.53,1211.47 C1114.83,1212.34 1110.71,1214.18 1110.34,1214.41 C1108.92,1215.28 1107.18,1216.72 1106.59,1217.05 C1105.40,1217.78 1106.56,1222.73 1106.48,1223.03 C1106.18,1224.01 1105.21,1226.01 1105.07,1226.19 C1105.07,1226.19 1103.56,1230.10 1103.56,1230.10 C1103.56,1230.10 1102.85,1232.59 1102.85,1232.59 C1101.98,1233.62 1099.47,1235.33 1098.76,1235.88 C1097.67,1236.74 1097.31,1237.56 1096.54,1238.44 C1093.12,1238.28 1087.46,1236.56 1084.03,1237.27 C1080.28,1238.05 1078.72,1237.94 1077.13,1237.85 C1073.99,1235.44 1071.64,1234.29 1070.18,1234.43 C1069.73,1234.48 1067.24,1233.72 1066.73,1233.78 C1066.73,1233.78 1066.26,1230.43 1066.26,1230.43 C1066.26,1230.43 1057.02,1224.74 1057.02,1224.74 C1057.02,1224.74 1056.91,1222.55 1056.91,1222.55 C1056.91,1222.55 1057.84,1222.22 1057.84,1222.22 C1057.84,1222.22 1059.60,1221.25 1059.60,1221.25 C1059.60,1221.25 1059.65,1218.19 1059.65,1218.19 C1059.65,1218.19 1062.58,1214.31 1062.58,1214.31 C1062.58,1214.31 1063.10,1210.24 1063.10,1210.24 C1063.10,1210.24 1065.68,1208.72 1065.68,1208.72 C1065.68,1208.72 1067.08,1200.13 1067.08,1200.13 C1066.96,1198.10 1066.94,1191.45 1066.73,1190.81 C1066.61,1190.48 1066.13,1189.62 1065.93,1188.96 C1066.06,1188.25 1064.63,1182.13 1064.86,1180.46 C1064.88,1180.31 1064.96,1180.00 1065.09,1179.53 C1065.09,1179.53 1062.75,1180.79 1062.75,1180.79 C1062.78,1180.93 1061.38,1182.36 1060.65,1182.72 C1060.45,1182.82 1059.00,1182.82 1057.20,1182.95 C1056.66,1182.97 1054.20,1181.68 1051.88,1181.59 C1050.94,1181.57 1050.01,1181.55 1049.07,1181.53 C1049.61,1183.09 1052.58,1185.53 1053.40,1186.21 C1054.40,1186.99 1058.81,1185.77 1059.42,1185.82 C1060.16,1187.15 1059.46,1190.13 1059.42,1190.38 C1059.16,1191.85 1054.01,1194.45 1053.17,1194.38 C1053.17,1194.38 1051.06,1191.28 1051.06,1191.28 C1048.89,1191.30 1047.56,1191.24 1047.32,1190.99 C1047.09,1190.75 1046.72,1189.72 1045.92,1188.57 C1045.92,1188.57 1044.75,1188.05 1044.75,1188.05 C1044.17,1182.99 1045.39,1178.02 1045.98,1177.52 C1046.95,1176.76 1047.44,1175.79 1047.61,1175.71 C1048.13,1175.49 1049.48,1174.90 1049.60,1174.52 C1049.60,1174.52 1055.97,1174.75 1055.97,1174.75 C1055.97,1174.75 1058.43,1176.88 1058.43,1176.88 C1058.43,1176.88 1062.40,1175.84 1062.40,1175.84 C1063.59,1176.20 1066.86,1174.12 1069.12,1173.16 C1069.50,1173.00 1070.47,1172.68 1070.47,1172.61 C1070.47,1172.61 1071.64,1168.51 1071.64,1168.51 C1071.98,1168.26 1072.67,1165.93 1072.75,1165.90 C1073.27,1165.78 1077.07,1163.59 1077.19,1163.70 C1077.19,1163.70 1082.28,1161.89 1082.28,1161.89 C1082.28,1161.89 1083.45,1161.83 1083.45,1161.83 C1084.13,1162.48 1087.09,1162.62 1092.62,1155.53 C1094.34,1153.24 1092.15,1148.63 1092.10,1148.13 C1091.96,1146.68 1092.20,1144.86 1092.62,1144.42 C1093.85,1143.30 1095.87,1141.45 1097.18,1141.25 C1097.50,1141.22 1098.67,1141.06 1101.22,1141.03 C1101.22,1141.03 1101.80,1136.57 1101.80,1136.57 C1101.80,1136.57 1102.50,1133.02 1102.50,1133.02 C1102.50,1133.02 1101.04,1129.79 1101.04,1129.79 C1099.48,1129.38 1097.53,1127.81 1096.83,1127.59 C1094.25,1126.80 1087.94,1128.62 1086.84,1129.40 C1085.58,1130.29 1081.03,1131.29 1080.99,1131.31 C1080.95,1131.32 1076.10,1134.43 1076.02,1134.44 C1075.84,1134.45 1074.57,1134.59 1074.21,1134.34 C1073.23,1134.16 1072.30,1134.33 1070.64,1135.05 C1069.61,1135.50 1058.81,1141.66 1058.66,1141.77 C1056.67,1143.23 1053.72,1144.25 1051.29,1144.32 C1050.36,1143.50 1043.47,1143.59 1043.40,1143.61 C1040.74,1144.48 1037.36,1146.92 1037.27,1146.87 C1034.11,1148.88 1028.94,1152.14 1027.39,1153.30 C1026.90,1153.69 1026.28,1156.99 1026.27,1160.52 C1026.27,1162.84 1025.03,1165.79 1024.58,1167.35 C1023.64,1170.27 1022.18,1175.07 1021.13,1177.85 C1020.98,1178.57 1021.45,1180.91 1022.36,1181.33 C1023.21,1181.71 1024.24,1181.96 1024.99,1182.24 C1024.99,1182.24 1025.81,1183.21 1025.81,1183.21 C1026.04,1183.60 1026.01,1193.63 1026.57,1194.71 C1027.57,1196.63 1029.79,1204.47 1030.13,1205.10 C1030.13,1205.10 1030.02,1209.21 1030.02,1209.21 C1029.37,1211.09 1028.40,1211.89 1028.50,1213.18 C1028.52,1213.48 1028.23,1214.38 1028.26,1214.50 C1028.26,1214.50 1030.02,1215.70 1030.02,1215.70 C1030.02,1215.70 1029.43,1219.64 1029.43,1219.64 C1029.43,1221.41 1028.70,1223.19 1028.40,1224.22 C1028.30,1224.52 1026.87,1230.95 1026.12,1231.74 C1024.24,1233.70 1021.68,1238.99 1021.38,1240.24 C1021.34,1240.37 1018.10,1244.30 1017.93,1244.79 C1017.93,1244.79 1012.67,1252.35 1012.67,1252.35 C1011.60,1253.37 1008.49,1257.73 1008.29,1258.58 C1008.22,1258.88 1007.67,1260.73 1005.42,1263.33 C1004.14,1264.80 993.43,1278.38 992.80,1279.03 C988.55,1283.43 986.52,1285.76 985.31,1286.71 C984.10,1287.66 980.06,1290.69 978.77,1291.46 C977.93,1291.95 975.35,1292.49 972.69,1294.08 C972.69,1294.08 967.19,1298.73 967.19,1298.73 C967.19,1298.73 960.82,1304.48 960.82,1304.48 C959.43,1307.69 958.32,1308.46 956.73,1308.42 C956.73,1308.42 955.85,1306.96 955.85,1306.96 C955.08,1306.83 954.12,1305.81 952.11,1306.19 C951.43,1306.32 950.69,1306.87 950.88,1306.87 C951.09,1307.02 952.35,1311.09 952.11,1313.78 C952.08,1314.06 951.13,1316.39 950.77,1317.23 C950.59,1317.62 947.65,1318.91 946.23,1320.94 C946.08,1321.15 945.98,1321.42 945.92,1321.77 C944.88,1321.66 939.49,1326.86 938.68,1328.86 C937.80,1331.00 936.10,1333.50 936.04,1333.61 C934.73,1335.87 934.64,1341.25 934.28,1341.29 C934.28,1341.29 929.61,1343.23 929.61,1343.23 C929.51,1346.02 930.05,1347.08 930.45,1348.40 C930.50,1348.56 932.83,1352.17 932.86,1352.92 C932.89,1353.71 932.89,1356.38 932.89,1357.54 C932.94,1359.83 933.63,1361.03 934.72,1362.41 C935.83,1363.83 943.19,1375.44 943.32,1375.68 C943.84,1376.73 944.49,1379.29 944.79,1380.45 C944.83,1380.63 943.99,1384.94 943.93,1385.07 C943.68,1385.60 943.54,1393.28 942.40,1393.76 C941.95,1393.91 936.44,1395.46 935.77,1394.65 C935.37,1394.10 935.52,1391.48 936.30,1390.19 C936.52,1389.83 938.22,1387.10 938.23,1386.43 C938.23,1386.43 937.94,1383.83 937.94,1383.83 C938.20,1382.73 938.96,1379.54 939.00,1379.05 C939.01,1378.75 937.92,1377.70 936.19,1377.07 C934.96,1376.63 931.91,1377.36 931.18,1377.91 C929.04,1379.80 926.67,1383.51 926.79,1385.25 C926.88,1386.53 928.36,1387.33 929.05,1387.03 C929.45,1386.84 931.36,1386.25 931.63,1386.37 C932.45,1386.81 932.97,1387.33 932.86,1388.17 C932.61,1389.26 931.67,1392.05 931.43,1392.61 C930.92,1393.12 927.09,1395.37 926.28,1396.36 C925.20,1397.69 923.72,1399.27 923.33,1399.56 C923.33,1399.56 922.20,1400.52 922.20,1400.52 C922.10,1400.46 916.17,1393.68 915.13,1392.98 C913.93,1392.02 913.19,1391.73 911.89,1391.74 C911.05,1391.75 909.30,1393.08 908.99,1393.83 C908.48,1395.05 907.59,1397.00 907.53,1397.21 C907.22,1398.51 908.34,1400.82 911.87,1404.89 C912.30,1405.43 914.06,1408.12 914.48,1408.71 C914.60,1408.88 914.75,1410.42 914.75,1411.57 C912.99,1413.49 910.48,1414.28 908.57,1413.86 C908.41,1413.83 904.87,1412.75 904.48,1412.08 C903.92,1411.04 908.45,1410.56 908.64,1410.37 C908.79,1408.96 906.36,1406.06 905.35,1404.88 C904.55,1403.94 903.83,1402.85 903.68,1402.66 C903.26,1402.21 901.62,1401.16 901.62,1401.16 C900.59,1400.36 894.35,1402.79 893.80,1402.97 C893.80,1402.97 881.76,1412.48 881.76,1412.48 C881.24,1412.94 877.59,1408.79 875.49,1406.01 C875.32,1405.80 873.62,1401.96 870.82,1398.09 C870.29,1397.43 870.59,1395.87 869.83,1395.83 C868.31,1395.80 864.26,1397.24 863.89,1397.41 C863.79,1397.41 862.36,1399.02 862.06,1399.22 C860.57,1400.14 858.92,1400.38 856.72,1401.65 C854.78,1402.76 850.14,1407.43 849.96,1407.40 C848.99,1407.09 847.44,1404.10 846.92,1403.17 C846.23,1401.95 845.43,1399.49 844.95,1397.98 C844.34,1395.89 844.37,1394.64 844.58,1393.08 C844.71,1392.09 846.19,1389.66 847.76,1388.66 C848.16,1388.41 851.19,1386.95 851.25,1386.47 C851.49,1384.70 850.64,1382.46 848.99,1376.74 C847.70,1372.75 845.40,1370.01 844.99,1369.74 C843.68,1368.91 841.65,1368.65 840.41,1368.90 C837.35,1369.49 825.02,1373.60 824.94,1373.64 C823.48,1374.34 821.77,1376.73 821.40,1377.18 C820.13,1378.69 818.34,1379.30 816.91,1379.28 C814.08,1379.25 811.91,1381.19 807.72,1383.83 C805.66,1385.11 802.40,1384.38 802.15,1384.31 C801.97,1384.31 794.67,1382.54 793.94,1382.32 C788.89,1381.22 788.11,1381.20 783.10,1381.68 C778.04,1381.78 769.12,1382.74 768.59,1382.59 C767.22,1382.18 765.03,1380.41 764.36,1380.25 C762.53,1379.82 761.31,1379.49 758.76,1379.61 C757.98,1379.66 756.02,1381.05 754.62,1382.68 C753.57,1384.12 746.15,1385.93 744.69,1386.14 C742.96,1386.38 735.29,1386.78 734.90,1387.10 C734.64,1387.32 733.31,1388.00 733.34,1388.00 C733.33,1388.16 728.69,1393.33 724.05,1393.80 C723.58,1393.85 714.00,1395.04 703.39,1395.53 C702.36,1395.54 693.85,1396.04 693.14,1396.15 C690.73,1396.54 676.95,1397.00 671.11,1396.59 C669.82,1396.39 666.33,1396.39 665.26,1396.35 C662.94,1396.25 662.15,1395.59 662.09,1395.55 C661.92,1395.58 660.93,1395.41 652.48,1391.87 C651.67,1391.57 648.98,1390.66 647.15,1390.63 C645.68,1390.63 643.47,1392.06 641.56,1392.17 C638.99,1392.17 632.52,1394.58 631.84,1395.00 C630.91,1395.59 628.01,1397.82 627.50,1398.58 C626.43,1400.12 624.69,1400.29 622.97,1399.98 C622.84,1399.96 619.96,1399.43 618.11,1398.33 C615.28,1396.68 611.33,1393.22 610.22,1390.59 C609.80,1389.57 609.80,1387.08 610.27,1386.63 C611.70,1385.33 617.35,1385.47 618.28,1385.35 C618.28,1385.35 618.05,1383.96 618.05,1383.96 C616.93,1382.79 615.95,1382.34 613.54,1381.55 C611.25,1380.80 608.00,1380.93 607.57,1380.92 C606.44,1380.89 602.91,1381.07 602.42,1381.05 C601.61,1381.02 598.96,1382.45 598.19,1382.41 C596.89,1381.04 592.62,1375.74 590.72,1375.23 C590.58,1375.20 584.71,1380.50 584.10,1381.61 C583.97,1381.85 583.37,1382.95 583.12,1383.71 C582.84,1383.77 580.30,1382.94 577.88,1382.84 C577.01,1382.81 575.86,1383.65 575.84,1383.75 C575.83,1383.85 575.43,1386.17 575.43,1386.64 C573.80,1386.49 572.37,1385.89 570.67,1385.88 C568.16,1385.90 562.25,1386.71 560.78,1387.16 C559.20,1387.65 556.49,1388.89 555.87,1389.12 C554.12,1389.77 550.97,1388.98 550.61,1388.97 C549.41,1388.94 547.10,1390.56 546.79,1390.56 C546.79,1390.56 547.18,1394.10 547.18,1394.10 C547.18,1394.10 545.53,1394.04 545.53,1394.04 C545.53,1394.04 544.09,1392.74 544.09,1392.74 C540.48,1391.53 535.84,1393.40 535.67,1393.51 C535.67,1393.51 535.49,1394.59 535.49,1394.59 C535.49,1394.59 535.19,1395.55 535.19,1395.55 C535.19,1395.55 535.85,1396.81 535.85,1396.81 C535.85,1396.81 536.81,1398.36 536.81,1398.36 C536.81,1398.36 537.43,1399.40 537.43,1399.40 C537.43,1399.40 538.07,1400.69 538.07,1400.69 C538.07,1400.69 538.68,1401.84 538.68,1401.84 C538.68,1401.84 539.00,1403.13 539.00,1403.13 C539.71,1405.77 535.70,1411.43 534.71,1412.43 C534.01,1413.13 530.89,1414.53 530.75,1414.60 C529.26,1415.37 522.21,1416.95 520.76,1418.00 C515.34,1421.99 512.41,1424.25 512.01,1424.67 C511.32,1425.31 499.64,1437.60 499.02,1437.89 C497.64,1438.56 493.77,1443.21 491.36,1444.73 C491.23,1444.81 486.63,1446.22 486.01,1446.77 C485.49,1447.23 484.62,1448.48 484.29,1448.68 C480.64,1450.82 477.15,1453.66 475.78,1455.01 C475.43,1455.34 473.76,1455.46 473.58,1455.48 C473.18,1455.51 471.80,1457.25 471.55,1457.47 C469.99,1457.57 467.31,1461.22 466.93,1461.56 C466.70,1461.75 464.83,1462.47 464.37,1462.93 C461.66,1465.74 460.47,1467.12 458.60,1468.04 C457.01,1470.68 449.10,1476.31 446.66,1478.30 C444.46,1480.12 442.02,1480.10 442.02,1480.10 C441.80,1480.41 440.86,1483.79 439.93,1485.43 C439.08,1486.92 438.07,1487.62 436.78,1488.97 C436.47,1489.29 433.00,1490.87 431.65,1491.27 C429.83,1491.79 427.97,1491.35 426.67,1491.32 C425.53,1491.28 423.29,1490.17 421.25,1490.09 C420.01,1490.03 418.18,1491.74 417.17,1492.14 C416.55,1492.40 415.08,1494.11 414.66,1494.43 C414.46,1494.23 410.45,1488.04 410.38,1488.01 C409.66,1487.70 407.26,1488.79 407.39,1488.75 Z"/>
</g>
</svg>
