<?xml version="1.0" encoding="UTF-8" standalone="no"?>
<!DOCTYPE svg PUBLIC "-//W3C//DTD SVG 1.1//EN" "http://www.w3.org/Graphics/SVG/1.1/DTD/svg11.dtd">
<svg width="480.00" height="480.00" viewBox="0.00 0.00 2000.00 2000.00" xmlns="http://www.w3.org/2000/svg" xmlns:xlink="http://www.w3.org/1999/xlink" fill="rgba(255, 255, 255, 0)"  stroke="rgb(0, 0, 0)" stroke-width="3.00" stroke-opacity="1.00" stroke-linejoin="round" id="svgId">
<g stroke-linecap="round" id="kyushu">
<path d="M271.52,1587.25 C271.52,1587.17 275.07,1589.43 276.48,1589.13 C277.77,1588.83 278.48,1585.14 278.46,1585.16 C279.79,1584.99 280.49,1584.98 281.06,1585.40 C281.48,1585.73 284.02,1587.55 285.22,1588.04 C286.62,1589.04 289.57,1588.84 290.82,1588.19 C292.09,1587.53 294.78,1585.10 295.08,1584.89 C295.14,1584.85 296.53,1580.72 296.85,1580.40 C297.52,1579.77 298.53,1579.53 299.10,1579.88 C300.75,1580.96 303.48,1581.69 304.19,1581.26 C304.30,1581.19 307.64,1579.12 308.60,1579.07 C308.73,1579.07 312.72,1582.24 313.09,1582.60 C313.63,1583.10 314.86,1583.14 315.36,1583.14 C315.36,1583.14 315.60,1584.98 315.60,1584.98 C315.68,1584.98 316.98,1587.15 319.59,1588.78 C322.58,1590.61 329.07,1586.21 331.69,1586.12 C334.53,1586.02 335.04,1586.10 335.27,1586.53 C335.27,1586.53 335.27,1587.79 335.27,1587.79 C334.80,1588.59 333.61,1589.12 332.96,1589.52 C332.19,1590.03 331.90,1590.94 331.92,1592.13 C331.95,1592.90 332.30,1594.52 332.23,1595.14 C332.18,1595.53 331.12,1596.25 330.55,1597.06 C330.22,1597.55 331.45,1600.53 331.59,1600.74 C332.09,1601.46 333.35,1601.73 333.48,1601.80 C333.76,1602.22 332.87,1605.06 332.90,1605.55 C332.96,1606.41 333.37,1611.12 335.37,1615.44 C336.46,1618.23 338.08,1622.80 338.56,1623.27 C338.67,1623.37 344.40,1629.35 346.14,1630.10 C346.48,1630.28 349.99,1632.49 350.25,1632.59 C353.33,1633.74 360.38,1635.56 360.70,1636.12 C360.89,1637.63 361.93,1638.58 363.37,1638.99 C365.27,1639.53 372.24,1641.29 372.82,1641.28 C373.51,1641.28 378.01,1641.25 378.75,1641.00 C378.68,1640.34 385.56,1632.69 385.60,1632.65 C386.04,1632.20 388.72,1629.05 389.11,1628.73 C391.33,1626.93 394.04,1626.23 399.07,1626.09 C401.14,1626.06 407.52,1630.03 408.17,1631.00 C408.89,1632.11 411.56,1638.69 411.86,1639.35 C412.34,1640.41 414.33,1642.88 414.43,1643.61 C414.87,1647.09 414.91,1652.36 414.04,1653.37 C413.19,1654.37 412.02,1656.50 411.70,1657.47 C413.68,1658.62 412.41,1664.33 412.34,1664.48 C412.15,1664.49 409.65,1667.54 409.48,1668.02 C409.32,1668.50 409.24,1668.66 409.05,1668.91 C409.05,1668.91 406.28,1670.55 406.28,1670.55 C406.28,1670.55 402.93,1668.32 402.93,1668.32 C402.93,1668.32 401.80,1668.57 401.80,1668.57 C401.80,1668.57 400.77,1672.78 400.77,1672.78 C400.77,1672.78 399.76,1672.81 399.76,1672.81 C399.76,1672.81 396.78,1673.65 396.78,1673.65 C396.64,1673.83 396.43,1676.29 395.41,1677.04 C395.08,1677.28 394.76,1677.42 394.19,1677.59 C394.19,1677.59 389.62,1675.82 389.62,1675.82 C389.62,1675.82 386.49,1673.01 386.49,1673.01 C386.49,1673.01 385.21,1672.78 385.21,1672.78 C385.22,1673.58 382.96,1680.18 383.63,1682.57 C384.14,1684.29 385.95,1686.73 386.27,1686.94 C386.87,1687.30 392.83,1688.35 394.46,1688.22 C394.95,1688.18 397.35,1686.57 399.15,1686.20 C401.22,1685.78 403.04,1685.72 404.32,1686.17 C405.54,1686.61 408.46,1688.71 408.65,1689.11 C408.86,1689.17 412.79,1691.22 413.95,1691.62 C417.73,1692.84 427.31,1691.16 430.09,1691.21 C430.09,1691.21 430.39,1693.32 430.39,1693.32 C429.18,1694.82 426.37,1696.15 426.31,1697.10 C426.30,1697.75 426.63,1699.51 426.56,1699.76 C425.86,1702.04 422.47,1703.16 421.56,1703.32 C421.56,1703.32 419.22,1705.75 419.22,1705.75 C419.22,1705.75 417.54,1708.61 417.54,1708.61 C417.79,1709.35 421.17,1710.60 422.02,1711.11 C422.41,1711.36 422.80,1712.45 422.84,1712.48 C422.84,1712.48 423.33,1714.09 423.33,1714.09 C423.66,1713.23 425.56,1710.40 426.71,1710.26 C427.84,1710.14 429.34,1709.48 430.30,1708.98 C430.30,1708.98 432.19,1710.09 432.19,1710.09 C432.19,1710.09 432.16,1711.84 432.16,1711.84 C432.16,1711.84 425.40,1713.50 425.40,1713.50 C425.73,1713.72 426.22,1714.79 426.47,1715.91 C426.65,1716.65 428.36,1717.16 428.54,1717.20 C428.61,1717.22 429.32,1718.25 429.48,1718.33 C430.97,1718.35 434.13,1717.70 434.96,1717.22 C435.21,1717.07 436.18,1715.40 436.49,1715.10 C437.60,1714.10 442.75,1714.63 443.06,1714.93 C443.06,1715.50 442.93,1718.74 442.06,1720.06 C441.64,1720.70 441.37,1723.56 440.69,1723.61 C439.13,1723.68 435.80,1722.12 435.63,1722.08 C434.73,1721.91 431.80,1723.35 431.22,1723.57 C429.26,1724.30 428.20,1726.94 427.93,1728.34 C427.65,1729.77 428.28,1731.76 428.78,1732.46 C429.52,1733.47 432.62,1733.18 433.09,1733.11 C433.99,1732.95 435.70,1730.15 437.09,1729.84 C437.09,1729.84 437.82,1734.97 437.82,1734.97 C438.28,1735.09 439.63,1735.34 440.30,1735.42 C441.07,1735.48 443.24,1734.71 443.70,1734.63 C445.56,1731.93 447.93,1731.83 448.60,1731.89 C448.71,1732.39 449.37,1734.22 449.64,1736.28 C449.80,1737.50 450.64,1740.76 449.76,1742.03 C449.14,1742.89 446.33,1742.93 444.95,1742.89 C444.67,1742.90 441.64,1742.04 440.93,1740.89 C440.08,1741.65 440.33,1745.19 440.41,1745.65 C440.42,1745.70 440.69,1748.77 440.65,1748.78 C440.65,1748.78 437.03,1748.04 437.03,1748.04 C437.03,1748.04 440.56,1752.97 440.56,1752.97 C440.00,1753.90 439.54,1754.73 439.38,1754.73 C438.46,1754.73 436.62,1756.18 434.99,1756.11 C434.20,1756.05 431.91,1755.98 431.89,1755.98 C431.79,1755.98 430.18,1757.51 429.57,1757.85 C429.57,1757.85 429.54,1760.13 429.54,1760.13 C427.00,1760.91 423.72,1759.33 423.27,1759.11 C423.25,1761.11 425.12,1763.81 424.79,1765.03 C424.08,1767.57 420.07,1769.26 417.64,1771.44 C416.44,1772.48 414.86,1774.28 413.99,1774.46 C413.71,1774.68 411.98,1773.61 411.59,1773.84 C411.23,1774.09 410.46,1774.23 410.31,1775.23 C409.98,1777.53 408.78,1780.00 408.58,1780.47 C407.96,1781.90 406.50,1781.87 405.10,1781.50 C403.89,1781.19 402.05,1782.18 400.66,1783.81 C400.34,1784.21 399.60,1785.32 399.88,1786.03 C400.87,1788.44 405.47,1793.69 405.82,1795.00 C406.06,1796.12 406.65,1798.61 405.99,1799.64 C405.74,1800.04 405.42,1800.46 405.21,1800.69 C405.21,1800.69 403.94,1799.62 403.94,1799.62 C403.94,1799.62 401.53,1798.08 401.53,1798.08 C401.53,1798.08 399.93,1798.84 399.93,1798.84 C399.92,1798.88 400.10,1803.16 400.06,1803.62 C399.97,1804.75 397.85,1807.56 396.74,1807.38 C395.66,1807.18 394.48,1806.52 394.14,1806.52 C393.75,1806.95 394.21,1809.97 393.72,1810.96 C392.74,1812.86 392.84,1815.24 392.19,1815.73 C391.72,1816.06 390.60,1817.14 390.35,1817.16 C390.03,1817.18 388.83,1816.50 388.22,1816.25 C387.13,1817.84 381.03,1836.31 380.97,1836.57 C380.54,1838.34 379.09,1843.03 378.47,1846.00 C377.99,1848.27 375.28,1852.55 374.52,1855.46 C374.43,1855.78 373.78,1860.41 373.41,1860.90 C372.41,1862.21 370.21,1869.28 369.56,1870.26 C369.11,1870.96 366.89,1876.26 366.68,1877.08 C366.45,1878.01 366.58,1877.71 366.64,1877.54 C367.06,1876.25 367.17,1876.37 366.82,1877.49 C366.72,1877.78 366.53,1878.37 366.44,1878.66 C366.44,1878.66 366.76,1879.99 366.76,1879.99 C366.76,1879.99 367.61,1881.03 367.61,1881.03 C367.61,1881.03 369.39,1881.96 369.39,1881.96 C369.39,1881.96 371.17,1883.48 371.17,1883.48 C371.17,1883.48 372.02,1884.73 372.02,1884.73 C372.02,1884.73 372.44,1886.10 372.44,1886.10 C372.35,1886.79 369.32,1893.73 368.28,1896.01 C368.22,1896.23 367.59,1897.62 367.51,1897.63 C366.48,1901.58 366.36,1905.31 365.43,1906.42 C365.29,1906.59 364.59,1908.18 363.50,1908.66 C362.99,1908.88 362.63,1910.16 362.50,1910.46 C362.50,1910.46 358.93,1909.76 358.93,1909.76 C357.85,1910.46 356.62,1915.24 356.67,1918.83 C356.74,1922.81 356.18,1924.43 355.63,1928.49 C355.18,1931.72 353.04,1933.32 352.59,1933.60 C352.59,1933.60 352.06,1935.39 352.06,1935.39 C351.98,1935.80 351.47,1938.62 351.57,1939.87 C351.58,1940.09 350.45,1941.61 350.15,1942.53 C349.51,1942.68 345.38,1939.65 344.71,1939.70 C342.92,1939.86 340.78,1939.52 340.41,1937.69 C340.21,1936.70 334.67,1926.33 331.53,1926.76 C331.44,1926.72 327.03,1922.56 325.80,1923.03 C324.95,1923.38 323.95,1927.53 323.91,1927.56 C323.41,1928.00 322.90,1927.61 322.64,1927.33 C322.64,1927.33 322.47,1925.68 322.47,1925.68 C320.26,1923.63 315.39,1928.23 314.25,1930.33 C314.25,1930.33 315.42,1930.73 315.42,1930.73 C315.42,1930.73 312.98,1935.51 312.98,1935.51 C312.96,1935.51 316.07,1936.51 316.90,1937.75 C318.92,1940.82 323.89,1945.16 324.68,1945.89 C325.53,1946.69 325.93,1947.32 325.74,1947.81 C325.33,1947.81 315.72,1952.41 315.72,1952.41 C315.29,1952.52 312.87,1954.93 311.93,1954.87 C311.23,1954.83 308.28,1956.08 307.67,1957.23 C306.33,1959.77 304.27,1961.46 302.88,1963.67 C301.61,1964.04 299.37,1965.72 299.17,1965.70 C296.42,1965.40 290.71,1969.77 289.20,1969.92 C287.12,1970.09 284.71,1969.48 284.26,1969.37 C284.26,1969.37 283.38,1968.85 283.38,1968.85 C283.38,1968.85 281.20,1970.93 281.20,1970.93 C278.06,1973.10 272.40,1979.09 269.94,1980.96 C268.84,1981.79 266.61,1981.86 265.44,1981.20 C264.23,1980.48 264.37,1978.71 265.19,1976.91 C266.05,1974.98 266.71,1971.95 266.70,1971.77 C266.40,1967.79 266.09,1966.65 265.81,1965.78 C269.48,1963.38 271.03,1963.37 274.38,1960.81 C275.34,1960.09 276.30,1959.79 278.51,1958.08 C279.61,1957.22 280.62,1954.42 280.80,1954.07 C280.87,1953.94 281.14,1953.42 281.18,1953.34 C281.18,1953.34 281.45,1952.90 281.45,1952.90 C281.56,1952.73 283.84,1949.64 285.38,1938.34 C285.41,1938.09 284.84,1927.92 284.52,1927.38 C284.40,1927.16 282.14,1925.08 282.37,1924.01 C282.66,1922.61 281.79,1920.06 281.62,1919.88 C280.64,1918.93 277.82,1919.60 276.63,1918.98 C273.89,1917.50 273.84,1914.57 273.87,1913.86 C274.72,1913.08 278.01,1911.70 278.46,1911.50 C279.00,1911.24 279.73,1909.83 279.77,1909.79 C279.82,1909.72 281.96,1908.38 281.98,1908.27 C282.10,1907.74 279.12,1904.93 277.33,1904.71 C276.95,1904.67 271.61,1904.66 271.43,1904.65 C270.06,1904.55 267.89,1902.78 267.50,1902.10 C265.65,1898.76 267.30,1896.14 268.66,1894.53 C269.08,1894.08 277.45,1893.83 278.55,1895.72 C279.77,1898.12 279.91,1898.85 280.16,1901.80 C280.28,1903.17 281.26,1904.33 281.39,1904.49 C282.20,1905.43 283.16,1905.51 283.83,1905.72 C283.87,1905.73 286.45,1904.61 286.82,1904.44 C287.18,1903.90 292.21,1893.95 291.53,1889.77 C291.22,1888.01 288.27,1886.46 287.74,1886.30 C287.18,1886.15 285.46,1886.84 285.30,1886.85 C284.52,1884.33 282.21,1881.90 281.69,1881.53 C281.05,1881.08 279.16,1880.11 277.83,1880.33 C277.73,1880.35 274.55,1880.82 273.39,1881.96 C272.79,1882.55 270.96,1884.33 269.38,1885.53 C268.47,1886.38 266.66,1888.19 267.28,1889.63 C267.64,1890.45 267.10,1891.66 266.98,1891.91 C266.72,1892.38 263.72,1894.81 263.16,1895.78 C262.21,1897.48 262.89,1899.43 262.93,1900.34 C262.02,1900.34 260.34,1903.38 260.25,1903.52 C259.15,1905.20 256.70,1906.12 256.31,1907.01 C255.88,1908.10 254.91,1916.28 255.10,1917.04 C255.58,1917.76 257.85,1920.65 257.90,1921.17 C258.04,1922.78 257.09,1923.50 257.34,1924.96 C257.39,1925.92 262.89,1936.66 264.95,1937.64 C274.00,1941.89 273.94,1942.11 273.95,1942.17 C273.90,1942.20 271.21,1943.56 271.07,1944.86 C270.89,1946.77 270.90,1947.62 270.91,1947.93 C268.25,1946.18 265.92,1940.89 263.05,1940.19 C261.61,1939.86 257.09,1942.19 256.96,1943.30 C256.73,1945.30 257.32,1947.30 258.56,1947.90 C259.62,1948.40 263.41,1948.49 263.60,1948.52 C264.20,1948.60 267.38,1950.15 267.53,1950.65 C267.67,1951.22 265.18,1953.68 264.40,1954.19 C262.51,1955.40 261.00,1955.54 259.79,1954.54 C258.51,1953.47 253.25,1953.45 251.47,1953.44 C251.48,1953.37 253.33,1949.79 253.38,1949.67 C253.53,1949.35 253.36,1947.96 252.42,1947.46 C252.35,1947.43 249.89,1946.13 249.38,1945.87 C249.38,1945.87 249.08,1944.72 249.08,1944.72 C249.08,1944.72 248.96,1943.02 248.96,1943.02 C248.96,1943.02 247.80,1941.20 247.80,1941.20 C247.17,1940.59 245.41,1940.59 243.84,1940.63 C242.70,1940.65 239.60,1940.60 238.92,1940.38 C238.24,1940.16 232.78,1935.56 232.49,1935.34 C232.22,1935.16 230.80,1935.04 230.44,1935.80 C230.36,1935.98 229.70,1938.11 229.47,1938.34 C228.84,1938.45 226.33,1937.96 225.35,1938.25 C223.55,1938.79 222.56,1938.80 221.44,1938.77 C220.95,1937.68 219.95,1936.62 219.81,1936.46 C219.35,1935.90 219.56,1932.44 218.59,1931.00 C218.29,1930.58 215.96,1929.65 215.66,1929.36 C215.38,1928.31 216.81,1924.63 216.82,1924.16 C216.82,1923.44 216.59,1922.64 216.16,1921.95 C216.16,1921.95 211.84,1921.81 211.84,1921.81 C211.84,1921.81 208.56,1912.46 208.56,1912.46 C208.56,1912.46 209.52,1912.17 209.52,1912.17 C209.52,1912.17 214.77,1910.36 214.77,1910.36 C214.77,1910.36 216.60,1909.70 216.60,1909.70 C217.69,1911.10 218.04,1913.14 218.65,1914.04 C219.67,1915.42 221.76,1915.95 221.91,1915.81 C222.08,1915.52 228.92,1908.77 229.50,1908.44 C229.72,1908.32 230.22,1908.17 230.22,1908.20 C230.22,1908.20 231.58,1906.79 231.58,1906.79 C231.63,1907.21 233.01,1905.21 233.35,1903.42 C233.92,1900.31 232.96,1893.35 232.93,1892.92 C232.65,1889.71 228.85,1878.17 226.48,1874.19 C224.35,1870.59 221.60,1866.66 220.47,1866.92 C219.19,1865.92 217.71,1863.65 217.73,1862.58 C217.79,1860.41 218.29,1858.07 218.83,1856.88 C219.56,1855.30 220.95,1853.91 221.87,1852.34 C222.72,1850.89 223.26,1849.04 223.15,1847.27 C223.08,1846.18 222.83,1842.18 222.82,1842.06 C222.64,1840.53 219.73,1837.93 219.31,1837.13 C219.87,1835.79 222.07,1834.71 222.66,1833.41 C222.70,1833.34 222.98,1832.34 223.15,1831.78 C221.67,1829.07 219.75,1825.34 218.57,1824.18 C217.02,1822.71 213.58,1817.57 214.06,1816.41 C214.62,1815.06 214.77,1812.34 215.05,1811.93 C216.41,1810.05 216.35,1809.12 216.41,1809.06 C216.71,1809.15 217.91,1811.41 218.87,1811.56 C219.06,1811.58 223.98,1808.41 224.30,1808.23 C225.31,1808.62 225.08,1809.69 224.99,1811.04 C224.89,1812.64 224.91,1814.03 225.10,1816.48 C225.26,1816.74 228.18,1821.58 233.23,1822.40 C235.90,1821.97 242.29,1821.79 242.84,1820.33 C243.51,1818.36 242.33,1812.37 242.45,1811.93 C242.58,1811.46 245.89,1806.30 246.35,1804.04 C247.10,1800.43 247.98,1799.20 248.78,1798.35 C249.51,1797.59 252.38,1796.67 253.98,1795.72 C255.58,1794.77 261.02,1788.58 262.16,1787.86 C262.86,1787.42 263.16,1784.07 263.44,1782.77 C263.50,1782.48 263.65,1781.78 264.24,1781.93 C265.15,1782.16 266.22,1782.20 266.54,1782.20 C266.55,1782.20 267.66,1782.05 268.17,1781.58 C269.51,1780.26 268.80,1776.95 267.90,1775.91 C267.19,1775.12 266.05,1775.12 265.88,1775.12 C265.54,1775.10 263.57,1774.06 263.77,1774.00 C265.34,1773.54 265.84,1772.63 266.84,1771.97 C266.95,1771.90 267.86,1769.02 269.81,1768.78 C270.09,1768.75 273.51,1768.76 274.13,1768.38 C275.12,1767.75 275.99,1764.11 275.75,1763.73 C274.86,1762.36 272.15,1761.67 271.93,1761.60 C270.56,1761.12 266.82,1761.79 265.62,1762.66 C263.09,1764.51 262.70,1767.20 260.26,1770.39 C256.76,1774.98 250.45,1783.18 249.06,1784.21 C246.43,1786.11 241.66,1787.28 239.70,1787.67 C239.34,1787.75 237.58,1788.50 235.96,1788.64 C234.89,1788.75 234.65,1789.02 234.88,1789.90 C235.16,1790.89 234.93,1792.42 235.03,1794.09 C235.05,1794.71 235.42,1797.69 235.42,1797.71 C235.42,1797.72 235.42,1797.74 235.42,1797.75 C235.42,1797.75 234.91,1800.81 234.91,1800.81 C232.39,1802.32 228.54,1802.26 227.65,1802.21 C225.91,1802.12 217.80,1803.34 217.06,1803.55 C214.67,1804.23 213.70,1806.43 210.91,1810.29 C209.82,1811.83 208.78,1812.84 206.63,1812.82 C205.07,1812.76 204.37,1810.76 204.85,1808.77 C205.17,1807.65 205.67,1805.80 205.59,1804.19 C205.51,1801.86 202.13,1799.90 201.84,1799.63 C201.84,1799.63 202.26,1798.37 202.26,1798.37 C202.26,1798.37 205.22,1796.05 205.22,1796.05 C205.32,1795.43 204.59,1792.27 204.30,1791.59 C203.62,1789.99 201.26,1788.05 201.35,1787.07 C201.46,1786.21 201.66,1783.53 202.70,1782.40 C203.35,1781.71 205.88,1779.64 206.25,1778.62 C206.80,1777.14 207.15,1775.85 207.21,1773.82 C207.24,1773.02 208.76,1769.05 208.49,1768.05 C208.49,1768.05 208.33,1767.88 208.33,1767.88 C208.33,1767.88 208.61,1767.72 208.61,1767.72 C208.82,1767.77 209.48,1768.33 209.80,1768.12 C209.90,1768.05 210.17,1767.84 210.61,1767.49 C209.81,1767.46 208.94,1767.44 208.63,1766.52 C208.50,1766.13 208.39,1765.53 208.42,1765.54 C208.42,1765.54 207.46,1764.07 207.46,1764.07 C207.46,1764.07 208.08,1762.09 208.08,1762.09 C209.07,1762.00 210.60,1763.31 212.97,1763.31 C214.31,1763.30 214.62,1763.25 214.79,1763.13 C214.79,1763.13 215.67,1762.51 215.67,1762.51 C216.60,1762.24 219.10,1760.89 220.73,1761.33 C221.77,1761.62 225.34,1763.38 225.60,1763.80 C225.70,1763.96 226.89,1765.71 226.91,1765.75 C227.03,1765.99 226.56,1769.36 226.76,1770.09 C227.06,1771.13 230.31,1771.14 231.02,1771.02 C231.81,1770.88 233.94,1770.20 234.37,1770.24 C234.37,1770.24 234.67,1772.84 234.67,1772.84 C234.91,1772.72 237.88,1771.06 238.97,1770.63 C240.37,1770.08 243.38,1769.98 243.90,1769.35 C244.30,1768.85 244.96,1767.56 245.09,1767.49 C245.09,1767.49 247.14,1767.95 247.14,1767.95 C247.14,1767.95 247.22,1769.86 247.22,1769.86 C248.05,1770.73 250.84,1772.34 252.52,1771.94 C253.36,1771.73 254.54,1771.66 255.35,1771.42 C255.35,1771.42 255.19,1769.71 255.19,1769.71 C252.99,1768.76 251.16,1767.54 250.73,1767.27 C249.85,1766.71 249.77,1766.02 250.12,1765.22 C250.28,1764.88 251.53,1764.43 251.88,1763.72 C252.13,1763.18 252.04,1762.93 252.00,1762.79 C250.21,1761.82 248.96,1760.38 248.07,1758.77 C247.55,1757.89 245.55,1757.12 245.60,1756.60 C247.60,1756.59 249.22,1755.45 250.17,1755.47 C251.48,1755.47 258.49,1755.33 260.40,1754.43 C264.15,1752.61 268.73,1749.68 269.26,1749.59 C269.26,1749.59 270.30,1748.17 270.30,1748.17 C270.30,1748.17 273.19,1748.46 273.19,1748.46 C273.19,1748.46 275.38,1741.70 275.38,1741.70 C274.36,1741.64 271.38,1740.57 270.60,1739.34 C270.54,1739.24 270.82,1738.84 271.03,1738.53 C271.03,1738.53 274.04,1738.62 274.04,1738.62 C275.11,1736.93 275.08,1734.38 274.29,1733.47 C272.87,1731.88 266.98,1728.50 265.89,1726.73 C265.43,1725.97 262.99,1721.92 262.69,1721.43 C261.81,1719.99 258.06,1718.76 257.08,1718.57 C257.24,1714.83 258.56,1711.67 258.45,1711.50 C257.80,1710.68 257.32,1708.11 255.95,1707.41 C254.27,1706.59 252.14,1705.29 252.73,1704.00 C252.80,1703.86 257.44,1700.38 257.45,1700.03 C257.43,1698.61 257.03,1697.16 255.77,1696.18 C254.03,1694.80 252.83,1691.87 252.76,1691.77 C250.30,1688.45 248.09,1686.88 245.30,1685.49 C244.47,1685.07 243.16,1681.83 242.92,1681.12 C242.42,1679.61 240.28,1677.78 239.88,1677.43 C237.98,1675.92 233.45,1680.81 232.66,1681.85 C231.77,1683.02 229.64,1685.22 228.65,1684.90 C227.96,1684.68 225.80,1684.82 225.60,1683.78 C226.10,1685.39 226.07,1688.17 226.38,1689.36 C226.68,1690.47 228.69,1697.74 230.29,1699.19 C231.27,1700.07 236.50,1705.80 236.71,1706.66 C236.95,1707.68 236.02,1711.56 235.83,1711.74 C234.52,1712.93 231.14,1712.83 230.72,1712.85 C229.12,1712.93 227.85,1715.15 228.25,1715.94 C229.08,1717.48 232.17,1719.25 232.38,1719.40 C233.45,1720.00 236.60,1722.10 236.90,1722.10 C239.20,1721.99 239.97,1722.37 242.17,1722.59 C244.43,1722.83 246.68,1724.70 247.16,1725.11 C248.50,1726.25 249.44,1731.81 249.99,1734.31 C250.19,1735.75 250.86,1738.15 250.85,1738.99 C250.82,1740.77 248.08,1744.18 247.83,1744.86 C247.61,1745.51 247.69,1749.04 247.19,1749.54 C247.19,1749.54 243.84,1749.25 243.84,1749.25 C243.34,1748.72 239.52,1750.94 234.98,1753.12 C234.08,1754.00 230.51,1753.83 229.95,1754.19 C229.24,1754.66 225.44,1758.43 225.17,1758.72 C225.17,1758.72 225.05,1756.50 225.05,1756.50 C225.05,1756.50 219.15,1752.21 219.15,1752.21 C219.15,1752.21 219.05,1749.89 219.05,1749.89 C219.30,1749.74 219.71,1746.23 218.54,1745.03 C218.54,1745.03 218.84,1743.23 218.84,1743.23 C220.79,1740.27 223.31,1740.13 225.51,1739.75 C226.97,1739.47 228.85,1736.73 228.83,1736.10 C228.70,1733.77 225.92,1728.52 224.96,1728.21 C224.96,1728.21 224.75,1726.98 224.75,1726.98 C222.87,1727.03 215.49,1731.22 215.43,1731.25 C214.34,1731.71 212.06,1729.83 211.11,1729.64 C210.24,1729.36 209.39,1729.50 209.16,1729.90 C209.10,1730.02 207.89,1732.26 206.60,1733.40 C206.46,1733.52 203.79,1733.41 202.95,1733.98 C202.26,1734.58 199.72,1736.58 198.84,1737.00 C198.51,1737.16 195.49,1739.46 194.82,1740.23 C194.70,1740.37 193.26,1742.01 193.11,1742.20 C193.04,1742.30 192.89,1744.76 192.59,1745.16 C192.50,1745.28 190.37,1746.75 190.01,1747.23 C190.01,1747.23 185.13,1747.82 185.13,1747.82 C185.13,1747.82 182.88,1755.64 182.88,1755.64 C181.50,1755.74 178.51,1754.03 178.19,1753.62 C175.95,1750.65 174.93,1747.94 174.93,1746.63 C174.93,1746.63 178.81,1738.12 178.81,1738.12 C178.81,1738.12 179.96,1737.48 179.96,1737.48 C179.96,1737.48 180.24,1734.69 180.24,1734.69 C180.24,1734.70 178.62,1732.59 178.58,1731.37 C178.57,1730.86 178.80,1730.20 178.95,1729.60 C179.43,1730.19 181.75,1732.13 181.92,1732.64 C182.30,1733.69 182.65,1734.37 183.43,1734.50 C184.62,1734.67 186.15,1734.25 186.51,1734.28 C186.51,1734.28 185.47,1730.48 185.47,1730.48 C184.58,1729.87 182.11,1726.71 182.09,1726.69 C179.59,1724.79 183.21,1721.19 184.31,1719.34 C184.31,1719.34 184.43,1717.96 184.43,1717.96 C184.43,1717.96 185.96,1717.93 185.96,1717.93 C185.96,1717.93 186.57,1716.98 186.57,1716.98 C186.57,1716.98 187.91,1715.98 187.91,1715.98 C187.91,1715.98 190.37,1715.20 190.37,1715.20 C190.60,1714.90 192.35,1715.43 197.41,1715.12 C197.50,1715.12 200.00,1717.91 200.46,1718.74 C201.37,1720.38 202.50,1721.12 203.83,1721.14 C204.01,1721.19 202.79,1720.14 202.69,1720.01 C202.39,1719.61 201.79,1715.47 200.99,1714.53 C199.24,1712.36 198.71,1706.36 199.71,1704.26 C200.34,1702.94 203.47,1698.92 203.46,1698.21 C203.46,1698.21 200.05,1697.02 200.05,1697.02 C200.00,1696.79 200.55,1692.94 199.57,1692.41 C199.13,1692.17 199.04,1690.08 199.05,1689.28 C197.42,1688.93 195.15,1688.79 194.12,1689.08 C192.93,1689.42 189.40,1692.30 189.15,1692.26 C188.82,1691.45 188.94,1687.88 188.27,1687.46 C187.81,1687.19 186.51,1686.48 185.53,1686.37 C185.53,1686.37 180.17,1691.18 180.17,1691.18 C180.18,1691.61 182.84,1694.53 182.97,1694.66 C183.78,1695.40 189.96,1696.32 190.92,1696.98 C190.87,1697.66 188.88,1706.05 187.36,1707.58 C186.13,1708.81 184.66,1714.34 184.40,1714.55 C184.31,1714.62 183.66,1715.07 183.52,1715.15 C183.52,1715.15 183.46,1717.19 183.46,1717.19 C183.46,1717.19 181.79,1719.47 181.79,1719.47 C181.79,1719.47 181.02,1720.48 181.02,1720.48 C180.28,1720.52 177.06,1719.05 176.62,1718.61 C174.34,1716.30 172.87,1714.19 172.65,1713.89 C171.64,1712.52 171.34,1710.55 171.12,1709.20 C170.74,1706.85 170.54,1706.31 168.93,1705.26 C168.69,1705.10 168.24,1704.81 168.02,1704.67 C167.78,1704.33 166.07,1700.79 165.95,1700.43 C165.33,1698.32 166.21,1694.55 166.23,1694.17 C166.23,1694.17 169.70,1694.64 169.70,1694.64 C169.70,1694.64 166.41,1690.76 166.41,1690.76 C166.41,1690.76 168.24,1686.54 168.24,1686.54 C169.09,1686.01 169.86,1685.12 170.92,1683.22 C171.16,1682.79 172.02,1682.64 172.62,1682.58 C172.62,1682.58 171.74,1679.47 171.74,1679.47 C172.91,1679.52 176.05,1680.92 176.23,1680.94 C177.70,1681.11 179.33,1680.83 179.80,1680.67 C178.38,1680.15 179.81,1677.99 179.88,1677.82 C179.88,1677.82 177.78,1674.12 177.78,1674.12 C177.78,1674.12 172.45,1673.80 172.45,1673.80 C172.28,1673.76 169.60,1672.77 169.38,1670.97 C169.18,1669.11 170.42,1664.96 169.25,1664.52 C168.61,1664.29 166.43,1663.86 166.03,1663.86 C165.77,1663.87 165.09,1664.07 162.91,1663.87 C161.49,1663.74 158.87,1662.66 158.80,1662.65 C158.72,1662.14 158.85,1657.48 158.86,1657.05 C158.90,1656.05 163.93,1652.65 164.73,1652.25 C164.72,1652.21 162.47,1650.12 161.22,1650.06 C159.97,1650.02 158.03,1651.50 157.63,1652.19 C156.15,1654.90 153.46,1660.26 152.07,1660.63 C151.97,1660.65 151.84,1660.67 151.67,1660.68 C151.67,1660.68 151.00,1662.90 151.00,1662.90 C151.00,1662.90 145.98,1660.26 145.98,1660.26 C145.98,1660.26 141.56,1664.45 141.56,1664.45 C140.86,1664.48 138.76,1664.28 137.36,1663.10 C137.01,1662.77 136.61,1662.27 136.39,1661.92 C136.50,1660.69 138.46,1659.50 137.58,1658.39 C137.22,1657.95 137.32,1657.13 137.76,1656.05 C141.36,1656.07 144.40,1652.95 145.34,1651.06 C145.39,1650.96 147.31,1648.44 147.76,1647.46 C148.45,1646.44 149.71,1643.53 150.55,1642.90 C150.71,1642.78 150.82,1640.25 151.15,1639.90 C151.15,1639.90 156.06,1642.80 156.06,1642.80 C156.06,1642.80 156.57,1634.52 156.57,1634.52 C156.57,1634.52 159.95,1633.36 159.95,1633.36 C159.84,1632.59 159.79,1631.08 159.78,1630.90 C159.77,1629.81 160.89,1628.59 161.23,1628.28 C161.89,1627.73 162.95,1628.04 163.58,1628.43 C163.58,1628.43 164.25,1632.74 164.25,1632.74 C164.25,1632.74 160.87,1632.59 160.87,1632.59 C160.34,1633.41 161.43,1635.03 161.99,1637.25 C162.09,1637.63 163.18,1641.52 163.36,1643.49 C163.36,1643.49 167.35,1640.30 167.35,1640.30 C167.35,1640.30 165.78,1637.72 165.78,1637.72 C166.10,1637.33 167.79,1639.62 170.34,1639.25 C170.57,1639.21 173.41,1638.02 175.21,1638.04 C175.44,1638.04 175.68,1638.05 175.91,1638.05 C175.91,1638.05 174.39,1639.42 174.39,1639.42 C174.39,1639.42 174.42,1640.61 174.42,1640.61 C175.05,1640.53 176.81,1641.52 178.25,1642.26 C179.16,1642.73 181.97,1644.97 182.79,1644.51 C183.43,1644.16 186.94,1646.48 187.51,1647.14 C188.29,1648.04 188.74,1649.44 189.03,1650.64 C189.03,1650.64 192.35,1648.57 192.35,1648.57 C192.35,1648.57 193.23,1645.29 193.23,1645.29 C193.23,1645.29 192.87,1641.00 192.87,1641.00 C192.87,1641.00 196.25,1641.22 196.25,1641.22 C196.25,1641.22 192.02,1638.47 192.02,1638.47 C191.83,1638.14 190.92,1637.27 190.86,1637.06 C190.43,1635.43 191.84,1632.83 191.74,1632.00 C192.64,1632.78 193.18,1633.20 193.81,1633.60 C194.42,1633.97 194.77,1633.90 195.37,1633.28 C195.37,1633.28 197.41,1633.51 197.41,1633.51 C197.28,1630.59 194.89,1627.65 195.58,1626.78 C196.16,1626.14 196.52,1626.26 197.07,1626.75 C197.45,1626.84 198.22,1626.04 197.34,1621.13 C198.51,1620.07 200.43,1618.60 201.64,1619.31 C202.08,1619.59 202.88,1620.88 203.65,1621.38 C204.75,1622.07 205.72,1621.71 206.33,1621.74 C207.13,1621.76 209.64,1621.32 209.98,1621.62 C210.16,1622.62 210.13,1623.65 210.15,1624.38 C210.18,1625.22 211.03,1626.84 210.99,1627.02 C210.70,1628.20 209.71,1631.72 209.71,1631.76 C209.71,1631.76 210.07,1636.07 210.07,1636.07 C210.07,1636.03 217.55,1633.39 219.16,1632.52 C220.28,1631.91 221.83,1630.60 222.83,1629.22 C223.15,1628.79 224.77,1628.71 225.51,1628.87 C226.29,1629.04 227.84,1630.30 228.04,1630.37 C229.31,1630.79 231.13,1626.81 231.14,1626.68 C231.25,1625.59 229.92,1624.25 227.55,1623.35 C227.45,1623.31 225.39,1622.29 225.30,1622.17 C225.30,1622.17 228.77,1621.30 228.77,1621.30 C228.77,1621.30 230.72,1615.43 230.72,1615.43 C231.30,1615.27 235.08,1615.57 235.98,1615.17 C237.66,1614.42 241.06,1609.82 242.29,1608.50 C242.36,1608.42 242.52,1608.27 242.77,1608.04 C242.30,1610.78 242.28,1615.19 243.21,1618.04 C243.76,1619.69 244.83,1621.58 245.42,1622.64 C245.95,1623.52 246.39,1623.90 247.17,1623.99 C247.90,1624.06 250.10,1624.39 250.57,1624.31 C251.12,1624.21 253.23,1622.01 254.89,1621.53 C255.33,1621.41 259.30,1621.34 259.66,1621.34 C260.97,1621.34 261.84,1620.93 262.35,1620.24 C262.93,1619.41 263.69,1618.51 263.66,1617.58 C263.61,1616.59 261.95,1614.10 261.47,1613.32 C261.16,1613.20 259.76,1613.23 259.52,1613.22 C258.43,1613.19 255.54,1615.76 254.62,1615.51 C253.80,1615.28 250.94,1613.11 250.57,1612.53 C248.89,1609.78 248.92,1607.88 248.92,1607.50 C249.65,1607.63 251.64,1610.09 252.43,1610.53 C252.88,1610.78 256.06,1612.52 257.39,1612.42 C257.37,1612.43 260.45,1611.05 261.84,1611.39 C262.76,1611.60 264.32,1609.43 264.69,1609.03 C266.91,1606.60 270.51,1604.28 270.48,1603.40 C270.39,1602.03 267.38,1601.66 266.93,1599.96 C265.89,1595.91 267.66,1594.57 268.17,1594.11 C268.17,1594.11 271.15,1594.30 271.15,1594.30 C271.73,1593.61 272.27,1592.38 272.31,1592.23 C272.37,1592.00 271.90,1588.00 271.82,1586.95 C271.82,1586.95 271.58,1587.22 271.58,1587.22"/>
</g>
</svg>
