<?xml version="1.0" encoding="UTF-8" standalone="no"?>
<!DOCTYPE svg PUBLIC "-//W3C//DTD SVG 1.1//EN" "http://www.w3.org/Graphics/SVG/1.1/DTD/svg11.dtd">
<svg width="480.00" height="480.00" viewBox="0.00 0.00 2000.00 2000.00" xmlns="http://www.w3.org/2000/svg" xmlns:xlink="http://www.w3.org/1999/xlink">
<g stroke-linecap="round" id="misc">
<path d="M56.35,1713.17 C56.43,1712.68 49.39,1708.17 57.00,1702.33 C57.63,1701.88 58.46,1701.67 58.84,1701.81 C58.84,1701.81 61.36,1711.18 61.36,1711.18 C61.70,1711.49 62.82,1711.35 63.14,1710.80 C64.18,1709.01 64.80,1708.72 66.19,1708.73 C66.91,1708.74 67.55,1708.35 68.43,1708.34 C68.81,1708.35 70.13,1709.52 70.39,1709.49 C70.41,1709.58 72.37,1706.90 72.98,1706.69 C73.24,1706.62 76.79,1709.77 75.90,1711.90 C75.59,1712.53 74.98,1713.09 74.92,1713.10 C74.98,1713.17 74.39,1715.19 74.47,1715.39 C74.51,1715.48 77.77,1722.11 77.94,1722.77 C78.16,1723.71 78.32,1726.64 78.34,1726.82 C78.39,1727.20 79.13,1727.99 79.15,1727.94 C78.49,1727.54 72.71,1724.68 72.53,1724.72 C72.09,1724.83 69.48,1725.29 69.33,1725.93 C69.32,1726.02 69.39,1728.12 69.86,1729.13 C70.14,1729.72 72.20,1732.07 72.13,1732.45 C71.46,1733.00 67.64,1733.46 66.26,1733.24 C65.32,1733.05 62.38,1728.60 61.31,1728.32 C60.08,1728.04 55.30,1727.91 52.50,1726.76 C52.20,1726.63 50.71,1724.92 50.71,1723.55 C50.74,1722.37 50.83,1720.95 50.81,1720.74 C51.72,1720.72 53.15,1719.53 53.43,1718.95 C53.69,1718.35 53.57,1717.18 53.00,1716.56 C52.73,1716.27 49.47,1713.99 49.08,1713.04 C48.68,1712.03 48.27,1709.69 48.50,1709.30 C48.91,1708.72 50.65,1708.26 51.24,1708.28 C52.39,1709.05 53.40,1714.05 54.51,1714.46 C54.80,1714.56 55.27,1714.57 55.54,1714.53 C55.54,1714.53 56.35,1713.17 56.35,1713.17 Z" fill="none" stroke="rgb(0, 0, 0)" stroke-width="3.00" stroke-opacity="1.00" stroke-linejoin="round"/>
<path d="M80.48,1695.86 C80.65,1696.06 81.54,1697.95 82.14,1698.30 C82.41,1698.44 83.88,1698.60 84.28,1698.46 C85.07,1698.13 85.82,1692.97 86.87,1691.85 C87.17,1691.55 88.31,1691.55 88.71,1691.25 C89.49,1690.66 91.28,1688.30 92.13,1688.22 C95.00,1688.12 96.14,1687.25 96.23,1686.19 C96.32,1684.98 96.30,1683.51 96.21,1682.90 C96.34,1682.92 98.35,1683.74 99.28,1683.25 C100.34,1682.62 100.66,1680.62 100.64,1679.33 C100.62,1679.28 103.02,1679.10 103.56,1678.66 C106.13,1676.39 106.17,1672.96 106.15,1672.29 C106.48,1671.79 107.84,1670.50 107.88,1669.26 C107.91,1668.31 110.37,1663.00 110.83,1661.79 C111.42,1660.23 111.34,1657.59 111.36,1657.51 C110.52,1657.50 104.98,1662.91 103.51,1663.07 C101.30,1663.26 97.16,1661.87 96.79,1661.57 C96.72,1661.11 96.89,1660.55 97.44,1660.35 C97.59,1660.29 101.91,1659.12 102.20,1658.30 C102.77,1656.49 100.00,1654.76 100.03,1654.72 C99.99,1654.63 101.78,1652.84 102.17,1652.74 C102.43,1652.69 104.48,1653.44 105.44,1653.33 C106.83,1653.11 108.36,1650.18 108.29,1649.38 C107.99,1648.95 107.31,1646.56 107.48,1645.65 C107.65,1644.92 109.68,1643.18 112.01,1642.30 C114.87,1641.23 116.43,1641.06 116.72,1641.25 C117.00,1641.44 119.35,1643.52 119.51,1643.65 C118.91,1644.49 115.15,1646.35 114.17,1647.24 C113.88,1647.50 113.77,1648.18 113.75,1648.39 C113.75,1648.39 117.52,1653.02 117.52,1653.02 C116.30,1654.12 116.07,1654.94 116.51,1655.62 C117.38,1657.01 117.82,1659.41 117.50,1661.21 C116.47,1666.37 112.71,1671.09 113.02,1672.71 C113.22,1673.52 114.03,1675.38 114.12,1675.56 C114.12,1675.56 118.93,1676.56 118.93,1676.56 C119.95,1677.74 118.12,1679.89 116.67,1680.56 C116.28,1681.34 117.90,1683.39 118.38,1686.28 C118.55,1687.77 116.75,1692.43 116.59,1692.55 C116.59,1692.55 113.02,1691.77 113.02,1691.77 C112.74,1692.14 111.57,1692.75 110.40,1694.02 C110.28,1694.16 108.39,1699.42 107.23,1699.94 C107.23,1699.94 102.40,1705.00 102.40,1705.00 C102.40,1705.00 102.85,1707.08 102.85,1707.08 C101.67,1705.80 99.15,1703.10 99.18,1702.58 C99.20,1702.42 99.31,1700.40 99.00,1700.05 C98.66,1699.71 97.81,1699.47 97.49,1699.67 C96.83,1701.45 95.25,1702.71 92.31,1703.50 C92.31,1703.50 90.57,1706.67 90.57,1706.67 C90.67,1706.86 91.39,1706.80 92.68,1706.35 C94.07,1705.90 94.55,1708.64 96.23,1711.83 C96.77,1712.89 96.95,1714.41 96.69,1714.64 C96.39,1714.84 90.85,1714.63 90.37,1714.67 C90.37,1714.67 90.12,1716.21 90.12,1716.21 C90.12,1716.21 89.87,1708.05 89.87,1708.05 C89.87,1708.05 87.55,1707.45 87.55,1707.45 C87.55,1707.45 86.70,1702.21 86.70,1702.21 C84.57,1702.24 82.97,1702.69 82.69,1703.02 C81.95,1703.92 84.02,1712.87 84.00,1713.00 C83.88,1713.16 78.86,1712.68 78.67,1712.02 C78.49,1711.39 78.05,1707.81 77.66,1707.34 C76.47,1705.92 76.20,1705.16 75.98,1704.31 C75.98,1704.31 73.84,1702.50 75.85,1700.75 C75.85,1700.75 80.48,1695.86 80.48,1695.86 Z" fill="none" stroke="rgb(0, 0, 0)" stroke-width="3.00" stroke-opacity="1.00" stroke-linejoin="round"/>
<path d="M177.26,1588.38 C177.17,1588.48 176.32,1588.37 175.59,1588.92 C175.27,1589.19 174.34,1591.89 174.28,1593.45 C174.25,1594.83 176.32,1595.13 176.54,1595.05 C177.36,1594.73 180.25,1591.53 180.96,1591.04 C181.53,1591.27 181.55,1592.32 180.93,1595.19 C180.72,1596.19 180.74,1597.14 180.88,1597.35 C180.97,1597.50 182.86,1598.29 183.95,1598.57 C184.41,1598.68 189.09,1595.25 189.34,1594.97 C189.63,1594.63 190.43,1592.75 190.62,1592.69 C190.62,1592.69 195.08,1594.30 195.08,1594.30 C196.08,1592.96 196.44,1590.97 195.58,1589.38 C194.18,1586.84 192.07,1585.23 191.80,1584.57 C191.79,1584.50 193.91,1580.59 194.09,1579.51 C194.18,1578.82 193.63,1577.19 193.21,1576.33 C192.48,1576.26 189.38,1576.22 187.85,1576.78 C187.00,1577.10 185.80,1576.77 185.41,1575.92 C185.41,1575.92 184.69,1572.80 184.15,1572.34 C183.76,1572.01 183.15,1571.72 183.00,1571.75 C182.82,1571.75 181.72,1575.97 182.27,1580.07 C182.41,1581.17 182.09,1582.38 181.34,1582.72 C180.99,1582.87 179.87,1583.24 179.68,1583.51 C179.42,1583.88 179.16,1586.24 178.27,1587.27 C177.93,1587.64 177.60,1588.01 177.26,1588.38 Z" fill="none" stroke="rgb(0, 0, 0)" stroke-width="3.00" stroke-opacity="1.00" stroke-linejoin="round"/>
<path d="M134.33,1501.99 C134.23,1502.04 132.77,1501.93 132.62,1505.37 C132.61,1505.88 132.89,1510.08 132.82,1512.60 C132.77,1514.20 129.51,1521.40 129.45,1522.41 C129.32,1524.72 128.54,1528.27 128.54,1528.72 C128.60,1529.86 131.88,1534.55 133.17,1534.63 C134.64,1534.63 135.51,1534.78 135.59,1534.77 C135.76,1534.65 141.15,1528.84 141.70,1526.97 C142.67,1523.71 145.97,1519.53 146.31,1516.47 C146.33,1516.32 148.14,1513.56 148.42,1513.48 C148.78,1513.42 152.50,1513.04 152.70,1513.01 C153.56,1512.86 155.24,1511.71 155.64,1510.94 C156.07,1510.09 156.98,1508.65 157.53,1506.46 C157.67,1505.89 158.08,1501.73 158.09,1501.33 C158.09,1500.90 155.72,1494.94 155.72,1494.37 C155.72,1494.37 153.15,1498.15 153.15,1498.15 C153.15,1498.15 153.51,1493.45 153.51,1493.45 C153.51,1493.45 155.02,1492.31 155.02,1492.31 C155.04,1492.30 155.34,1490.05 156.22,1488.10 C156.39,1487.67 156.64,1487.06 156.85,1486.79 C157.10,1486.78 157.89,1486.93 158.46,1486.61 C158.67,1486.49 160.16,1486.07 161.21,1484.76 C161.66,1484.24 165.60,1478.98 166.62,1477.94 C169.20,1474.93 169.80,1468.73 171.70,1465.56 C172.08,1464.90 172.06,1463.78 172.50,1461.35 C172.69,1460.24 171.40,1457.85 171.35,1457.79 C168.32,1454.26 166.39,1452.79 166.16,1452.66 C165.92,1453.24 161.82,1459.54 159.95,1459.86 C159.75,1459.89 155.95,1459.92 155.72,1459.71 C154.82,1458.81 153.18,1458.62 152.55,1459.01 C150.65,1460.24 149.09,1461.83 148.85,1463.34 C148.74,1464.13 148.10,1468.30 147.99,1469.02 C147.67,1471.21 145.52,1473.89 144.90,1474.86 C144.58,1475.36 144.47,1475.70 144.50,1475.82 C144.50,1475.82 147.21,1476.39 147.21,1476.39 C147.23,1477.90 143.20,1484.14 142.76,1486.29 C142.09,1489.61 141.63,1493.00 140.75,1493.88 C140.24,1494.40 140.56,1495.31 140.97,1497.12 C140.97,1497.12 137.15,1497.00 137.15,1497.00 C136.97,1497.34 137.09,1498.21 137.63,1499.01 C138.30,1499.98 139.93,1500.10 140.04,1500.12 C140.43,1500.19 142.50,1500.11 144.25,1500.07 C144.55,1500.06 145.60,1498.74 145.68,1498.65 C145.69,1501.62 146.25,1502.37 147.01,1502.32 C147.21,1502.16 149.13,1500.60 149.63,1500.81 C150.02,1501.00 150.64,1501.73 150.64,1503.02 C150.64,1503.44 149.95,1507.98 149.98,1507.97 C149.98,1507.97 143.04,1505.74 143.04,1505.74 C143.04,1505.74 141.00,1507.80 141.00,1507.80 C139.41,1507.36 138.88,1506.85 137.25,1504.70 C136.98,1504.31 136.58,1503.11 135.92,1502.64 C134.92,1501.95 134.32,1501.99 134.33,1501.99 Z" fill="none" stroke="rgb(0, 0, 0)" stroke-width="3.00" stroke-opacity="1.00" stroke-linejoin="round"/>
<path d="M445.48,1609.10 C445.48,1609.10 446.03,1607.62 446.40,1606.83 C446.55,1606.56 448.77,1606.57 449.70,1606.97 C450.86,1607.49 452.34,1609.25 452.69,1610.92 C452.88,1611.83 453.38,1612.23 455.03,1614.45 C455.03,1614.45 461.93,1617.12 461.93,1617.12 C461.55,1617.16 459.02,1619.95 458.00,1620.41 C457.98,1620.42 455.64,1621.24 455.51,1621.43 C454.88,1622.33 453.43,1623.04 453.37,1623.12 C453.03,1623.66 452.77,1624.23 452.77,1624.37 C452.73,1624.42 450.76,1624.44 450.25,1624.05 C449.70,1623.62 448.40,1620.43 448.39,1620.11 C448.40,1619.92 450.31,1616.16 450.70,1615.38 C450.70,1615.38 445.67,1609.86 445.67,1609.86 C445.67,1609.86 444.77,1609.71 444.77,1609.71 C444.77,1609.71 445.48,1609.10 445.48,1609.10 Z" fill="none" stroke="rgb(0, 0, 0)" stroke-width="3.00" stroke-opacity="1.00" stroke-linejoin="round"/>
<path d="M461.32,1634.34 C461.66,1634.50 463.71,1634.45 464.19,1634.08 C465.27,1633.19 467.07,1630.02 467.16,1628.81 C467.47,1624.55 467.85,1624.21 468.27,1624.21 C468.40,1624.28 471.23,1628.22 471.39,1628.39 C472.38,1629.47 474.51,1630.41 474.81,1630.07 C475.01,1629.83 477.89,1625.54 477.98,1625.18 C478.13,1624.58 477.81,1622.91 477.78,1622.41 C477.95,1622.36 479.34,1622.09 482.18,1620.12 C482.90,1619.62 482.90,1617.86 484.10,1617.23 C484.37,1617.09 484.84,1614.93 484.88,1614.56 C484.17,1612.83 476.81,1618.01 476.45,1618.26 C475.11,1619.26 472.75,1619.35 471.94,1619.29 C471.77,1619.26 471.00,1618.23 470.26,1618.23 C467.18,1618.34 464.30,1622.04 461.80,1623.05 C461.80,1623.05 461.07,1624.83 461.07,1624.83 C461.07,1624.83 461.32,1634.34 461.32,1634.34 Z" fill="none" stroke="rgb(0, 0, 0)" stroke-width="3.00" stroke-opacity="1.00" stroke-linejoin="round"/>
<path d="M471.28,1610.35 C471.06,1610.46 469.07,1606.06 469.17,1605.33 C469.20,1605.18 469.26,1604.98 469.38,1604.72 C469.38,1604.72 470.43,1602.74 470.43,1602.74 C470.43,1602.74 472.60,1602.80 472.60,1602.80 C472.83,1602.43 474.71,1598.51 474.89,1598.38 C475.07,1598.25 479.02,1596.85 479.49,1598.21 C480.12,1600.12 480.86,1601.16 481.86,1602.77 C483.07,1604.54 485.15,1605.02 486.24,1605.31 C486.63,1605.38 487.16,1605.42 487.42,1605.41 C487.42,1605.41 487.77,1603.46 487.77,1603.46 C488.05,1603.46 490.21,1604.89 491.46,1604.43 C492.86,1603.91 495.61,1603.95 496.27,1603.23 C496.85,1602.59 497.64,1601.64 497.71,1600.88 C497.72,1600.70 496.11,1599.49 495.29,1599.21 C494.06,1598.82 490.48,1600.35 489.38,1599.63 C489.11,1599.45 487.26,1598.53 487.40,1598.28 C487.41,1598.17 488.91,1597.76 489.28,1597.41 C490.09,1596.58 488.20,1594.54 488.05,1593.75 C488.05,1593.75 492.88,1589.84 492.88,1589.84 C492.88,1589.84 494.19,1586.49 494.19,1586.49 C494.94,1586.17 496.06,1587.90 496.05,1589.39 C496.05,1590.58 496.05,1593.73 496.58,1594.07 C496.98,1594.31 501.26,1595.87 501.59,1596.10 C501.57,1598.76 503.57,1601.81 505.71,1604.02 C504.88,1604.79 502.71,1606.23 501.74,1606.76 C499.99,1607.73 500.29,1609.21 500.25,1609.29 C499.30,1610.24 495.81,1609.16 495.60,1609.11 C495.37,1609.05 493.91,1608.52 493.33,1609.11 C492.64,1609.81 491.07,1610.78 490.89,1611.32 C490.85,1611.46 490.85,1615.44 490.31,1616.19 C490.27,1616.25 490.18,1616.33 490.06,1616.45 C489.76,1615.90 489.28,1611.98 489.05,1611.23 C488.56,1609.75 485.86,1609.10 484.34,1609.09 C482.92,1609.10 479.58,1610.89 479.27,1610.91 C475.02,1611.11 473.40,1611.69 472.70,1611.63 C472.70,1611.63 471.28,1610.35 471.28,1610.35 Z" fill="none" stroke="rgb(0, 0, 0)" stroke-width="3.00" stroke-opacity="1.00" stroke-linejoin="round"/>
<path d="M541.97,1573.61 C541.97,1573.61 541.03,1574.22 541.03,1574.22 C541.03,1574.22 539.63,1577.48 539.63,1577.48 C540.23,1578.08 543.26,1579.41 544.14,1579.19 C544.92,1578.95 547.65,1577.28 548.79,1577.92 C550.33,1578.81 553.00,1578.32 553.62,1578.41 C554.76,1578.57 558.55,1577.52 558.66,1577.41 C558.66,1577.41 559.61,1575.05 559.61,1575.05 C559.51,1574.98 557.81,1573.75 557.27,1573.56 C556.11,1573.16 552.43,1573.88 551.13,1573.91 C549.84,1573.91 548.25,1572.71 548.16,1572.67 C547.58,1572.42 544.95,1572.43 544.16,1572.43 C543.78,1572.44 543.28,1572.74 541.97,1573.61 Z" fill="none" stroke="rgb(0, 0, 0)" stroke-width="3.00" stroke-opacity="1.00" stroke-linejoin="round"/>
<path d="M563.34,1570.82 C563.35,1570.88 563.37,1570.91 563.40,1570.90 C563.40,1570.90 561.37,1575.38 561.37,1575.38 C561.58,1575.48 564.18,1577.10 565.30,1576.88 C568.47,1576.17 573.10,1573.77 573.23,1573.85 C573.48,1573.32 574.30,1571.24 574.21,1570.15 C574.19,1569.99 573.35,1566.51 573.86,1564.73 C573.90,1564.60 573.91,1564.47 573.91,1564.36 C572.19,1563.78 570.96,1562.75 570.76,1562.67 C570.24,1562.49 568.88,1563.61 568.62,1563.87 C567.82,1564.70 567.31,1567.45 567.11,1568.05 C566.78,1568.15 565.44,1568.16 564.67,1568.69 C563.43,1569.58 563.28,1570.47 563.34,1570.82 Z" fill="none" stroke="rgb(0, 0, 0)" stroke-width="3.00" stroke-opacity="1.00" stroke-linejoin="round"/>
<path d="M576.77,1564.05 C576.77,1564.05 576.12,1567.64 576.12,1567.64 C577.28,1568.12 579.86,1567.80 580.81,1566.88 C581.09,1566.60 582.09,1565.11 582.18,1565.02 C582.31,1565.55 582.53,1566.46 582.56,1567.14 C582.58,1567.76 581.92,1569.15 581.76,1570.00 C581.76,1570.00 585.38,1570.51 585.38,1570.51 C585.38,1570.51 585.58,1574.06 585.58,1574.06 C585.58,1574.06 590.74,1572.57 590.74,1572.57 C591.37,1571.13 591.94,1568.08 591.62,1567.89 C590.61,1567.31 590.35,1566.36 590.36,1565.45 C590.36,1565.45 592.58,1565.12 592.58,1565.12 C591.81,1561.36 590.39,1561.11 590.04,1561.14 C590.04,1561.14 588.00,1558.17 588.00,1558.17 C586.10,1557.17 584.12,1556.96 583.55,1557.68 C583.09,1558.29 582.80,1559.02 582.71,1559.78 C579.86,1559.69 578.10,1561.56 577.90,1561.78 C577.90,1561.78 577.21,1563.05 577.21,1563.05 C577.21,1563.05 576.77,1564.05 576.77,1564.05 Z" fill="none" stroke="rgb(0, 0, 0)" stroke-width="3.00" stroke-opacity="1.00" stroke-linejoin="round"/>
<path d="M516.43,1603.91 C516.34,1603.80 516.15,1601.50 516.63,1600.82 C517.74,1599.39 520.04,1598.36 521.06,1598.33 C521.06,1598.33 523.55,1603.53 523.55,1603.53 C524.27,1603.77 527.63,1601.88 527.76,1601.85 C528.51,1601.69 529.95,1602.10 530.25,1602.55 C530.39,1603.71 528.62,1606.23 527.83,1606.58 C527.07,1606.89 525.50,1606.77 523.15,1605.62 C522.29,1605.21 518.02,1605.68 517.44,1605.69 C517.44,1605.69 517.01,1603.92 517.01,1603.92 C516.63,1603.91 516.46,1603.93 516.43,1603.91 Z" fill="none" stroke="rgb(0, 0, 0)" stroke-width="3.00" stroke-opacity="1.00" stroke-linejoin="round"/>
<path d="M510.82,1600.42 C510.83,1600.41 510.84,1600.40 510.86,1600.39 C511.33,1600.08 513.05,1601.04 512.52,1602.26 C511.98,1603.47 511.18,1604.44 511.14,1604.69 C510.93,1606.74 511.14,1606.95 513.06,1608.01 C513.72,1608.38 514.84,1609.30 514.93,1609.94 C515.01,1610.70 514.64,1611.66 514.39,1611.88 C512.46,1612.21 510.50,1612.36 509.41,1611.49 C508.41,1610.69 507.24,1610.06 507.02,1609.93 C507.04,1609.89 506.48,1606.47 506.68,1606.06 C506.76,1605.91 510.32,1601.92 510.36,1601.78 C510.46,1601.47 510.75,1600.47 510.78,1600.45 C510.80,1600.43 510.81,1600.42 510.82,1600.42 Z" fill="none" stroke="rgb(0, 0, 0)" stroke-width="3.00" stroke-opacity="1.00" stroke-linejoin="round"/>
<path d="M800.75,1542.67 C800.75,1542.67 800.80,1542.48 800.80,1542.48 C800.42,1543.06 794.82,1545.87 791.67,1548.26 C788.52,1550.68 786.65,1554.31 785.86,1557.05 C785.61,1556.61 784.63,1556.28 783.82,1556.38 C781.19,1556.81 777.62,1561.90 777.25,1562.96 C775.49,1568.18 774.04,1571.56 773.68,1572.12 C773.33,1572.08 771.23,1574.71 770.46,1574.60 C770.34,1574.58 770.11,1574.57 769.76,1574.58 C769.76,1574.58 768.89,1573.74 768.89,1573.74 C768.83,1573.63 766.70,1572.99 765.60,1574.07 C765.51,1574.16 764.06,1580.10 764.01,1581.57 C765.03,1582.63 768.23,1582.53 768.24,1583.85 C768.24,1584.14 767.55,1585.51 767.64,1586.33 C767.67,1586.55 768.06,1586.57 768.59,1586.51 C768.59,1586.51 771.86,1583.52 771.86,1583.52 C771.92,1583.77 772.41,1585.53 772.42,1585.61 C772.65,1587.56 770.41,1588.02 768.52,1588.76 C768.32,1589.54 768.51,1590.68 769.45,1591.33 C774.96,1595.28 775.95,1595.77 776.42,1595.70 C776.49,1595.52 777.94,1594.97 778.63,1594.37 C778.93,1594.11 780.17,1592.37 781.00,1592.18 C781.70,1592.03 795.41,1586.93 798.03,1586.13 C798.27,1586.06 798.59,1586.01 798.99,1585.97 C799.19,1585.44 800.04,1583.23 799.39,1582.13 C799.18,1581.78 797.44,1579.94 796.37,1577.18 C794.39,1572.01 793.91,1566.55 793.96,1566.30 C794.47,1563.61 798.82,1557.57 801.51,1555.26 C803.97,1553.15 805.90,1549.86 806.87,1548.39 C807.48,1547.41 808.38,1545.66 809.13,1544.27 C810.18,1542.30 810.07,1540.90 810.06,1539.84 C810.06,1539.45 810.10,1537.71 810.11,1537.59 C809.89,1537.50 808.77,1536.10 808.15,1536.57 C807.04,1537.44 802.82,1541.26 801.05,1543.17" fill="none" stroke="rgb(0, 0, 0)" stroke-width="3.00" stroke-opacity="1.00" stroke-linejoin="round"/>
<path d="M579.31,1303.58 C579.05,1304.12 578.82,1307.08 579.03,1308.44 C579.09,1308.87 580.81,1310.40 581.66,1310.39 C582.69,1310.39 583.54,1310.98 583.78,1312.16 C583.83,1312.47 584.15,1314.79 584.10,1315.11 C584.00,1315.46 585.54,1318.48 586.30,1319.30 C587.25,1320.30 591.10,1318.60 593.14,1319.79 C590.82,1316.49 587.24,1314.71 587.10,1312.73 C587.37,1312.44 588.81,1311.61 588.86,1310.81 C588.86,1310.41 588.87,1309.80 588.94,1309.25 C589.62,1309.49 592.21,1312.74 592.38,1312.91 C592.75,1313.28 593.05,1314.84 593.26,1315.44 C593.26,1315.44 595.15,1315.45 595.15,1315.45 C595.57,1315.04 598.50,1311.12 598.50,1311.11 C598.56,1311.01 599.48,1309.65 600.54,1309.61 C601.18,1309.60 602.82,1309.78 603.28,1309.34 C603.77,1308.77 603.14,1305.88 602.32,1305.08 C602.21,1304.97 598.80,1303.08 596.96,1303.02 C594.91,1302.98 593.47,1304.39 593.02,1304.86 C592.97,1304.08 594.84,1302.12 595.68,1301.26 C597.02,1299.86 597.36,1297.55 596.96,1295.75 C596.64,1294.42 594.14,1294.71 592.26,1295.32 C591.14,1295.68 588.65,1295.92 587.55,1296.70 C585.83,1297.97 582.88,1300.20 579.67,1303.23 C579.52,1303.29 579.44,1303.32 579.44,1303.32 C579.37,1303.38 579.36,1303.49 579.31,1303.58 Z" fill="none" stroke="rgb(0, 0, 0)" stroke-width="3.00" stroke-opacity="1.00" stroke-linejoin="round"/>
<path d="M609.97,1275.14 C609.35,1276.23 607.27,1285.69 607.28,1287.15 C607.30,1287.81 609.48,1289.47 610.85,1290.27 C611.49,1290.64 614.42,1290.56 614.53,1290.57 C614.78,1292.37 612.42,1296.06 613.24,1297.38 C614.06,1298.62 614.92,1299.35 615.66,1299.55 C616.86,1299.84 618.41,1299.50 619.31,1298.50 C620.39,1297.24 621.28,1296.62 622.05,1296.52 C623.34,1296.42 625.10,1298.49 625.93,1299.95 C625.96,1300.00 627.83,1299.39 629.63,1297.55 C630.54,1296.59 631.12,1292.22 632.97,1287.45 C633.08,1287.17 633.17,1286.78 633.25,1286.27 C632.40,1284.67 631.68,1279.25 628.74,1276.77 C628.10,1276.24 622.39,1273.00 622.30,1270.96 C622.27,1269.23 622.17,1268.56 621.17,1267.68 C621.17,1267.68 618.70,1272.72 618.70,1272.72 C618.50,1272.64 616.51,1273.41 615.06,1273.44 C614.11,1273.45 613.19,1272.60 612.89,1272.76 C611.21,1273.68 610.15,1274.83 609.97,1275.14 Z" fill="none" stroke="rgb(0, 0, 0)" stroke-width="3.00" stroke-opacity="1.00" stroke-linejoin="round"/>
<path d="M1220.37,1031.32 C1219.74,1030.73 1219.40,1030.44 1219.04,1030.59 C1218.52,1030.82 1217.42,1032.03 1216.62,1034.01 C1215.93,1035.76 1215.49,1039.40 1215.07,1040.66 C1214.09,1043.36 1211.38,1046.63 1210.04,1048.24 C1206.92,1052.16 1205.80,1062.17 1206.06,1064.21 C1206.07,1064.33 1206.29,1066.69 1206.44,1066.97 C1206.66,1067.34 1207.84,1067.45 1208.80,1067.54 C1209.21,1066.82 1211.12,1064.05 1211.70,1063.52 C1213.18,1062.22 1215.72,1062.18 1216.58,1062.91 C1217.91,1063.70 1218.82,1064.81 1218.92,1064.91 C1218.94,1064.94 1218.94,1065.42 1218.94,1066.49 C1218.46,1066.46 1216.95,1066.18 1216.70,1066.42 C1214.54,1068.72 1213.07,1071.39 1212.90,1071.72 C1212.32,1072.91 1212.55,1078.05 1212.55,1079.13 C1212.55,1080.20 1211.54,1081.52 1211.29,1081.83 C1210.83,1082.39 1205.52,1083.38 1204.53,1083.41 C1204.53,1083.41 1203.64,1084.90 1203.64,1084.90 C1203.67,1088.65 1204.42,1089.86 1205.51,1090.53 C1205.86,1090.73 1208.44,1091.26 1208.80,1090.94 C1210.18,1089.69 1212.16,1088.91 1212.70,1088.57 C1213.63,1088.01 1220.37,1087.61 1221.38,1086.79 C1223.91,1084.75 1230.69,1081.22 1232.00,1079.74 C1234.84,1076.52 1239.26,1073.10 1239.50,1071.78 C1239.68,1071.03 1243.23,1065.32 1243.45,1065.02 C1244.30,1063.84 1246.43,1058.89 1246.85,1056.90 C1246.98,1056.25 1247.89,1049.47 1247.18,1048.56 C1246.63,1047.93 1245.14,1047.80 1242.70,1048.80 C1241.06,1049.42 1237.08,1051.15 1236.03,1051.06 C1235.12,1050.95 1233.51,1050.40 1232.61,1049.62 C1232.46,1049.48 1232.52,1046.77 1232.53,1046.47 C1232.59,1045.28 1233.93,1042.54 1234.04,1042.29 C1234.41,1041.57 1236.66,1039.04 1236.91,1038.65 C1237.77,1037.27 1239.71,1034.83 1240.11,1033.02 C1241.09,1028.28 1240.09,1022.47 1241.19,1020.34 C1241.77,1019.29 1242.53,1017.81 1242.55,1017.21 C1242.55,1016.52 1242.20,1014.10 1241.67,1013.83 C1241.35,1013.68 1239.06,1012.47 1238.75,1012.36 C1237.85,1012.04 1235.02,1012.39 1234.67,1013.16 C1233.87,1015.04 1228.34,1025.19 1227.90,1026.06 C1227.90,1026.06 1226.72,1024.10 1226.72,1024.10 C1225.75,1024.04 1223.24,1028.67 1223.27,1029.74 C1223.32,1030.82 1223.23,1031.36 1223.15,1031.50 C1223.15,1031.50 1220.37,1031.32 1220.37,1031.32 Z" fill="none" stroke="rgb(0, 0, 0)" stroke-width="3.00" stroke-opacity="1.00" stroke-linejoin="round"/>
<path d="M1328.30,1527.01 C1327.86,1527.03 1327.16,1529.89 1326.94,1531.85 C1326.61,1534.87 1326.69,1539.75 1327.26,1541.60 C1327.88,1543.51 1331.53,1545.88 1332.39,1545.87 C1333.87,1545.82 1337.40,1545.63 1337.60,1545.63 C1337.71,1545.55 1340.16,1542.86 1340.29,1541.33 C1340.40,1539.88 1339.24,1534.59 1338.96,1533.52 C1338.14,1531.23 1333.10,1529.78 1331.31,1527.85 C1330.85,1527.41 1328.89,1527.01 1328.30,1527.01 Z" fill="none" stroke="rgb(0, 0, 0)" stroke-width="3.00" stroke-opacity="1.00" stroke-linejoin="round"/>
<path d="M1499.17,5.64 C1499.17,5.64 1500.41,6.52 1500.41,6.52 C1500.41,6.52 1505.24,12.35 1505.24,12.35 C1505.61,11.71 1505.39,9.46 1505.33,9.04 C1505.28,8.71 1506.59,7.69 1506.84,7.67 C1507.00,7.82 1508.04,9.26 1508.16,9.42 C1508.92,10.38 1509.85,12.90 1509.81,15.81 C1509.80,16.20 1511.67,32.87 1511.18,34.94 C1511.01,35.63 1510.93,36.30 1510.96,36.74 C1509.84,36.90 1508.70,36.34 1507.87,35.63 C1505.03,33.12 1502.43,18.92 1499.59,13.51 C1497.36,9.29 1497.51,5.93 1497.53,5.95 C1497.53,5.95 1499.17,5.64 1499.17,5.64 Z" fill="none" stroke="rgb(0, 0, 0)" stroke-width="3.00" stroke-opacity="1.00" stroke-linejoin="round"/>
<path d="M1525.38,36.07 C1525.38,36.07 1524.26,35.25 1524.26,35.25 C1522.99,35.65 1521.11,36.99 1517.90,40.78 C1516.16,42.73 1516.00,43.86 1515.99,45.53 C1516.03,46.56 1517.42,49.66 1518.71,51.54 C1519.11,52.11 1525.43,56.04 1527.06,58.10 C1527.61,58.80 1528.89,59.54 1529.64,59.71 C1530.23,59.83 1533.13,57.72 1534.84,57.47 C1534.98,57.45 1535.70,57.48 1535.80,57.47 C1538.26,57.64 1539.15,48.33 1539.14,48.17 C1539.13,48.11 1534.12,38.38 1531.25,37.07 C1531.04,36.98 1526.21,36.99 1525.38,36.07 Z" fill="none" stroke="rgb(0, 0, 0)" stroke-width="3.00" stroke-opacity="1.00" stroke-linejoin="round"/>
<path d="M471.75,1708.12 C471.76,1708.30 471.84,1708.82 471.99,1709.69 C472.14,1710.06 473.04,1710.37 473.71,1710.57 C474.36,1710.91 476.80,1717.36 477.29,1718.19 C478.98,1718.94 482.62,1715.33 482.71,1715.31 C482.74,1714.87 481.27,1713.66 480.98,1713.03 C480.77,1712.56 480.57,1711.42 480.61,1711.43 C480.61,1711.43 482.29,1713.10 482.29,1713.10 C482.16,1711.32 480.83,1710.21 479.35,1708.30 C479.25,1708.17 478.69,1705.69 478.59,1705.77 C478.59,1705.77 479.51,1700.92 479.51,1700.92 C479.51,1700.92 481.07,1700.96 481.07,1700.96 C481.07,1700.96 483.04,1706.07 483.04,1706.07 C483.04,1706.07 485.98,1709.58 485.98,1709.58 C485.98,1709.58 487.92,1706.67 487.92,1706.67 C488.04,1704.55 488.79,1703.38 489.47,1702.96 C490.28,1702.52 493.71,1703.39 494.30,1703.38 C494.34,1702.53 492.73,1700.28 490.86,1699.01 C490.21,1698.58 487.85,1698.58 486.45,1697.44 C485.86,1696.94 482.57,1697.35 480.02,1697.32 C479.07,1697.33 476.62,1699.18 474.94,1700.50 C474.94,1700.50 474.98,1703.35 474.98,1703.35 C474.98,1703.35 474.98,1704.93 474.98,1704.93 C474.98,1704.93 472.79,1706.74 472.79,1706.74 C472.77,1706.82 471.74,1708.10 471.75,1708.12 Z" fill="none" stroke="rgb(0, 0, 0)" stroke-width="3.00" stroke-opacity="1.00" stroke-linejoin="round"/>
<path d="M492.84,1764.24 C492.84,1764.24 494.48,1762.49 494.48,1762.49 C494.48,1762.49 496.99,1767.58 496.99,1767.58 C496.99,1767.58 501.40,1767.07 501.40,1767.07 C501.40,1767.07 503.21,1770.25 503.21,1770.25 C503.21,1770.25 505.23,1769.49 505.23,1769.49 C505.23,1769.49 504.64,1782.23 504.64,1782.23 C504.64,1782.23 495.23,1776.10 495.23,1776.10 C495.23,1776.10 493.92,1770.83 493.92,1770.83 C493.92,1770.83 493.17,1770.25 493.17,1770.25 C493.17,1770.25 492.84,1764.24 492.84,1764.24 Z" fill="none" stroke="rgb(0, 0, 0)" stroke-width="3.00" stroke-opacity="1.00" stroke-linejoin="round"/>
<path d="M156.64,1687.29 C156.48,1687.33 156.17,1687.32 155.71,1687.27 C155.71,1687.27 155.83,1692.36 155.83,1692.36 C155.83,1692.36 158.15,1692.49 158.15,1692.49 C158.15,1692.49 159.32,1689.13 159.32,1689.13 C159.32,1689.13 160.08,1691.89 160.08,1691.89 C160.08,1691.89 161.34,1691.89 161.34,1691.89 C163.44,1690.42 163.20,1685.19 163.69,1684.53 C163.69,1684.53 165.62,1682.93 165.62,1682.93 C165.67,1679.97 164.79,1678.53 163.65,1678.89 C163.45,1678.97 162.78,1679.25 161.59,1679.43 C161.59,1679.43 160.67,1685.14 160.67,1685.14 C160.67,1685.14 158.57,1684.90 158.57,1684.90 C157.89,1686.51 156.91,1687.21 156.64,1687.29 Z" fill="none" stroke="rgb(0, 0, 0)" stroke-width="3.00" stroke-opacity="1.00" stroke-linejoin="round"/>
<path d="M156.97,1706.61 C156.23,1710.31 156.94,1711.23 157.05,1711.37 C157.05,1711.37 159.70,1709.11 159.70,1709.11 C159.78,1708.99 161.05,1708.83 161.72,1708.98 C162.60,1709.18 164.80,1712.14 165.62,1714.41 C166.55,1714.03 166.73,1712.41 165.75,1709.63 C165.30,1708.44 163.72,1707.44 161.97,1706.86 C161.97,1706.86 163.61,1705.17 163.61,1705.17 C163.76,1704.15 163.22,1702.57 163.15,1702.38 C162.93,1701.89 162.09,1699.22 161.25,1698.55 C160.88,1698.29 160.29,1698.33 160.20,1698.32 C160.10,1698.53 159.51,1700.15 159.20,1700.83 C158.92,1701.83 159.85,1703.88 160.25,1704.82 C160.25,1704.82 158.48,1705.10 158.48,1705.10 C158.48,1705.10 157.47,1705.12 157.47,1705.12 C157.45,1705.48 157.00,1706.45 156.97,1706.61 Z" fill="none" stroke="rgb(0, 0, 0)" stroke-width="3.00" stroke-opacity="1.00" stroke-linejoin="round"/>
<path d="M125.52,1678.63 C125.52,1678.63 124.50,1679.27 124.50,1679.27 C124.50,1679.27 123.55,1680.33 123.55,1680.33 C123.55,1680.33 123.55,1683.65 123.55,1683.65 C123.55,1683.65 124.29,1684.81 124.29,1684.81 C124.29,1684.81 126.05,1684.60 126.05,1684.60 C126.05,1684.60 127.61,1683.54 127.61,1683.54 C127.61,1683.54 128.28,1682.59 128.28,1682.59 C128.28,1682.59 128.49,1680.97 128.49,1680.97 C128.49,1680.97 129.86,1680.93 129.86,1680.93 C129.86,1680.93 131.56,1681.78 131.56,1681.78 C131.56,1681.78 132.47,1682.20 132.47,1682.20 C132.47,1682.20 133.15,1684.07 133.15,1684.07 C133.15,1684.07 133.43,1685.27 133.43,1685.27 C133.43,1685.27 133.92,1686.40 133.92,1686.40 C133.92,1686.40 134.52,1687.25 134.52,1687.25 C134.52,1687.25 135.30,1687.99 135.30,1687.99 C135.30,1687.99 138.83,1688.06 138.83,1688.06 C138.83,1688.06 140.24,1687.49 140.24,1687.49 C140.24,1687.49 141.65,1686.47 141.65,1686.47 C141.65,1686.47 141.40,1682.94 141.40,1682.94 C141.40,1682.94 140.94,1681.85 140.94,1681.85 C140.94,1681.85 139.95,1681.14 139.95,1681.14 C139.95,1681.14 138.12,1680.37 138.12,1680.37 C138.12,1680.37 136.00,1679.94 136.00,1679.94 C136.00,1679.94 136.32,1678.22 136.32,1678.22 C136.32,1678.22 137.48,1676.70 137.48,1676.70 C137.48,1676.70 140.52,1676.21 140.52,1676.21 C140.52,1676.21 143.55,1677.05 143.55,1677.05 C143.55,1677.05 145.88,1678.25 145.88,1678.25 C145.88,1678.25 148.21,1678.39 148.21,1678.39 C148.21,1678.39 152.30,1678.89 152.30,1678.89 C152.30,1678.89 154.70,1678.46 154.70,1678.46 C155.28,1678.07 156.88,1675.29 157.28,1674.83 C157.31,1674.79 157.41,1674.68 157.45,1674.55 C157.45,1674.55 159.36,1672.50 159.36,1672.50 C159.36,1672.50 160.24,1671.51 160.24,1671.51 C160.24,1671.51 160.06,1669.18 160.06,1669.18 C160.06,1669.18 157.70,1667.21 157.70,1667.21 C157.70,1667.21 156.99,1665.59 156.99,1665.59 C156.99,1665.59 155.76,1663.65 155.76,1663.65 C155.76,1663.65 153.92,1663.01 153.92,1663.01 C153.92,1663.01 153.18,1665.80 153.18,1665.80 C153.18,1665.80 154.10,1667.35 154.10,1667.35 C154.10,1667.35 154.38,1668.55 154.38,1668.55 C154.38,1668.55 153.75,1671.51 153.75,1671.51 C153.75,1671.51 152.94,1672.68 152.94,1672.68 C152.94,1672.68 151.95,1672.89 151.95,1672.89 C151.95,1672.89 150.61,1673.45 150.61,1673.45 C150.61,1673.45 149.69,1674.02 149.69,1674.02 C149.69,1674.02 147.57,1674.44 147.57,1674.44 C147.57,1674.44 145.74,1673.38 145.74,1673.38 C145.74,1673.38 144.33,1674.58 144.33,1674.58 C144.33,1674.58 142.99,1675.08 142.99,1675.08 C142.99,1675.08 140.24,1672.89 140.24,1672.89 C140.24,1672.89 137.27,1672.47 137.27,1672.47 C137.27,1672.47 135.93,1673.17 135.93,1673.17 C135.93,1673.17 134.87,1673.95 134.87,1673.95 C134.87,1673.95 133.18,1674.86 133.18,1674.86 C133.18,1674.86 132.44,1675.61 132.44,1675.61 C132.44,1675.61 131.63,1676.98 131.63,1676.98 C131.63,1676.98 130.71,1677.40 130.71,1677.40 C130.71,1677.40 128.45,1677.55 128.45,1677.55 C128.45,1677.55 127.47,1677.83 127.47,1677.83 C127.47,1677.83 125.52,1678.63 125.52,1678.63 Z" fill="none" stroke="rgb(0, 0, 0)" stroke-width="2.00" stroke-opacity="1.00" stroke-linejoin="round"/>
<path d="M710.93,1542.28 C710.85,1542.32 710.51,1542.26 709.98,1542.25 C709.98,1542.25 708.98,1542.33 708.98,1542.33 C708.98,1542.33 708.29,1543.22 708.29,1543.22 C708.29,1543.22 706.55,1545.15 706.55,1545.15 C706.55,1545.15 707.07,1546.46 707.07,1546.46 C707.07,1546.46 705.51,1548.60 705.51,1548.60 C705.51,1548.60 706.08,1549.69 706.08,1549.69 C706.08,1549.69 707.33,1549.90 707.33,1549.90 C707.33,1549.90 708.27,1549.48 708.27,1549.48 C708.27,1549.48 709.21,1549.06 709.21,1549.06 C709.21,1549.06 710.36,1548.33 710.36,1548.33 C710.36,1548.33 713.07,1547.71 713.07,1547.71 C713.07,1547.71 714.11,1548.02 714.11,1548.02 C714.11,1548.02 714.48,1550.37 714.48,1550.37 C714.48,1550.37 714.17,1554.02 714.17,1554.02 C714.17,1554.02 714.17,1555.90 714.17,1555.90 C714.17,1555.90 714.58,1557.05 714.58,1557.05 C714.58,1557.05 716.10,1556.89 716.10,1556.89 C716.10,1556.89 718.34,1555.27 718.34,1555.27 C718.34,1555.27 719.07,1554.23 719.07,1554.23 C719.07,1554.23 719.80,1552.14 719.80,1552.14 C719.80,1552.14 720.48,1550.94 720.48,1550.94 C720.48,1550.94 722.36,1551.78 722.36,1551.78 C722.36,1551.78 723.61,1552.72 723.61,1552.72 C723.61,1552.72 724.71,1553.71 724.71,1553.71 C724.71,1553.71 725.64,1555.59 725.64,1555.59 C725.64,1555.59 728.15,1555.38 728.15,1555.38 C728.15,1555.38 728.57,1553.81 728.57,1553.81 C728.57,1553.81 728.57,1551.73 728.57,1551.73 C728.57,1551.73 728.36,1550.58 728.36,1550.58 C728.36,1550.58 728.36,1548.28 728.36,1548.28 C728.36,1548.28 730.76,1545.15 730.76,1545.15 C730.76,1545.15 731.28,1543.90 731.28,1543.90 C731.28,1543.90 731.80,1542.75 731.80,1542.75 C731.80,1542.75 732.22,1541.71 732.22,1541.71 C732.22,1541.71 732.53,1540.46 732.53,1540.46 C732.53,1540.46 731.96,1538.42 731.96,1538.42 C731.96,1538.42 730.60,1537.59 730.60,1537.59 C730.60,1537.59 729.66,1537.06 729.66,1537.06 C729.66,1537.06 728.72,1536.65 728.72,1536.65 C728.72,1536.65 727.26,1536.54 727.26,1536.54 C727.26,1536.54 725.59,1536.96 725.59,1536.96 C725.59,1536.96 724.34,1537.59 724.34,1537.59 C724.34,1537.59 723.19,1538.21 723.19,1538.21 C723.19,1538.21 721.42,1539.15 721.42,1539.15 C721.42,1539.15 720.48,1539.57 720.48,1539.57 C720.48,1539.57 719.02,1540.30 719.02,1540.30 C719.02,1540.30 717.87,1540.51 717.87,1540.51 C717.87,1540.51 716.20,1540.72 716.20,1540.72 C716.20,1540.72 714.90,1540.72 714.90,1540.72 C714.90,1540.72 713.59,1541.55 713.59,1541.55 C713.59,1541.55 712.03,1541.97 712.03,1541.97 C712.03,1541.97 710.98,1542.18 710.98,1542.18 C710.97,1542.24 710.95,1542.27 710.93,1542.28 Z" fill="none" stroke="rgb(0, 0, 0)" stroke-width="2.00" stroke-opacity="1.00" stroke-linejoin="round"/>
<path d="M696.22,1549.80 C698.49,1549.36 699.65,1547.03 699.66,1546.40 C699.66,1546.40 699.04,1545.36 699.04,1545.36 C699.04,1545.36 697.84,1544.26 697.84,1544.26 C697.84,1544.26 696.27,1543.95 696.27,1543.95 C696.27,1543.95 694.71,1543.64 694.71,1543.64 C694.71,1543.64 692.31,1543.38 692.31,1543.38 C692.31,1543.38 691.78,1544.37 691.78,1544.37 C691.78,1544.37 690.01,1542.49 690.01,1542.49 C690.01,1542.49 687.82,1542.60 687.82,1542.60 C687.82,1542.60 687.04,1543.38 687.04,1543.38 C687.04,1543.38 686.51,1544.42 686.51,1544.42 C686.51,1544.42 685.57,1545.88 685.57,1545.88 C685.57,1545.88 685.37,1547.55 685.37,1547.55 C685.37,1547.55 683.91,1547.19 683.91,1547.19 C683.91,1547.19 683.59,1549.12 683.59,1549.12 C683.59,1549.12 683.38,1550.16 683.38,1550.16 C683.38,1550.16 683.91,1552.98 683.91,1552.98 C683.91,1552.98 685.31,1553.86 685.31,1553.86 C685.31,1553.86 686.36,1554.07 686.36,1554.07 C686.36,1554.07 687.87,1553.40 687.87,1553.40 C687.87,1553.40 688.08,1552.14 688.08,1552.14 C688.08,1552.14 688.60,1551.20 688.60,1551.20 C688.60,1551.20 687.87,1549.43 687.87,1549.43 C687.87,1549.43 687.77,1547.97 687.77,1547.97 C687.77,1547.97 688.76,1546.98 688.76,1546.98 C688.76,1546.98 690.43,1546.35 690.43,1546.35 C690.43,1546.35 691.47,1546.25 691.47,1546.25 C691.47,1546.25 692.15,1547.13 692.15,1547.13 C692.15,1547.13 692.77,1548.18 692.77,1548.18 C692.77,1548.18 693.92,1549.53 693.92,1549.53 C693.92,1549.53 695.54,1550.00 695.54,1550.00 C695.91,1549.89 696.14,1549.82 696.22,1549.80 Z" fill="none" stroke="rgb(0, 0, 0)" stroke-width="2.00" stroke-opacity="1.00" stroke-linejoin="round"/>
<path d="M628.60,1553.50 C628.60,1553.50 629.28,1554.54 629.28,1554.54 C629.28,1554.54 630.63,1555.80 630.63,1555.80 C630.63,1555.80 632.62,1557.31 632.62,1557.31 C632.62,1557.31 634.08,1557.99 634.08,1557.99 C634.08,1557.99 634.76,1559.24 634.76,1559.24 C634.76,1559.24 635.59,1560.91 635.59,1560.91 C635.59,1560.91 636.11,1562.27 636.11,1562.27 C636.11,1562.27 636.22,1563.31 636.22,1563.31 C636.22,1563.31 636.79,1564.51 636.79,1564.51 C636.79,1564.51 638.15,1564.93 638.15,1564.93 C638.15,1564.93 639.61,1565.13 639.61,1565.13 C639.61,1565.13 641.07,1565.03 641.07,1565.03 C641.07,1565.03 644.72,1568.16 644.72,1568.16 C644.72,1568.16 645.09,1565.29 645.09,1565.29 C645.09,1565.29 644.41,1564.20 644.41,1564.20 C644.41,1564.20 643.63,1563.52 643.63,1563.52 C643.63,1563.52 643.26,1562.11 643.26,1562.11 C643.26,1562.11 645.97,1561.90 645.97,1561.90 C645.97,1561.90 646.91,1562.32 646.91,1562.32 C646.91,1562.32 648.69,1563.36 648.69,1563.36 C648.69,1563.36 651.40,1563.78 651.40,1563.78 C651.40,1563.78 653.44,1562.16 653.44,1562.16 C653.44,1562.16 655.05,1560.54 655.05,1560.54 C655.05,1560.54 655.99,1560.13 655.99,1560.13 C655.99,1560.13 660.17,1559.92 660.17,1559.92 C660.17,1559.92 662.67,1559.92 662.67,1559.92 C662.67,1559.92 663.45,1559.13 663.45,1559.13 C663.45,1559.13 663.04,1558.09 663.04,1558.09 C663.04,1558.09 662.72,1556.73 662.72,1556.73 C662.72,1556.73 659.23,1556.58 659.23,1556.58 C659.23,1556.58 658.29,1557.00 658.29,1557.00 C658.29,1557.00 655.16,1557.52 655.16,1557.52 C655.16,1557.52 653.17,1557.31 653.17,1557.31 C653.17,1557.31 650.46,1557.00 650.46,1557.00 C650.46,1557.00 648.69,1557.93 648.69,1557.93 C648.69,1557.93 647.64,1558.35 647.64,1558.35 C647.64,1558.35 646.70,1558.77 646.70,1558.77 C646.70,1558.77 645.56,1559.08 645.56,1559.08 C645.56,1559.08 644.30,1559.19 644.30,1559.19 C644.30,1559.19 641.17,1559.08 641.17,1559.08 C641.17,1559.08 638.36,1558.25 638.36,1558.25 C638.36,1558.25 635.64,1557.62 635.64,1557.62 C635.64,1557.62 634.97,1553.60 634.97,1553.60 C634.97,1553.60 634.34,1552.56 634.34,1552.56 C634.34,1552.56 633.61,1551.41 633.61,1551.41 C633.61,1551.41 632.83,1550.63 632.83,1550.63 C632.83,1550.63 629.80,1550.32 629.80,1550.32 C629.80,1550.32 628.86,1550.84 628.86,1550.84 C628.86,1550.84 628.60,1553.50 628.60,1553.50 Z" fill="none" stroke="rgb(0, 0, 0)" stroke-width="2.00" stroke-opacity="1.00" stroke-linejoin="round"/>
<path d="M570.12,1580.62 C570.08,1580.67 570.00,1580.76 569.91,1580.88 C569.91,1580.88 568.75,1582.66 568.75,1582.66 C568.75,1582.66 568.12,1586.84 568.12,1586.84 C568.12,1586.84 568.00,1589.66 568.00,1589.66 C568.60,1590.00 573.15,1588.29 573.28,1588.25 C573.33,1588.24 573.62,1588.12 573.66,1588.12 C573.66,1588.12 575.06,1587.44 575.06,1587.44 C575.06,1587.44 576.62,1586.62 576.62,1586.62 C576.62,1586.62 579.16,1585.81 579.16,1585.81 C579.16,1585.81 579.56,1584.53 579.56,1584.53 C579.56,1584.53 579.31,1583.28 579.31,1583.28 C579.31,1583.28 580.06,1581.84 580.06,1581.84 C580.06,1581.84 580.38,1580.22 580.38,1580.22 C580.38,1580.22 581.47,1578.91 581.47,1578.91 C581.47,1578.91 582.12,1577.22 582.12,1577.22 C582.12,1577.22 581.75,1575.38 581.75,1575.38 C581.75,1575.38 581.56,1574.34 581.56,1574.34 C581.56,1574.34 581.38,1573.34 581.38,1573.34 C580.72,1571.30 579.11,1573.34 579.12,1573.41 C579.12,1573.41 579.06,1574.66 579.06,1574.66 C579.06,1574.66 578.75,1576.09 578.75,1576.09 C578.75,1576.09 577.91,1577.28 577.91,1577.28 C577.91,1577.28 576.78,1578.56 576.78,1578.56 C576.78,1578.56 575.22,1578.88 575.22,1578.88 C575.22,1578.88 573.72,1579.69 573.72,1579.69 C573.72,1579.69 571.47,1580.00 571.47,1580.00 C571.47,1580.00 570.41,1580.38 570.41,1580.38 C570.27,1580.49 570.17,1580.58 570.12,1580.62 Z" fill="none" stroke="rgb(0, 0, 0)" stroke-width="2.00" stroke-opacity="1.00" stroke-linejoin="round"/>
<path d="M551.75,1564.25 C550.41,1564.49 546.98,1567.92 547.00,1568.59 C547.00,1568.65 547.00,1568.73 547.00,1568.84 C547.34,1569.28 549.72,1570.12 552.28,1570.06 C553.24,1570.05 555.04,1570.60 555.59,1570.62 C555.59,1570.62 558.00,1567.72 558.00,1567.72 C558.00,1567.72 559.28,1565.53 559.28,1565.53 C559.28,1565.53 560.28,1564.34 560.28,1564.34 C560.28,1564.34 561.09,1563.50 561.09,1563.50 C561.09,1563.50 562.06,1560.78 562.06,1560.78 C562.06,1560.78 561.94,1559.72 561.94,1559.72 C560.71,1559.50 556.38,1562.52 555.72,1562.69 C555.47,1562.69 554.83,1562.81 554.34,1562.81 C554.34,1562.81 553.28,1562.62 553.28,1562.62 C553.28,1562.62 551.94,1563.78 551.94,1563.78 C551.94,1563.78 551.81,1564.25 551.81,1564.25 C551.78,1564.25 551.76,1564.25 551.75,1564.25 Z" fill="none" stroke="rgb(0, 0, 0)" stroke-width="2.00" stroke-opacity="1.00" stroke-linejoin="round"/>
<path d="M495.27,1574.92 C495.27,1574.92 496.82,1575.67 496.82,1575.67 C496.82,1575.67 497.91,1575.72 497.91,1575.72 C497.91,1575.72 498.66,1574.25 498.66,1574.25 C498.66,1574.25 499.66,1573.50 499.66,1573.50 C499.66,1573.50 500.65,1573.92 500.65,1573.92 C500.65,1573.92 501.63,1574.17 501.63,1574.17 C501.63,1574.17 504.62,1574.43 504.62,1574.43 C504.62,1574.43 504.96,1571.62 504.96,1571.62 C504.96,1571.62 504.75,1570.02 504.75,1570.02 C504.75,1570.02 507.72,1569.32 507.72,1569.32 C507.72,1569.32 508.47,1568.10 508.47,1568.10 C508.47,1568.10 507.95,1566.97 507.95,1566.97 C507.95,1566.97 507.26,1565.83 507.26,1565.83 C507.26,1565.83 505.60,1565.75 505.60,1565.75 C505.60,1565.75 507.26,1565.03 507.26,1565.03 C507.26,1565.03 508.99,1564.08 508.99,1564.08 C508.99,1564.08 509.09,1562.94 509.09,1562.94 C509.09,1562.94 508.21,1560.64 508.21,1560.64 C508.21,1560.64 507.41,1559.32 507.41,1559.32 C507.41,1559.32 506.61,1558.03 506.61,1558.03 C506.61,1558.03 505.76,1556.64 505.76,1556.64 C505.76,1556.64 503.74,1556.30 503.74,1556.30 C503.74,1556.30 502.14,1556.56 502.14,1556.56 C502.14,1556.56 501.19,1557.41 501.19,1557.41 C501.19,1557.41 501.24,1559.53 501.24,1559.53 C501.24,1559.53 502.53,1561.67 502.53,1561.67 C502.53,1561.67 501.47,1561.16 501.47,1561.16 C501.47,1561.16 500.18,1560.38 500.18,1560.38 C500.18,1560.38 499.30,1559.87 499.30,1559.87 C499.30,1559.87 498.17,1559.61 498.17,1559.61 C498.17,1559.61 496.10,1559.56 496.10,1559.56 C496.10,1559.56 495.61,1561.75 495.61,1561.75 C495.61,1561.75 496.13,1562.86 496.13,1562.86 C496.13,1562.86 494.32,1564.95 494.32,1564.95 C494.32,1564.95 494.16,1566.55 494.16,1566.55 C494.16,1566.55 494.86,1567.41 494.86,1567.41 C494.86,1567.41 496.62,1567.82 496.62,1567.82 C496.62,1567.82 497.65,1568.13 497.65,1568.13 C497.65,1568.13 499.38,1570.07 499.38,1570.07 C499.38,1570.07 498.84,1571.07 498.84,1571.07 C498.84,1571.07 497.55,1571.49 497.55,1571.49 C497.55,1571.49 496.41,1571.59 496.41,1571.59 C496.41,1571.59 495.79,1571.75 495.79,1571.75 C495.57,1571.82 494.41,1573.13 495.27,1574.92 Z" fill="none" stroke="rgb(0, 0, 0)" stroke-width="2.00" stroke-opacity="1.00" stroke-linejoin="round"/>
<path d="M1349.88,452.19 C1350.21,452.13 1351.41,453.04 1351.81,452.78 C1351.88,452.74 1355.98,451.03 1356.17,450.79 C1356.17,450.79 1357.72,449.70 1357.72,449.70 C1357.72,449.70 1360.83,447.53 1360.83,447.53 C1360.83,447.53 1363.78,447.06 1363.78,447.06 C1363.78,447.06 1365.33,447.22 1365.33,447.22 C1365.33,447.22 1365.72,448.54 1365.72,448.54 C1365.72,448.54 1365.87,451.18 1365.87,451.18 C1365.87,451.18 1365.41,452.11 1365.41,452.11 C1365.41,452.11 1364.94,453.04 1364.94,453.04 C1364.94,453.04 1364.16,454.75 1364.16,454.75 C1364.16,454.75 1363.47,455.60 1363.47,455.60 C1363.47,455.60 1361.99,456.92 1361.99,456.92 C1361.99,456.92 1361.53,457.85 1361.53,457.85 C1361.53,457.85 1360.59,459.09 1360.59,459.09 C1360.59,459.09 1361.45,459.79 1361.45,459.79 C1361.45,459.79 1362.15,460.65 1362.15,460.65 C1362.15,460.65 1362.92,464.68 1362.92,464.68 C1362.92,464.68 1362.61,466.39 1362.61,466.39 C1362.61,466.39 1362.15,467.48 1362.15,467.48 C1362.15,467.48 1361.68,468.56 1361.68,468.56 C1361.68,468.56 1361.22,469.49 1361.22,469.49 C1361.22,469.49 1357.26,474.38 1357.26,474.38 C1357.26,474.38 1356.40,475.24 1356.40,475.24 C1356.40,475.24 1355.08,475.94 1355.08,475.94 C1355.08,475.94 1351.67,476.25 1351.67,476.25 C1351.67,476.25 1352.99,476.79 1352.99,476.79 C1352.99,476.79 1353.14,478.34 1353.14,478.34 C1353.14,478.34 1353.14,479.43 1353.14,479.43 C1353.14,479.43 1351.75,481.14 1351.75,481.14 C1351.75,481.14 1350.58,481.21 1350.58,481.21 C1350.58,481.21 1349.65,480.75 1349.65,480.75 C1349.65,480.75 1346.31,477.26 1346.31,477.26 C1346.31,477.26 1344.14,475.08 1344.14,475.08 C1344.14,475.08 1343.36,474.00 1343.36,474.00 C1343.36,474.00 1342.43,472.75 1342.43,472.75 C1342.43,472.75 1343.60,472.68 1343.60,472.68 C1343.60,472.68 1344.53,473.30 1344.53,473.30 C1344.53,473.30 1345.61,473.76 1345.61,473.76 C1345.61,473.76 1347.40,474.07 1347.40,474.07 C1347.40,474.07 1347.71,472.75 1347.71,472.75 C1347.71,472.75 1347.40,471.67 1347.40,471.67 C1347.40,471.67 1346.93,470.12 1346.93,470.12 C1346.93,470.12 1346.78,469.03 1346.78,469.03 C1346.78,469.03 1346.47,465.85 1346.47,465.85 C1346.47,465.85 1346.31,464.22 1346.31,464.22 C1346.31,464.22 1344.45,462.35 1344.45,462.35 C1344.45,462.35 1343.52,460.96 1343.52,460.96 C1343.52,460.96 1343.36,459.09 1343.36,459.09 C1343.36,459.09 1344.06,458.08 1344.06,458.08 C1344.06,458.08 1346.08,457.77 1346.08,457.77 C1346.08,457.77 1346.47,453.66 1346.47,453.66 C1346.47,453.66 1347.32,452.96 1347.32,452.96 C1347.32,452.96 1348.41,452.50 1348.41,452.50 C1348.90,452.39 1349.39,452.29 1349.88,452.19 Z" fill="none" stroke="rgb(0, 0, 0)" stroke-width="2.00" stroke-opacity="1.00" stroke-linejoin="round"/>
</g>
</svg>
