<?xml version="1.0" encoding="UTF-8" standalone="no"?>
<!DOCTYPE svg PUBLIC "-//W3C//DTD SVG 1.1//EN" "http://www.w3.org/Graphics/SVG/1.1/DTD/svg11.dtd">
<svg width="480.00" height="480.00" viewBox="0.00 0.00 2000.00 2000.00" xmlns="http://www.w3.org/2000/svg" xmlns:xlink="http://www.w3.org/1999/xlink" fill="rgba(255, 255, 255, 0)"  stroke="rgb(0, 0, 0)" stroke-width="3.00" stroke-opacity="1.00" stroke-linejoin="round" id="svgId">
<g stroke-linecap="round" id="okinawa">
<path d="M26.76,1925.71 C26.53,1925.49 25.34,1924.72 24.60,1924.35 C23.54,1923.82 22.43,1923.60 21.58,1924.32 C20.98,1924.87 21.15,1928.79 21.93,1932.20 C22.70,1935.06 25.83,1936.50 25.99,1936.61 C25.99,1936.61 24.07,1937.42 24.07,1937.42 C24.01,1938.56 24.49,1939.37 25.59,1940.74 C26.79,1942.22 28.43,1943.79 28.86,1944.74 C29.19,1945.53 29.16,1947.71 29.04,1948.14 C28.97,1948.36 27.80,1950.15 27.73,1950.28 C26.05,1950.76 21.95,1953.24 20.27,1953.22 C19.97,1953.22 18.48,1954.02 17.48,1954.48 C16.18,1955.15 16.14,1959.55 16.23,1959.72 C15.91,1959.66 13.89,1960.17 13.44,1960.28 C12.92,1960.42 7.98,1964.64 8.22,1965.60 C8.74,1967.73 12.22,1971.52 12.24,1971.58 C12.29,1971.82 10.61,1973.98 10.82,1975.50 C10.97,1976.41 12.54,1978.08 13.11,1978.04 C14.26,1977.93 14.89,1978.94 14.67,1979.66 C13.77,1982.43 13.79,1982.50 15.19,1983.72 C17.22,1985.43 20.91,1983.57 24.18,1982.40 C24.94,1982.16 26.93,1980.63 28.86,1978.75 C29.84,1977.76 30.96,1977.15 32.22,1977.05 C33.11,1976.98 38.14,1977.34 40.63,1975.86 C41.61,1975.24 42.63,1973.45 43.04,1972.42 C43.32,1971.64 41.64,1971.78 41.60,1971.78 C41.65,1971.66 43.38,1970.50 43.66,1969.83 C43.98,1969.05 43.83,1967.42 42.33,1966.56 C39.41,1964.95 34.60,1966.55 33.12,1967.49 C33.12,1967.49 32.68,1962.40 32.68,1962.40 C34.22,1962.38 35.64,1961.95 36.84,1960.72 C38.12,1959.38 39.15,1957.12 39.29,1956.26 C39.38,1955.64 38.64,1952.61 39.42,1950.85 C40.37,1948.92 42.52,1950.39 42.81,1950.78 C43.05,1950.78 45.17,1949.80 45.06,1946.02 C45.06,1946.02 47.59,1944.73 47.59,1944.73 C48.77,1946.02 50.62,1948.63 50.94,1948.91 C52.04,1949.82 54.09,1947.55 55.10,1947.09 C55.34,1947.01 55.57,1946.98 55.58,1947.01 C55.58,1947.01 55.66,1948.90 55.66,1948.90 C54.22,1950.10 52.91,1956.55 53.69,1958.13 C54.15,1959.04 55.02,1959.72 55.58,1959.74 C56.76,1959.73 61.53,1955.70 62.05,1953.37 C62.22,1952.47 62.14,1951.15 62.07,1950.94 C62.13,1950.96 65.47,1950.72 66.18,1949.92 C68.28,1947.53 69.09,1945.32 69.18,1944.53 C69.31,1943.22 69.36,1941.56 69.30,1940.69 C69.30,1940.69 66.35,1939.25 66.35,1939.25 C66.35,1939.05 68.12,1935.39 68.24,1934.78 C68.60,1932.80 68.59,1931.49 68.18,1930.65 C67.75,1929.76 67.33,1929.62 66.89,1929.78 C66.71,1929.85 64.57,1930.76 63.94,1931.29 C63.71,1931.51 63.19,1933.49 62.82,1933.95 C62.65,1934.14 57.87,1937.25 56.39,1936.97 C55.37,1936.77 54.87,1936.84 54.25,1937.50 C53.17,1938.65 51.94,1939.52 51.50,1939.91 C50.67,1940.64 49.59,1940.46 48.94,1939.59 C48.63,1939.14 48.71,1936.74 48.82,1936.53 C48.92,1936.37 50.55,1934.53 50.59,1934.24 C49.98,1934.20 48.73,1932.91 48.42,1932.65 C47.64,1932.00 45.02,1931.31 44.74,1931.12 C43.72,1930.40 41.95,1926.36 42.23,1925.79 C42.63,1925.06 45.94,1922.64 46.91,1922.49 C48.44,1922.34 52.69,1924.99 54.60,1926.18 C55.71,1926.86 58.16,1927.03 58.80,1926.59 C59.60,1926.03 59.88,1924.98 59.32,1924.14 C58.37,1922.79 58.06,1921.53 58.03,1921.53 C58.31,1921.53 60.10,1922.83 61.80,1923.26 C63.21,1923.60 64.72,1922.93 65.25,1922.03 C65.64,1921.30 66.03,1917.91 66.27,1917.16 C67.91,1917.19 70.06,1915.65 70.43,1915.37 C70.64,1915.20 70.61,1913.02 70.68,1912.96 C70.85,1912.81 73.09,1913.21 73.61,1912.82 C74.86,1911.80 75.23,1908.54 74.61,1907.33 C75.83,1907.08 76.84,1907.35 77.96,1907.92 C78.94,1908.61 80.73,1909.68 82.18,1909.39 C83.41,1909.12 85.10,1907.70 86.29,1906.11 C86.97,1905.16 86.43,1901.03 85.40,1900.26 C85.40,1900.26 85.40,1900.25 85.40,1900.25 C85.96,1900.52 87.20,1900.59 87.71,1900.10 C89.30,1898.50 89.67,1895.39 88.85,1894.79 C88.85,1894.79 92.14,1893.06 92.14,1893.06 C92.18,1893.07 93.11,1894.53 93.43,1894.59 C93.73,1894.65 97.45,1893.54 99.38,1892.09 C102.08,1890.27 104.59,1887.35 104.97,1886.71 C106.00,1884.94 108.63,1879.71 108.65,1879.68 C109.43,1878.61 113.08,1875.38 113.91,1874.19 C114.13,1873.87 116.11,1871.73 116.16,1871.36 C116.17,1871.22 116.19,1869.06 115.53,1868.43 C115.34,1868.25 114.20,1867.36 113.18,1865.79 C113.07,1865.60 111.75,1858.76 111.00,1857.99 C110.48,1857.46 107.36,1856.22 106.36,1855.47 C105.75,1855.01 104.25,1852.96 101.83,1852.04 C101.63,1851.96 101.48,1851.92 101.37,1851.90 C101.29,1852.36 99.13,1857.50 99.08,1857.93 C98.82,1860.69 96.78,1867.46 95.99,1868.03 C94.95,1868.65 92.54,1870.19 92.08,1870.52 C91.38,1871.02 88.70,1869.92 86.92,1870.78 C86.46,1871.06 86.75,1875.22 87.98,1876.04 C88.35,1876.26 88.84,1876.55 88.85,1876.64 C88.91,1877.62 84.35,1879.00 84.30,1878.99 C83.09,1878.50 81.60,1880.17 80.78,1882.91 C80.34,1884.39 78.43,1889.10 77.56,1889.42 C76.93,1889.63 75.22,1890.71 74.07,1890.93 C71.53,1891.39 70.70,1891.35 70.59,1891.30 C70.40,1891.06 70.69,1889.82 70.95,1888.09 C71.01,1887.68 72.46,1885.57 72.69,1884.56 C72.91,1883.59 73.07,1880.59 72.80,1880.13 C71.46,1878.24 67.90,1878.49 67.85,1878.57 C67.85,1878.57 66.50,1883.53 66.50,1883.53 C65.89,1883.53 64.15,1882.15 63.27,1881.86 C59.56,1880.69 56.52,1880.29 53.12,1879.44 C52.37,1879.26 45.93,1881.84 45.49,1882.73 C45.49,1882.73 49.84,1887.00 49.84,1887.00 C49.76,1886.99 47.69,1887.99 44.58,1889.06 C43.54,1889.42 42.80,1890.32 42.50,1891.77 C42.45,1892.04 42.54,1893.05 42.91,1893.31 C44.09,1894.11 48.12,1892.84 48.22,1893.80 C48.26,1894.46 48.00,1896.73 47.97,1897.61 C47.92,1898.79 49.61,1900.06 50.03,1900.09 C50.03,1900.09 53.58,1897.51 53.58,1897.51 C53.79,1898.03 55.15,1899.37 56.33,1898.83 C58.33,1897.90 59.11,1897.91 59.22,1897.94 C60.72,1898.37 61.92,1900.06 62.75,1901.06 C63.73,1903.02 59.63,1905.00 55.74,1907.11 C55.33,1907.34 54.68,1908.69 54.25,1909.93 C53.80,1911.20 49.21,1913.20 49.11,1913.21 C48.00,1913.27 45.73,1910.92 45.45,1910.89 C45.45,1910.89 45.41,1912.93 45.41,1912.93 C45.22,1912.95 43.77,1912.73 43.27,1913.05 C42.98,1913.23 41.98,1913.86 41.67,1914.05 C41.67,1914.05 41.64,1916.52 41.64,1916.52 C41.64,1916.52 35.99,1923.22 35.99,1923.22 C35.99,1923.22 33.93,1923.16 33.93,1923.16 C33.93,1923.16 33.70,1924.49 33.70,1924.49 C32.75,1924.59 32.18,1923.99 31.50,1924.25 C30.25,1924.92 27.94,1926.04 27.48,1926.64 C27.48,1926.64 26.76,1925.71 26.76,1925.71 Z"/>
</g>
</svg>
