<?xml version="1.0" encoding="UTF-8" standalone="no"?>
<!DOCTYPE svg PUBLIC "-//W3C//DTD SVG 1.1//EN" "http://www.w3.org/Graphics/SVG/1.1/DTD/svg11.dtd">
<svg width="480.00" height="480.00" viewBox="0.00 0.00 2000.00 2000.00" xmlns="http://www.w3.org/2000/svg" xmlns:xlink="http://www.w3.org/1999/xlink" fill="rgba(255, 255, 255, 0)"  stroke="rgb(0, 0, 0)" stroke-width="3.00" stroke-opacity="1.00" stroke-linejoin="round" id="svgId">
<g stroke-linecap="round" id="shikoku">
<path d="M700.07,1717.65 C700.18,1717.60 701.06,1715.36 701.36,1714.74 C702.05,1713.26 702.17,1710.60 702.20,1710.57 C705.68,1706.73 706.45,1701.57 710.51,1691.70 C711.47,1689.11 713.74,1685.80 716.45,1683.23 C717.85,1681.91 720.35,1681.68 720.46,1680.52 C718.52,1680.09 717.69,1679.51 717.46,1678.85 C717.12,1677.82 719.19,1678.14 719.68,1677.98 C722.17,1677.17 724.12,1677.26 724.85,1676.71 C724.85,1676.71 724.96,1674.11 724.96,1674.11 C725.25,1673.88 727.74,1672.70 727.85,1671.91 C728.10,1669.24 728.59,1668.22 729.13,1667.74 C729.19,1667.68 731.00,1667.67 732.81,1666.88 C732.97,1666.81 734.83,1666.60 735.62,1665.53 C735.93,1665.10 736.05,1664.64 736.01,1664.31 C736.50,1664.26 739.04,1663.22 739.51,1662.91 C744.34,1659.75 750.89,1655.68 751.36,1655.43 C751.47,1655.37 754.56,1651.96 754.54,1651.81 C754.39,1651.90 761.29,1651.15 763.51,1649.50 C764.78,1648.38 770.94,1644.36 771.13,1644.24 C771.34,1644.11 773.11,1643.96 773.16,1643.89 C772.84,1643.56 772.13,1642.74 770.90,1642.32 C769.96,1642.01 768.14,1641.09 765.75,1641.17 C763.85,1641.24 763.65,1641.14 763.19,1640.84 C763.13,1640.56 763.48,1638.84 764.20,1637.41 C764.23,1637.34 766.58,1635.49 766.90,1634.52 C767.21,1633.64 768.75,1632.51 768.86,1632.35 C769.50,1631.31 766.98,1628.00 766.76,1627.70 C764.60,1624.72 760.29,1617.69 759.83,1617.50 C758.63,1617.04 756.16,1617.96 756.07,1618.04 C756.07,1618.04 753.02,1615.23 753.02,1615.23 C752.99,1615.22 754.79,1614.40 755.09,1614.24 C755.42,1614.06 757.51,1608.95 757.51,1607.35 C757.44,1603.48 758.50,1600.92 758.89,1600.35 C759.12,1600.00 760.53,1597.68 761.20,1597.14 C761.26,1595.33 759.85,1594.16 758.22,1593.59 C758.18,1593.68 758.22,1591.98 758.54,1591.67 C759.58,1590.72 761.26,1589.47 761.40,1589.25 C763.13,1586.48 760.68,1584.57 760.60,1584.59 C760.12,1584.60 757.63,1585.92 755.00,1586.20 C752.51,1586.46 744.09,1587.05 743.19,1587.67 C742.87,1587.89 736.59,1591.07 735.94,1591.05 C735.65,1590.70 730.69,1585.02 729.21,1583.66 C726.25,1581.43 716.32,1575.24 716.15,1574.90 C715.66,1573.88 715.48,1572.54 715.51,1572.35 C719.17,1571.17 718.77,1568.38 718.53,1568.19 C718.43,1568.20 711.81,1567.07 710.75,1567.20 C708.27,1567.52 705.21,1568.42 704.78,1568.25 C704.73,1567.98 704.83,1567.56 705.67,1566.23 C706.04,1565.65 706.96,1560.73 706.43,1559.32 C706.40,1559.25 706.35,1559.16 706.27,1559.05 C706.27,1559.05 700.29,1559.13 700.29,1559.13 C700.29,1559.13 697.00,1564.71 697.00,1564.71 C696.68,1564.72 694.78,1562.84 694.51,1562.75 C693.39,1562.41 688.50,1563.80 686.87,1562.83 C686.71,1562.73 679.93,1559.54 679.02,1559.30 C678.88,1559.27 678.70,1559.24 678.49,1559.23 C678.49,1559.23 671.63,1563.51 671.63,1563.51 C671.63,1563.51 671.59,1565.23 671.59,1565.23 C671.59,1565.23 668.15,1567.29 668.15,1567.29 C668.15,1567.29 667.19,1565.24 667.19,1565.24 C667.19,1565.24 670.37,1562.34 670.37,1562.34 C668.28,1562.18 667.46,1562.23 665.38,1563.37 C662.69,1564.85 660.16,1566.94 660.24,1566.90 C660.24,1566.90 660.83,1568.62 660.83,1568.62 C660.79,1568.89 655.98,1570.49 654.79,1571.54 C654.59,1571.72 652.74,1573.92 652.37,1575.37 C652.18,1576.26 652.82,1577.54 652.96,1578.26 C652.87,1578.26 650.39,1578.54 649.81,1578.34 C648.87,1577.99 646.82,1577.69 644.84,1576.44 C643.69,1575.71 639.90,1574.44 639.49,1574.26 C639.26,1574.15 637.20,1572.09 636.40,1571.23 C637.17,1574.40 641.76,1579.48 642.35,1580.21 C642.35,1580.21 642.40,1585.16 642.40,1585.16 C642.40,1585.16 643.52,1585.59 643.52,1585.59 C643.52,1585.59 644.36,1584.91 644.36,1584.91 C645.08,1586.29 645.03,1586.85 644.77,1587.21 C643.51,1588.93 643.19,1589.11 642.99,1589.17 C643.01,1589.21 641.47,1591.56 641.21,1592.32 C639.47,1597.29 639.02,1599.89 638.80,1600.28 C638.38,1600.96 634.07,1606.21 629.06,1610.68 C628.80,1610.92 626.91,1612.33 626.47,1612.89 C626.00,1613.21 622.80,1612.27 621.62,1612.07 C621.32,1612.02 620.34,1610.90 620.02,1610.67 C620.02,1610.67 611.95,1606.78 611.95,1606.78 C611.82,1606.54 607.10,1606.27 606.30,1606.55 C604.89,1607.03 604.56,1607.14 604.56,1607.10 C604.56,1607.10 596.23,1609.08 596.23,1609.08 C595.84,1609.07 594.17,1611.08 593.76,1611.29 C591.63,1612.36 586.01,1613.29 581.82,1613.42 C581.82,1613.42 574.61,1610.12 574.61,1610.12 C574.98,1609.65 569.19,1596.31 568.85,1595.83 C568.06,1594.77 564.03,1589.95 563.79,1589.46 C562.86,1587.50 561.59,1582.83 561.28,1582.65 C561.20,1582.60 560.45,1582.68 559.65,1582.75 C559.34,1583.01 558.59,1584.92 558.46,1585.01 C557.74,1585.53 556.55,1585.37 555.38,1585.50 C554.59,1585.60 554.17,1586.01 554.19,1586.60 C554.19,1586.62 556.33,1587.50 556.56,1587.80 C556.58,1590.67 555.69,1591.99 555.08,1592.30 C554.92,1592.38 548.50,1593.62 548.51,1593.62 C548.54,1593.61 548.60,1593.61 548.70,1593.61 C548.70,1593.61 548.32,1594.22 548.32,1594.22 C548.32,1594.22 548.35,1597.07 544.04,1598.71 C542.18,1599.35 538.39,1600.85 538.23,1601.02 C537.16,1602.27 538.29,1606.57 537.50,1609.03 C537.31,1609.61 536.90,1611.31 536.03,1611.88 C534.35,1612.97 533.15,1612.85 531.71,1613.94 C531.71,1613.94 531.23,1616.09 531.23,1616.09 C531.23,1616.09 528.21,1617.54 528.21,1617.54 C528.18,1619.55 528.11,1623.31 527.80,1624.89 C527.75,1625.14 526.95,1631.33 526.95,1631.44 C526.88,1634.33 526.24,1636.21 525.56,1637.26 C524.89,1638.24 522.17,1641.30 521.83,1641.64 C519.61,1643.27 512.54,1648.36 512.22,1648.47 C511.99,1648.54 501.70,1651.15 501.47,1651.31 C501.17,1651.53 496.30,1657.85 495.75,1658.25 C494.01,1659.48 491.62,1659.98 491.43,1660.02 C490.46,1660.25 487.01,1663.25 486.78,1663.33 C481.87,1664.89 475.40,1665.12 467.18,1668.73 C465.59,1669.43 460.84,1671.13 457.13,1671.99 C454.76,1672.55 452.44,1673.83 451.69,1673.93 C450.97,1674.04 447.96,1676.27 446.84,1676.93 C445.98,1677.44 443.49,1681.54 443.32,1681.71 C443.32,1681.71 443.41,1683.81 443.41,1683.81 C445.42,1683.75 447.65,1682.28 451.00,1680.17 C452.21,1679.42 454.72,1679.42 454.71,1679.42 C454.71,1679.42 454.71,1681.57 454.71,1681.57 C455.59,1681.92 457.59,1681.97 458.60,1681.67 C459.92,1681.26 464.25,1675.94 464.45,1675.84 C464.72,1675.75 466.09,1674.66 467.59,1673.63 C468.23,1673.18 476.22,1672.33 477.84,1671.85 C478.28,1671.71 480.74,1669.88 481.06,1669.88 C481.06,1669.88 481.20,1671.70 481.20,1671.70 C482.09,1671.64 485.13,1669.13 485.25,1669.08 C485.71,1668.90 488.14,1669.18 489.00,1670.14 C490.32,1671.73 490.92,1673.37 491.77,1675.49 C490.82,1674.71 488.91,1674.43 488.43,1675.05 C486.42,1677.98 489.41,1682.16 489.50,1682.28 C489.50,1682.28 490.94,1683.01 490.94,1683.01 C490.97,1684.02 490.32,1685.24 489.80,1685.25 C488.02,1685.25 487.67,1685.33 487.17,1685.78 C485.92,1686.94 484.96,1688.70 484.81,1689.32 C484.61,1690.37 489.44,1693.67 491.10,1694.08 C491.29,1694.12 498.00,1691.18 498.49,1691.48 C500.71,1692.85 501.48,1693.77 501.60,1694.13 C500.00,1694.92 495.78,1695.63 496.57,1697.83 C496.73,1698.20 497.81,1699.62 499.00,1700.12 C499.64,1700.39 502.76,1700.88 502.79,1700.96 C503.17,1701.91 503.61,1702.49 503.76,1702.74 C502.55,1702.81 499.13,1709.83 499.41,1712.12 C498.51,1711.06 496.74,1710.25 496.55,1709.93 C496.36,1709.61 496.03,1708.74 496.05,1708.70 C496.05,1708.70 493.78,1707.57 493.78,1707.57 C493.35,1707.98 492.39,1710.93 492.45,1711.88 C492.48,1712.21 493.08,1714.14 492.80,1714.69 C492.50,1715.26 491.86,1716.54 491.86,1716.54 C492.09,1716.46 493.44,1714.77 493.94,1714.95 C496.44,1715.92 497.31,1720.55 497.40,1721.39 C497.40,1721.39 494.93,1723.33 494.93,1723.33 C494.52,1723.15 493.33,1724.05 494.12,1726.99 C494.14,1727.04 495.24,1728.37 495.20,1728.35 C495.00,1728.29 493.47,1726.14 492.36,1725.13 C491.89,1724.72 491.19,1724.54 490.81,1724.74 C489.56,1725.42 487.40,1726.37 486.53,1727.36 C486.37,1727.55 485.64,1730.63 485.66,1730.66 C486.46,1731.22 489.47,1730.74 489.78,1730.85 C490.40,1731.09 491.95,1733.09 491.97,1733.14 C492.03,1733.25 491.69,1736.74 491.95,1738.82 C491.95,1738.82 493.42,1738.36 493.42,1738.36 C494.56,1739.92 494.55,1742.43 494.28,1745.61 C494.10,1748.70 494.26,1749.80 495.34,1750.89 C495.84,1751.32 497.61,1750.74 498.70,1749.30 C499.77,1747.86 500.37,1746.58 500.67,1746.19 C501.29,1745.42 503.05,1745.77 503.66,1746.47 C503.82,1746.67 504.28,1750.30 504.40,1750.45 C505.06,1750.54 507.05,1749.02 508.22,1749.78 C509.76,1750.78 514.65,1749.34 516.29,1751.22 C518.81,1754.20 519.85,1755.72 519.81,1756.02 C519.81,1756.02 516.70,1755.97 516.70,1755.97 C516.70,1755.97 515.94,1756.74 515.94,1756.74 C515.94,1756.74 515.22,1757.68 515.22,1757.68 C515.22,1757.68 514.94,1758.75 514.94,1758.75 C514.94,1758.75 514.75,1760.55 514.75,1760.55 C514.75,1760.55 514.65,1760.75 514.65,1760.75 C515.07,1760.97 513.22,1765.30 511.38,1766.99 C509.23,1768.96 508.86,1769.99 508.59,1771.41 C508.45,1772.18 509.11,1773.00 509.80,1773.08 C510.08,1773.10 513.47,1771.43 515.43,1770.52 C516.80,1769.82 521.25,1769.55 521.69,1769.82 C523.14,1770.81 524.94,1774.25 524.94,1774.26 C525.62,1775.00 527.48,1775.88 529.06,1775.74 C529.39,1775.70 532.91,1775.12 533.45,1774.71 C533.68,1774.53 536.11,1772.67 537.91,1772.02 C539.20,1771.65 539.85,1772.19 540.22,1772.68 C540.42,1772.94 540.96,1774.96 541.44,1775.18 C542.75,1775.76 543.67,1775.61 544.11,1774.93 C544.38,1774.51 545.01,1773.43 545.19,1773.36 C546.35,1772.48 547.67,1777.74 549.99,1780.99 C551.48,1783.04 556.03,1782.77 556.31,1782.62 C557.77,1780.71 558.26,1777.83 557.36,1775.77 C556.40,1773.64 553.92,1770.27 553.49,1769.25 C552.93,1767.87 553.36,1766.00 553.42,1765.54 C553.66,1763.88 554.55,1762.56 554.75,1762.07 C555.07,1761.32 557.26,1761.56 557.70,1761.56 C558.56,1760.94 559.41,1756.14 559.85,1752.23 C559.99,1750.96 559.46,1744.71 561.13,1740.73 C562.24,1738.26 566.03,1738.24 566.88,1738.77 C567.14,1738.94 569.70,1741.66 570.67,1742.66 C570.72,1742.65 578.60,1729.14 580.30,1725.24 C581.04,1723.54 581.91,1723.37 582.29,1723.45 C582.49,1723.60 582.84,1724.61 583.37,1725.16 C584.37,1726.16 586.12,1721.85 586.11,1721.62 C586.11,1720.80 587.04,1719.10 588.29,1718.51 C589.29,1718.03 589.66,1716.75 590.51,1715.54 C591.83,1713.75 594.57,1706.79 594.58,1706.42 C594.58,1706.42 590.39,1703.96 590.39,1703.96 C589.27,1701.09 593.03,1696.22 593.14,1696.15 C594.01,1695.96 595.00,1695.58 595.84,1695.53 C596.48,1695.50 597.10,1696.70 597.21,1697.15 C598.27,1697.18 599.57,1696.54 599.68,1696.16 C599.84,1695.23 600.36,1693.03 600.50,1693.00 C601.07,1692.80 607.62,1693.14 608.99,1693.04 C610.76,1692.89 613.30,1691.93 614.30,1691.48 C614.53,1689.46 614.79,1688.85 614.80,1688.49 C614.78,1687.52 612.74,1686.32 612.83,1686.32 C612.96,1686.22 616.44,1685.95 618.19,1685.47 C619.23,1685.17 626.25,1681.23 626.86,1680.93 C631.57,1678.60 637.78,1677.38 638.00,1677.38 C639.04,1677.38 642.47,1677.03 644.45,1677.62 C645.30,1677.86 647.80,1678.29 648.25,1678.83 C648.53,1679.18 648.96,1679.85 649.11,1680.17 C649.74,1680.33 655.17,1679.88 660.30,1680.27 C660.73,1680.32 663.36,1681.41 663.80,1681.61 C664.35,1681.90 666.77,1683.62 667.74,1684.26 C667.91,1684.37 668.60,1685.81 669.54,1686.51 C669.89,1686.77 671.68,1691.14 671.94,1691.43 C672.22,1691.76 677.51,1693.75 678.58,1694.81 C680.75,1697.01 681.46,1698.10 681.83,1700.33 C681.84,1700.40 682.26,1702.21 682.54,1702.57 C685.82,1703.77 686.71,1706.39 690.02,1710.58 C690.10,1710.69 690.33,1710.95 690.70,1711.38 C690.70,1711.38 691.57,1714.16 691.57,1714.16 C691.57,1714.16 691.64,1715.17 691.64,1715.17 C691.64,1715.17 694.43,1714.50 694.43,1714.50 C694.43,1714.50 698.28,1719.92 698.28,1719.92 C698.28,1719.92 699.03,1720.18 699.03,1720.18 C699.03,1720.18 700.07,1717.65 700.07,1717.65 Z"/>
</g>
</svg>
