<?xml version="1.0" encoding="UTF-8" standalone="no"?>
<!DOCTYPE svg PUBLIC "-//W3C//DTD SVG 1.1//EN" "http://www.w3.org/Graphics/SVG/1.1/DTD/svg11.dtd">
<svg width="480.00" height="480.00" viewBox="0.00 0.00 2000.00 2000.00" xmlns="http://www.w3.org/2000/svg" xmlns:xlink="http://www.w3.org/1999/xlink">
<g stroke-linecap="round" id="hokkaido">
<path d="M1565.56,20.37 C1565.60,20.25 1566.29,18.69 1566.15,18.11 C1566.14,18.04 1565.14,16.40 1564.94,15.75 C1564.71,14.90 1564.85,14.23 1565.25,12.90 C1565.25,12.90 1566.28,12.44 1566.28,12.44 C1569.04,13.34 1570.28,14.39 1570.57,15.16 C1570.99,16.33 1572.46,17.70 1573.40,17.65 C1573.89,17.61 1576.81,17.61 1578.20,17.23 C1579.70,16.81 1581.02,15.64 1582.76,14.60 C1584.10,13.78 1585.86,11.15 1585.99,10.90 C1586.28,10.34 1587.65,6.50 1587.82,6.26 C1590.29,2.89 1592.80,2.79 1594.16,2.80 C1595.83,2.80 1598.13,5.43 1598.21,5.62 C1599.55,8.62 1601.69,10.64 1603.33,11.03 C1604.33,11.36 1604.01,12.47 1603.94,13.30 C1603.81,14.95 1604.48,16.81 1605.54,17.61 C1609.92,20.29 1617.48,25.33 1618.17,25.90 C1618.17,25.90 1619.54,26.93 1619.54,26.93 C1619.54,26.93 1620.54,28.32 1620.54,28.32 C1620.54,28.32 1621.15,29.39 1621.15,29.39 C1621.24,29.63 1632.02,42.73 1632.89,44.07 C1634.76,46.67 1639.09,51.14 1640.26,52.42 C1642.64,55.05 1650.08,62.11 1650.12,62.16 C1651.60,63.90 1653.50,65.14 1653.81,65.34 C1654.57,65.84 1657.09,67.93 1657.60,69.25 C1658.43,71.39 1659.02,74.42 1659.28,74.54 C1660.32,74.82 1662.26,75.69 1663.37,76.67 C1664.63,77.81 1665.74,81.54 1666.12,83.66 C1666.12,83.66 1668.82,87.66 1668.82,87.66 C1668.81,87.77 1672.71,97.45 1679.22,104.49 C1679.83,105.16 1685.68,112.07 1685.93,112.34 C1687.94,114.73 1694.95,121.10 1700.35,126.86 C1701.40,127.98 1702.69,130.70 1703.86,131.77 C1706.34,134.04 1710.41,135.08 1712.33,136.16 C1713.07,136.56 1714.54,136.90 1714.89,137.53 C1715.92,139.44 1716.67,140.60 1716.69,140.59 C1718.89,140.58 1723.49,143.58 1726.07,145.85 C1727.56,147.16 1731.96,151.68 1732.33,151.86 C1732.84,152.09 1734.61,152.17 1734.94,152.16 C1734.94,152.16 1735.97,152.50 1735.97,152.50 C1735.97,152.50 1736.99,152.84 1736.99,152.84 C1736.99,152.84 1737.90,153.41 1737.90,153.41 C1737.90,153.41 1738.81,153.86 1738.81,153.86 C1738.81,153.86 1739.72,154.32 1739.72,154.32 C1739.72,154.32 1741.31,155.45 1741.31,155.45 C1741.31,155.45 1742.90,156.59 1742.90,156.59 C1742.90,156.59 1744.20,158.12 1744.20,158.12 C1744.20,158.12 1744.77,159.03 1744.77,159.03 C1744.77,159.03 1745.45,159.77 1745.45,159.77 C1745.45,159.77 1745.91,160.74 1745.91,160.74 C1745.91,160.74 1750.11,165.28 1750.11,165.28 C1750.11,165.28 1750.97,166.02 1750.97,166.02 C1750.97,166.02 1751.87,166.70 1751.87,166.70 C1751.87,166.70 1754.60,168.86 1754.60,168.86 C1754.60,168.86 1756.19,169.89 1756.19,169.89 C1756.19,169.89 1757.10,170.45 1757.10,170.45 C1757.10,170.45 1758.01,171.02 1758.01,171.02 C1758.01,171.02 1759.94,172.16 1759.94,172.16 C1759.94,172.16 1761.42,173.07 1761.42,173.07 C1761.42,173.07 1762.56,173.75 1762.56,173.75 C1762.56,173.75 1763.52,174.09 1763.52,174.09 C1763.52,174.09 1764.94,174.55 1764.94,174.55 C1764.94,174.55 1766.08,175.00 1766.08,175.00 C1766.08,175.00 1766.99,175.45 1766.99,175.45 C1766.99,175.45 1768.01,175.80 1768.01,175.80 C1768.01,175.80 1769.03,176.25 1769.03,176.25 C1769.03,176.25 1770.51,176.70 1770.51,176.70 C1770.51,176.70 1771.76,177.16 1771.76,177.16 C1771.76,177.16 1772.90,177.50 1772.90,177.50 C1772.90,177.50 1773.92,177.84 1773.92,177.84 C1773.92,177.84 1774.83,178.30 1774.83,178.30 C1774.83,178.30 1776.87,178.86 1776.87,178.86 C1776.87,178.86 1777.90,179.20 1777.90,179.20 C1777.90,179.20 1778.92,179.43 1778.92,179.43 C1778.92,179.43 1780.40,180.00 1780.40,180.00 C1780.40,180.00 1781.31,180.45 1781.31,180.45 C1781.31,180.45 1782.33,180.91 1782.33,180.91 C1782.33,180.91 1783.35,181.36 1783.35,181.36 C1783.35,181.36 1784.37,181.70 1784.37,181.70 C1784.37,181.70 1786.08,182.27 1786.08,182.27 C1786.08,182.27 1787.10,182.73 1787.10,182.73 C1787.10,182.73 1788.12,183.07 1788.12,183.07 C1788.12,183.07 1789.15,183.30 1789.15,183.30 C1789.15,183.30 1791.53,183.98 1791.53,183.98 C1791.53,183.98 1792.67,184.32 1792.67,184.32 C1792.67,184.32 1793.69,184.66 1793.69,184.66 C1793.69,184.66 1794.72,185.00 1794.72,185.00 C1794.72,185.00 1797.67,185.97 1797.67,185.97 C1797.67,185.97 1799.37,186.42 1799.37,186.42 C1799.37,186.42 1801.25,186.97 1801.25,186.97 C1801.25,186.97 1802.73,187.35 1802.73,187.35 C1802.73,187.35 1807.04,188.72 1807.04,188.72 C1807.66,188.90 1809.59,189.95 1812.37,189.94 C1815.06,189.95 1819.44,190.41 1819.76,190.68 C1820.09,190.94 1821.61,192.94 1822.47,193.15 C1824.62,193.68 1829.50,192.97 1832.17,193.51 C1832.72,193.62 1833.76,193.89 1834.39,194.09 C1835.46,194.44 1835.32,195.60 1835.14,196.24 C1835.62,200.56 1835.62,202.59 1835.62,203.16 C1835.62,203.16 1836.34,204.43 1836.34,204.43 C1837.99,205.23 1839.40,207.26 1839.41,207.65 C1839.45,208.78 1841.65,211.36 1841.90,211.60 C1843.10,212.79 1852.36,216.68 1860.96,218.53 C1863.73,219.11 1871.97,218.76 1872.63,218.73 C1872.63,218.73 1875.03,218.51 1875.03,218.51 C1879.86,217.40 1890.83,214.82 1891.78,214.21 C1891.86,214.16 1894.50,211.08 1895.08,210.72 C1895.85,210.23 1896.71,207.79 1897.07,207.38 C1897.07,207.38 1897.41,205.23 1897.41,205.23 C1897.55,205.03 1899.76,201.37 1900.94,200.35 C1902.80,198.77 1908.46,193.78 1908.58,193.68 C1911.05,191.81 1913.84,188.09 1915.51,186.63 C1916.16,186.07 1918.50,186.07 1919.49,186.07 C1921.93,183.53 1923.25,180.44 1923.93,176.97 C1924.44,174.57 1928.08,168.33 1928.39,167.77 C1928.63,167.33 1930.30,163.55 1930.30,163.55 C1930.48,163.25 1933.03,161.15 1934.42,160.77 C1935.98,164.93 1936.30,166.63 1938.85,169.48 C1939.26,169.89 1941.20,173.13 1941.45,175.26 C1941.73,176.43 1941.10,178.35 1940.22,179.81 C1939.48,180.99 1938.30,182.46 1936.94,184.33 C1936.45,185.03 1935.09,188.37 1934.74,189.01 C1934.42,189.59 1932.96,191.69 1933.31,192.44 C1933.31,192.44 1936.98,192.69 1936.98,192.69 C1937.52,193.48 1936.03,196.67 1935.87,196.85 C1934.79,198.05 1932.68,198.37 1931.56,199.11 C1931.37,199.35 1929.55,202.56 1928.96,203.08 C1927.20,204.44 1926.04,207.74 1925.83,208.10 C1925.65,208.40 1925.04,210.39 1924.95,210.63 C1924.91,210.72 1919.66,218.95 1919.46,220.37 C1919.45,220.40 1919.45,220.47 1919.44,220.57 C1919.44,220.57 1919.52,222.19 1919.52,222.19 C1919.52,222.19 1919.27,224.33 1919.27,224.33 C1919.27,224.33 1918.93,225.35 1918.93,225.35 C1918.93,225.35 1918.33,227.23 1918.33,227.23 C1918.33,227.23 1917.99,228.34 1917.99,228.34 C1917.99,228.34 1917.56,229.28 1917.56,229.28 C1917.56,229.28 1917.13,230.39 1917.13,230.39 C1917.13,230.39 1916.79,231.41 1916.79,231.41 C1916.79,231.41 1916.62,232.44 1916.62,232.44 C1916.62,232.44 1916.71,237.22 1916.71,237.22 C1916.71,237.22 1916.88,238.59 1916.88,238.59 C1916.88,238.59 1917.47,239.52 1917.47,239.52 C1917.47,239.52 1917.65,240.80 1917.65,240.80 C1917.65,240.80 1917.99,241.91 1917.99,241.91 C1917.99,241.91 1918.50,242.85 1918.50,242.85 C1918.50,242.85 1919.27,244.48 1919.27,244.48 C1919.27,244.48 1920.46,246.35 1920.46,246.35 C1920.46,246.35 1923.02,249.34 1923.02,249.34 C1923.02,249.34 1925.71,251.95 1925.71,251.95 C1925.71,251.95 1926.78,252.84 1926.78,252.84 C1926.78,252.84 1929.30,255.02 1929.30,255.02 C1929.30,255.02 1931.60,256.90 1931.60,256.90 C1931.60,256.90 1932.71,257.50 1932.71,257.50 C1932.71,257.50 1934.17,258.09 1934.17,258.09 C1934.17,258.09 1935.45,258.61 1935.45,258.61 C1935.45,258.61 1936.56,259.03 1936.56,259.03 C1936.56,259.03 1937.58,259.37 1937.58,259.37 C1937.58,259.37 1938.86,259.89 1938.86,259.89 C1938.86,259.89 1940.74,260.31 1940.74,260.31 C1940.74,260.31 1942.02,260.83 1942.02,260.83 C1942.02,260.83 1943.30,261.42 1943.30,261.42 C1943.30,261.42 1945.01,262.11 1945.01,262.11 C1945.01,262.11 1945.95,262.70 1945.95,262.70 C1945.95,262.70 1946.89,263.47 1946.89,263.47 C1946.89,263.47 1947.61,264.63 1947.61,264.63 C1947.61,264.63 1947.87,268.81 1947.87,268.81 C1947.87,268.81 1945.44,271.58 1945.44,271.58 C1945.44,271.58 1943.90,272.86 1943.90,272.86 C1943.90,272.86 1942.62,273.97 1942.62,273.97 C1942.62,273.97 1941.47,274.70 1941.47,274.70 C1941.47,274.70 1940.70,275.72 1940.70,275.72 C1940.70,275.72 1940.70,277.00 1940.70,277.00 C1940.70,277.00 1940.95,278.03 1940.95,278.03 C1940.95,278.03 1941.29,279.74 1941.29,279.74 C1941.29,279.74 1941.89,281.36 1941.89,281.36 C1941.89,281.36 1942.32,283.15 1942.32,283.15 C1942.32,283.15 1942.66,284.18 1942.66,284.18 C1942.66,284.18 1943.26,286.31 1943.26,286.31 C1943.26,286.31 1943.69,287.25 1943.69,287.25 C1943.69,287.25 1944.03,289.64 1944.03,289.64 C1944.03,289.64 1944.80,291.26 1944.80,291.26 C1944.80,291.26 1945.39,292.12 1945.39,292.12 C1945.39,292.12 1945.91,293.14 1945.91,293.14 C1945.91,293.14 1947.19,294.85 1947.19,294.85 C1947.19,294.85 1949.02,296.47 1949.02,296.47 C1949.02,296.47 1950.34,297.67 1950.34,297.67 C1950.34,297.67 1951.24,298.31 1951.24,298.31 C1951.24,298.31 1952.78,299.42 1952.78,299.42 C1952.78,299.42 1955.00,301.04 1955.00,301.04 C1955.00,301.04 1956.02,301.47 1956.02,301.47 C1956.02,301.47 1958.75,303.60 1958.75,303.60 C1958.75,303.60 1960.04,304.37 1960.04,304.37 C1960.04,304.37 1963.02,304.54 1963.02,304.54 C1963.02,304.54 1964.05,304.37 1964.05,304.37 C1964.05,304.37 1965.07,303.51 1965.07,303.51 C1965.07,303.51 1965.88,302.92 1965.88,302.92 C1965.88,302.92 1969.21,299.37 1969.21,299.37 C1969.21,299.37 1971.35,296.81 1971.35,296.81 C1971.35,296.81 1971.77,295.79 1971.77,295.79 C1971.77,295.79 1973.23,293.74 1973.23,293.74 C1973.23,293.74 1974.38,292.67 1974.38,292.67 C1974.38,292.67 1975.36,291.77 1975.36,291.77 C1975.36,291.77 1976.51,290.96 1976.51,290.96 C1976.51,290.96 1977.62,290.28 1977.62,290.28 C1977.62,290.28 1979.42,289.34 1979.42,289.34 C1979.42,289.34 1980.53,289.09 1980.53,289.09 C1980.53,289.09 1981.72,289.09 1981.72,289.09 C1981.72,289.09 1983.26,289.68 1983.26,289.68 C1983.26,289.68 1983.90,290.92 1983.90,290.92 C1983.90,290.92 1985.48,291.48 1985.48,291.48 C1985.48,291.48 1986.50,291.05 1986.50,291.05 C1986.50,291.05 1988.89,289.85 1988.89,289.85 C1988.89,289.85 1989.92,289.51 1989.92,289.51 C1989.92,289.51 1991.37,289.09 1991.37,289.09 C1991.37,289.09 1993.25,289.34 1993.25,289.34 C1993.25,289.34 1994.44,289.68 1994.44,289.68 C1994.44,289.68 1995.25,292.71 1995.25,292.71 C1995.25,292.71 1994.23,294.42 1994.23,294.42 C1994.23,294.42 1993.50,295.74 1993.50,295.74 C1993.50,295.74 1992.73,296.43 1992.73,296.43 C1992.73,296.43 1990.69,298.05 1990.69,298.05 C1990.69,298.05 1989.75,298.73 1989.75,298.73 C1989.75,298.73 1988.72,299.07 1988.72,299.07 C1988.72,299.07 1987.01,299.16 1987.01,299.16 C1987.01,299.16 1984.79,299.50 1984.79,299.50 C1984.79,299.50 1983.98,300.74 1983.98,300.74 C1983.98,300.74 1983.81,301.93 1983.81,301.93 C1983.81,301.93 1983.26,302.92 1983.26,302.92 C1983.26,302.92 1981.04,303.17 1981.04,303.17 C1981.04,303.17 1978.65,303.09 1978.65,303.09 C1978.65,303.09 1977.03,303.09 1977.03,303.09 C1977.03,303.09 1976.00,303.34 1976.00,303.34 C1976.00,303.34 1972.71,306.20 1972.71,306.20 C1972.71,306.20 1972.03,307.10 1972.03,307.10 C1972.03,307.10 1972.59,309.92 1972.59,309.92 C1972.59,309.92 1973.61,310.77 1973.61,310.77 C1973.61,310.77 1974.72,311.45 1974.72,311.45 C1974.72,311.45 1977.28,311.88 1977.28,311.88 C1977.28,311.88 1978.56,312.56 1978.56,312.56 C1978.56,312.56 1979.20,313.38 1979.20,313.38 C1979.20,313.38 1978.95,314.66 1978.95,314.66 C1978.95,314.66 1977.62,316.06 1977.62,316.06 C1977.62,316.06 1976.51,316.92 1976.51,316.92 C1976.51,316.92 1973.64,318.85 1973.64,318.85 C1972.37,319.96 1970.94,320.42 1969.58,319.74 C1969.03,319.47 1966.68,319.83 1964.79,318.70 C1964.20,318.87 1962.56,318.99 1962.30,319.00 C1962.04,319.00 1960.56,318.92 1960.13,318.13 C1959.59,317.97 1954.57,319.65 1951.15,320.58 C1950.89,320.66 1949.01,320.59 1948.59,320.84 C1947.68,321.40 1942.41,324.48 1941.98,324.82 C1940.47,326.48 1939.19,327.99 1938.05,327.21 C1936.58,326.20 1935.06,326.13 1933.85,327.08 C1933.76,327.15 1930.61,329.49 1930.62,330.38 C1930.66,331.33 1931.40,331.92 1932.05,332.74 C1932.35,333.09 1935.45,333.52 1935.91,333.52 C1935.91,333.52 1935.84,334.66 1935.84,334.66 C1935.84,334.66 1929.95,335.59 1929.95,335.59 C1929.95,335.59 1928.35,338.62 1928.35,338.62 C1928.35,338.62 1927.20,339.81 1927.20,339.81 C1927.20,339.81 1924.53,341.75 1924.53,341.75 C1924.53,341.75 1924.53,342.95 1924.53,342.95 C1924.22,343.25 1920.00,348.77 1917.27,348.67 C1915.65,348.58 1912.97,349.02 1911.76,348.58 C1911.33,348.42 1910.33,347.99 1909.97,347.84 C1909.97,347.84 1906.85,347.24 1906.85,347.24 C1906.85,347.24 1905.31,346.88 1905.31,346.88 C1904.91,347.04 1901.49,347.90 1900.99,348.36 C1900.60,348.74 1899.94,350.79 1899.96,350.87 C1900.03,351.10 1900.65,351.49 1900.92,351.90 C1900.92,351.90 1890.47,353.88 1890.47,353.88 C1889.19,353.73 1882.99,353.73 1880.34,353.72 C1878.45,353.71 1875.08,354.41 1874.43,354.39 C1872.48,354.35 1870.23,355.94 1869.30,356.01 C1869.09,355.91 1868.61,355.08 1868.46,354.45 C1868.39,354.21 1860.73,350.73 1858.88,350.55 C1858.75,350.54 1858.56,350.52 1858.34,350.50 C1858.34,350.50 1856.51,351.13 1856.51,351.13 C1856.51,351.13 1857.41,350.64 1857.41,350.64 C1857.41,350.64 1857.95,348.48 1857.95,348.48 C1857.95,348.48 1854.70,346.78 1854.70,346.78 C1851.86,346.47 1848.98,346.54 1845.42,347.18 C1843.73,347.51 1837.24,349.71 1835.30,350.78 C1826.92,355.78 1817.95,361.93 1817.47,362.34 C1816.57,363.12 1813.58,364.92 1813.06,365.44 C1808.73,370.83 1802.70,375.98 1801.77,376.42 C1801.30,376.65 1792.18,386.28 1792.26,387.21 C1791.36,387.72 1789.65,390.32 1788.70,390.98 C1787.88,391.57 1784.51,396.99 1782.97,399.04 C1780.91,401.53 1777.32,406.31 1776.75,407.91 C1776.20,409.13 1772.37,413.64 1771.29,416.29 C1769.61,421.71 1768.50,423.04 1767.90,426.94 C1767.85,427.24 1767.38,430.67 1766.58,432.32 C1764.74,436.09 1762.19,439.31 1761.24,441.99 C1761.05,442.56 1759.47,448.83 1759.87,452.85 C1760.14,455.75 1762.32,457.57 1762.85,461.04 C1763.02,461.68 1762.53,463.09 1762.60,463.34 C1761.03,471.24 1761.30,479.76 1759.04,481.59 C1759.05,481.70 1757.86,484.94 1757.78,485.85 C1757.60,488.04 1755.63,495.56 1755.26,496.22 C1754.81,497.01 1754.77,498.75 1754.72,498.79 C1754.72,498.79 1753.62,498.49 1753.62,498.49 C1749.30,496.29 1742.99,490.45 1741.78,488.87 C1741.26,488.15 1741.18,486.34 1740.97,485.92 C1740.35,484.64 1729.90,479.31 1728.60,477.56 C1728.31,477.01 1726.28,474.07 1725.66,473.57 C1725.56,473.49 1722.78,471.27 1721.52,471.00 C1717.14,470.12 1712.70,468.72 1712.18,468.70 C1711.21,468.65 1709.52,467.62 1709.24,467.54 C1709.03,467.48 1707.58,467.65 1707.06,467.60 C1707.06,467.60 1706.22,466.88 1706.22,466.88 C1706.22,466.88 1703.54,464.60 1703.54,464.60 C1701.77,464.08 1699.84,462.66 1698.69,462.47 C1694.94,461.85 1691.82,459.06 1691.51,458.80 C1687.34,458.18 1685.59,456.34 1681.69,453.87 C1677.46,451.19 1675.60,449.41 1671.73,448.46 C1670.15,448.07 1668.46,446.62 1667.87,445.44 C1667.31,445.24 1662.56,443.53 1658.97,441.62 C1654.50,439.09 1653.55,438.35 1650.21,434.93 C1649.52,434.22 1645.32,429.49 1642.44,427.69 C1642.37,427.64 1638.42,425.03 1638.09,424.82 C1637.44,424.42 1636.49,423.54 1635.41,423.31 C1633.22,422.92 1628.09,423.76 1627.39,423.48 C1624.62,422.33 1621.11,417.73 1619.82,415.87 C1618.01,413.28 1612.41,408.77 1612.22,408.60 C1611.01,407.48 1609.25,405.86 1608.51,405.64 C1607.56,405.38 1603.97,404.95 1603.52,404.97 C1601.88,405.04 1600.45,403.43 1599.47,402.71 C1596.79,400.81 1591.84,399.80 1589.80,399.34 C1588.49,399.04 1583.12,398.94 1580.74,398.76 C1579.68,398.74 1576.92,398.54 1575.10,399.25 C1573.79,399.48 1572.75,399.92 1572.31,400.12 C1572.31,400.12 1565.82,403.49 1565.82,403.49 C1565.82,403.49 1565.66,404.09 1565.66,404.09 C1565.66,404.09 1565.82,403.79 1565.82,403.79 C1565.82,403.79 1563.58,405.15 1563.58,405.15 C1563.58,405.15 1561.10,406.24 1561.10,406.24 C1561.10,406.24 1557.26,407.97 1557.26,407.97 C1552.42,411.45 1548.89,414.80 1540.24,420.93 C1539.37,421.54 1536.72,422.76 1536.18,423.32 C1535.46,424.07 1533.96,425.37 1533.24,426.54 C1531.74,427.21 1520.51,438.65 1520.02,440.29 C1519.80,441.06 1517.68,443.66 1515.21,443.38 C1510.79,442.76 1511.63,439.02 1511.89,438.56 C1511.89,438.56 1513.34,437.87 1513.34,437.87 C1513.45,436.61 1511.03,434.84 1510.13,434.19 C1509.46,433.70 1508.62,433.26 1508.49,433.16 C1508.20,432.03 1507.06,428.67 1506.87,428.08 C1506.39,426.62 1502.63,421.04 1500.32,419.10 C1499.24,418.18 1496.68,416.45 1495.97,416.40 C1494.24,416.33 1492.39,415.35 1491.61,413.79 C1491.24,413.03 1490.91,410.23 1489.78,408.58 C1489.26,407.83 1488.51,406.04 1488.01,405.62 C1487.71,405.39 1485.36,403.46 1483.55,403.24 C1481.91,403.05 1478.77,403.81 1478.70,403.82 C1477.48,404.13 1474.40,407.16 1474.00,407.54 C1474.00,407.54 1472.93,406.95 1472.93,406.95 C1472.93,406.95 1469.11,403.58 1469.11,403.58 C1467.44,402.17 1462.55,403.65 1459.79,405.06 C1458.86,405.59 1452.08,410.61 1451.39,412.40 C1450.81,413.90 1447.91,417.53 1445.97,421.79 C1445.42,423.02 1442.79,431.46 1442.72,431.88 C1442.10,435.13 1440.79,437.96 1440.86,442.33 C1440.86,443.54 1441.30,446.53 1441.54,447.24 C1442.30,449.46 1446.04,450.10 1450.44,452.47 C1451.81,453.28 1453.43,454.08 1454.87,455.07 C1455.69,455.61 1456.91,457.25 1458.60,458.24 C1460.79,459.54 1464.40,464.43 1466.02,465.93 C1466.69,466.54 1468.45,467.40 1469.42,468.40 C1469.43,468.31 1471.47,468.85 1480.58,466.37 C1482.56,465.55 1485.74,465.58 1486.14,465.48 C1487.25,465.19 1490.78,467.07 1490.96,467.16 C1491.68,467.52 1493.36,469.26 1493.48,469.46 C1493.48,469.46 1493.48,472.79 1493.48,472.79 C1493.48,472.79 1496.99,474.71 1496.99,474.71 C1496.96,474.81 1497.44,478.51 1497.61,479.27 C1497.79,480.04 1505.95,486.81 1507.23,488.62 C1509.70,493.04 1511.90,496.20 1513.61,496.96 C1514.24,497.23 1521.02,499.25 1524.00,500.06 C1528.78,501.66 1533.18,505.32 1533.66,506.22 C1533.66,506.22 1534.69,509.05 1534.69,509.05 C1535.70,509.53 1537.52,510.86 1537.86,511.50 C1538.48,512.69 1538.26,515.03 1537.48,515.71 C1537.09,516.03 1533.63,516.98 1533.58,517.30 C1531.98,517.67 1530.96,518.91 1530.23,519.69 C1529.60,520.36 1526.81,521.62 1526.19,522.24 C1525.30,523.18 1522.92,524.87 1522.35,525.08 C1522.02,525.21 1516.33,527.37 1516.24,527.38 C1514.74,527.81 1513.66,527.25 1512.42,525.09 C1511.88,524.18 1511.41,523.65 1511.24,523.33 C1511.15,523.23 1506.95,521.68 1506.54,521.39 C1504.77,520.17 1501.55,521.73 1501.20,521.92 C1500.56,521.67 1496.94,519.50 1496.57,519.47 C1496.32,519.45 1495.04,519.38 1494.78,519.34 C1494.78,519.34 1490.73,519.45 1490.73,519.45 C1490.73,519.45 1489.93,521.01 1489.93,521.01 C1489.93,521.01 1488.67,522.63 1488.67,522.63 C1487.32,523.22 1485.48,522.96 1484.40,521.61 C1484.29,521.48 1484.19,521.35 1484.08,521.22 C1482.97,517.97 1484.92,515.70 1484.96,515.57 C1484.96,515.57 1486.99,516.35 1486.99,516.35 C1486.99,516.35 1484.50,513.14 1484.50,513.14 C1484.50,513.14 1482.90,513.27 1482.90,513.27 C1482.90,513.27 1481.49,514.30 1481.49,514.30 C1481.34,514.47 1479.17,517.17 1478.89,518.14 C1478.28,519.65 1477.68,522.77 1477.67,523.61 C1476.01,523.62 1472.86,525.13 1472.63,525.23 C1472.30,525.38 1468.04,528.84 1467.43,529.35 C1466.81,529.25 1464.99,529.34 1464.76,529.37 C1464.59,529.39 1461.96,530.32 1461.28,530.38 C1461.28,530.38 1459.56,534.52 1459.56,534.52 C1459.00,534.99 1458.82,546.66 1458.21,549.08 C1457.84,550.49 1455.42,552.30 1455.40,552.37 C1453.42,553.07 1445.47,555.22 1444.94,555.49 C1442.94,556.48 1437.89,559.89 1437.53,560.01 C1437.37,560.39 1435.51,568.45 1434.97,569.52 C1434.72,569.99 1433.76,570.86 1433.25,571.25 C1432.47,571.84 1430.94,571.74 1430.50,571.61 C1429.99,571.45 1428.59,568.97 1428.21,568.66 C1427.24,568.26 1423.93,568.20 1422.63,567.87 C1421.77,567.63 1418.65,566.36 1418.09,566.02 C1417.38,565.59 1413.10,560.65 1411.48,558.06 C1409.72,555.16 1408.04,551.04 1407.99,548.55 C1407.99,542.65 1409.96,532.32 1412.40,527.95 C1412.76,527.29 1417.22,518.84 1417.40,518.29 C1417.47,518.07 1417.46,512.29 1417.48,511.49 C1417.53,511.48 1420.55,512.20 1421.64,512.17 C1422.93,512.11 1423.68,511.53 1423.93,511.30 C1424.06,510.03 1422.91,506.70 1422.90,506.50 C1422.92,505.13 1423.24,504.08 1423.20,504.11 C1424.14,504.44 1425.41,504.41 1425.65,504.19 C1426.98,502.86 1426.98,500.02 1426.89,499.11 C1426.56,496.29 1425.44,491.45 1424.78,488.93 C1424.66,488.49 1420.89,481.39 1420.00,479.82 C1415.08,472.62 1411.44,468.83 1411.17,468.55 C1410.66,468.48 1407.58,468.87 1406.44,468.87 C1405.74,468.83 1402.43,467.70 1401.47,466.48 C1397.88,461.86 1397.92,456.19 1397.92,455.45 C1397.93,455.44 1394.62,455.61 1393.88,455.59 C1393.59,455.59 1391.61,455.63 1391.16,455.59 C1389.69,455.44 1387.50,452.79 1387.12,452.00 C1385.82,449.21 1385.52,446.19 1385.55,444.47 C1385.51,444.30 1383.27,439.80 1387.84,434.38 C1389.21,432.61 1390.81,429.25 1391.57,425.63 C1392.31,421.76 1393.93,416.00 1394.03,415.62 C1394.44,414.12 1394.43,411.87 1394.02,410.69 C1393.86,410.24 1392.23,406.17 1392.20,405.41 C1392.15,404.40 1391.72,396.52 1392.41,395.03 C1392.69,394.44 1393.04,392.90 1393.10,392.83 C1394.15,391.58 1396.13,388.55 1396.65,388.23 C1396.84,388.12 1399.77,386.38 1400.74,386.15 C1403.44,385.51 1414.40,385.80 1415.18,385.81 C1416.58,384.15 1418.16,381.63 1418.35,381.42 C1419.95,379.66 1423.15,378.18 1423.62,377.96 C1423.62,377.96 1429.42,368.08 1429.42,368.08 C1430.56,368.34 1431.15,368.58 1431.45,369.52 C1431.81,370.69 1432.55,371.71 1433.21,372.24 C1433.40,372.39 1436.61,374.40 1436.76,374.75 C1437.12,375.60 1439.17,376.02 1439.74,375.97 C1439.93,375.17 1440.47,372.28 1440.92,370.92 C1441.44,369.40 1445.28,361.87 1445.89,361.01 C1446.79,359.46 1449.29,357.25 1449.72,356.40 C1451.05,353.72 1453.46,350.42 1455.93,348.35 C1456.93,347.54 1459.93,346.27 1461.16,345.75 C1462.70,345.04 1463.63,344.10 1463.64,343.04 C1463.66,340.23 1462.72,337.73 1459.75,332.95 C1457.58,329.50 1454.27,326.22 1453.07,324.93 C1452.64,324.47 1446.54,318.82 1445.73,317.69 C1444.09,315.55 1443.33,310.81 1443.72,308.33 C1443.78,308.04 1445.43,303.91 1445.45,303.44 C1445.51,300.34 1444.05,298.11 1444.09,296.59 C1444.09,296.59 1453.49,297.77 1453.49,297.77 C1454.28,296.97 1456.29,294.94 1456.32,293.87 C1456.32,293.76 1456.34,293.02 1456.35,292.77 C1456.35,292.77 1457.65,291.65 1457.65,291.65 C1457.65,291.65 1461.89,293.32 1461.89,293.32 C1462.29,294.41 1463.18,295.08 1463.61,295.79 C1463.84,296.16 1468.81,298.80 1468.84,298.83 C1469.04,299.01 1470.62,301.29 1470.98,301.70 C1472.18,301.71 1475.46,301.76 1475.78,302.65 C1476.27,304.08 1476.18,306.18 1477.32,306.68 C1478.51,307.17 1480.90,308.67 1481.92,309.15 C1484.35,310.33 1489.45,311.12 1489.77,312.18 C1489.78,312.22 1489.96,314.41 1490.27,314.91 C1491.42,316.74 1494.70,317.52 1494.81,317.56 C1496.60,317.37 1496.41,314.45 1497.41,313.53 C1498.09,312.94 1501.56,314.03 1502.64,313.70 C1503.58,313.42 1506.36,311.58 1507.38,310.79 C1509.39,309.23 1513.33,311.58 1513.62,311.71 C1513.62,311.71 1514.35,313.22 1514.35,313.22 C1514.35,313.22 1515.39,314.83 1515.39,314.83 C1515.39,314.83 1516.35,315.79 1516.35,315.79 C1516.35,315.79 1517.11,316.67 1517.11,316.67 C1517.11,316.67 1517.91,317.80 1517.91,317.80 C1517.91,317.80 1518.76,318.63 1518.76,318.63 C1518.76,318.63 1519.65,319.72 1519.65,319.72 C1519.65,319.72 1520.78,320.69 1520.78,320.69 C1520.78,320.69 1523.15,321.53 1523.15,321.53 C1524.08,321.50 1527.70,322.37 1528.27,322.73 C1528.57,322.93 1529.87,324.27 1531.10,324.15 C1531.10,324.15 1532.59,323.98 1532.59,323.98 C1532.59,323.98 1539.04,318.70 1539.04,318.70 C1539.04,318.70 1541.29,315.56 1541.29,315.56 C1541.34,315.40 1541.47,314.51 1542.25,313.55 C1542.40,313.37 1544.43,313.60 1544.85,313.60 C1544.85,313.60 1549.05,309.25 1549.05,309.25 C1552.14,306.60 1556.77,296.71 1556.84,294.82 C1556.88,292.94 1555.24,287.80 1550.96,279.71 C1549.14,276.25 1547.81,273.52 1547.71,273.42 C1547.43,270.49 1549.56,265.95 1549.59,263.39 C1549.62,258.26 1544.44,250.16 1544.46,248.27 C1544.49,246.28 1544.39,244.73 1545.50,243.24 C1546.70,241.44 1547.43,240.42 1547.67,240.18 C1547.67,240.18 1547.29,237.90 1547.29,237.90 C1547.04,235.97 1547.67,233.09 1551.07,231.24 C1553.31,230.04 1560.04,229.87 1560.88,228.86 C1561.95,227.47 1562.83,224.33 1563.71,224.17 C1563.79,224.16 1565.25,224.30 1566.04,224.63 C1567.14,225.08 1569.78,223.99 1570.17,223.83 C1571.19,222.24 1571.70,221.81 1572.77,219.93 C1573.64,218.38 1573.64,213.12 1573.64,211.46 C1573.64,211.46 1573.95,210.37 1573.95,210.37 C1573.95,210.37 1575.17,208.80 1575.17,208.80 C1576.06,206.71 1576.10,201.21 1576.07,198.50 C1575.69,192.90 1575.05,180.12 1573.64,175.51 C1573.13,173.83 1573.10,172.24 1573.11,170.69 C1573.11,170.69 1574.20,166.23 1574.20,166.23 C1574.20,166.23 1574.58,165.17 1574.58,165.17 C1574.58,165.17 1575.61,163.24 1575.61,163.24 C1576.34,161.76 1579.55,156.17 1581.03,153.78 C1582.22,151.81 1583.78,139.82 1583.09,135.26 C1582.83,133.57 1583.17,132.36 1583.78,131.54 C1586.04,129.95 1587.03,122.31 1587.02,121.70 C1586.97,117.09 1584.52,103.40 1583.25,99.56 C1581.86,95.49 1580.65,90.44 1580.19,89.10 C1578.84,85.22 1573.32,72.98 1572.26,70.61 C1570.62,67.03 1566.33,55.33 1564.03,52.26 C1563.50,51.55 1563.30,51.27 1563.14,50.99 C1563.14,50.99 1561.22,49.21 1561.22,49.21 C1561.22,49.21 1560.52,47.52 1560.52,47.52 C1560.52,47.52 1560.24,46.04 1560.24,46.04 C1560.24,46.04 1560.08,44.40 1560.08,44.40 C1560.08,44.40 1560.22,42.40 1560.22,42.40 C1560.22,42.40 1560.78,39.89 1560.78,39.89 C1560.78,39.89 1561.43,38.69 1561.43,38.69 C1561.43,38.69 1561.96,36.98 1561.96,36.98 C1561.96,36.98 1563.57,31.09 1563.57,31.09 C1564.23,30.53 1566.40,28.85 1566.86,26.98 C1567.29,25.13 1565.28,21.39 1565.56,20.37 Z" fill="none" stroke="rgb(0, 0, 0)" stroke-width="3.00" stroke-opacity="1.00" stroke-linejoin="round"/>
</g>
</svg>
