<?xml version="1.0" encoding="UTF-8" standalone="no"?>
<!DOCTYPE svg PUBLIC "-//W3C//DTD SVG 1.1//EN" "http://www.w3.org/Graphics/SVG/1.1/DTD/svg11.dtd">
<svg width="480.00" height="480.00" viewBox="0.00 0.00 2000.00 2000.00" xmlns="http://www.w3.org/2000/svg" xmlns:xlink="http://www.w3.org/1999/xlink" fill="rgba(255, 255, 255, 0)"  stroke="rgb(0, 0, 0)" stroke-width="3.00" stroke-opacity="1.00" stroke-linejoin="round" id="svgId">
<g stroke-linecap="round" id="aomori">
<path d="M1508.46,550.03 C1508.46,550.03 1508.58,548.99 1508.58,548.99 C1508.58,548.99 1506.18,552.61 1506.18,552.61 C1506.18,552.61 1506.59,555.19 1506.59,555.19 C1507.79,555.58 1506.53,558.41 1506.12,559.10 C1505.07,560.91 1503.89,563.57 1503.44,564.30 C1502.72,566.99 1499.86,569.56 1498.90,572.11 C1498.76,572.49 1496.68,586.36 1496.37,587.37 C1495.71,589.50 1493.53,596.88 1493.49,597.66 C1493.45,598.60 1493.28,607.23 1493.35,607.55 C1493.89,610.22 1496.66,612.67 1496.77,612.81 C1497.61,612.82 1500.55,613.23 1501.80,612.68 C1502.91,612.18 1507.28,607.40 1509.14,606.44 C1511.03,605.47 1518.45,604.29 1519.63,603.54 C1519.63,603.54 1519.69,601.83 1519.69,601.83 C1520.64,602.07 1524.69,603.10 1524.95,603.15 C1526.36,603.50 1527.55,602.71 1527.86,602.51 C1529.61,601.31 1532.17,598.86 1535.97,595.71 C1537.06,594.80 1538.10,592.95 1538.63,592.01 C1538.63,592.01 1541.14,591.50 1541.14,591.50 C1541.14,591.50 1543.80,593.66 1543.80,593.66 C1543.80,593.66 1545.51,596.18 1545.51,596.18 C1546.77,599.35 1547.39,603.63 1547.50,606.02 C1547.88,607.68 1547.60,609.47 1546.69,610.65 C1545.58,612.10 1545.32,614.57 1545.24,615.54 C1544.42,622.78 1544.49,632.46 1541.81,637.78 C1541.67,638.06 1538.53,644.94 1536.93,646.21 C1535.82,647.07 1533.25,647.22 1531.83,645.96 C1530.87,645.11 1525.68,640.31 1524.19,638.94 C1520.60,636.11 1519.16,633.86 1517.00,631.74 C1516.74,631.45 1515.19,629.08 1513.57,628.22 C1511.91,627.34 1507.59,625.69 1505.89,625.73 C1505.89,625.73 1505.19,631.90 1505.19,631.90 C1505.19,631.90 1502.38,635.68 1502.38,635.68 C1501.69,635.79 1502.65,636.85 1503.03,637.78 C1503.81,639.78 1504.60,642.35 1504.60,643.07 C1504.60,645.90 1498.69,651.42 1498.17,651.83 C1498.17,651.83 1490.46,653.41 1490.46,653.41 C1488.69,651.38 1487.14,647.34 1486.87,643.31 C1486.54,640.73 1485.24,626.23 1483.17,621.60 C1482.69,620.57 1481.21,617.59 1481.10,617.30 C1480.52,615.66 1481.57,608.71 1482.16,605.80 C1482.31,604.66 1482.00,602.17 1481.41,600.94 C1480.84,599.78 1479.33,598.49 1479.29,598.15 C1478.66,597.44 1475.99,595.07 1475.93,595.04 C1475.00,594.49 1471.70,593.96 1470.00,594.01 C1470.00,594.01 1465.32,599.05 1465.32,599.05 C1465.32,599.05 1463.57,600.51 1463.57,600.51 C1463.57,600.51 1462.40,600.54 1462.40,600.54 C1461.04,600.48 1458.10,599.40 1457.42,598.98 C1455.76,597.91 1454.78,595.77 1453.43,594.92 C1453.13,594.74 1449.30,592.13 1448.72,591.82 C1448.05,591.74 1445.10,594.37 1447.12,602.20 C1447.39,603.25 1447.21,604.43 1446.60,604.89 C1446.07,605.27 1445.42,606.00 1445.10,606.61 C1443.94,606.60 1441.64,606.57 1439.84,606.51 C1439.11,606.51 1437.60,608.01 1437.38,608.23 C1437.43,610.11 1440.71,612.39 1443.34,613.23 C1443.35,613.57 1445.72,619.95 1445.92,622.72 C1446.05,624.32 1446.46,631.00 1445.78,632.79 C1444.94,635.01 1443.07,639.96 1442.06,642.69 C1441.98,642.89 1439.26,652.39 1439.15,652.76 C1438.59,654.53 1437.39,656.49 1437.73,656.61 C1437.59,656.59 1436.60,657.70 1436.09,657.87 C1434.96,658.24 1432.68,658.92 1431.53,659.25 C1431.53,659.25 1427.21,661.52 1427.21,661.52 C1427.21,661.52 1423.58,665.65 1423.58,665.65 C1423.58,665.65 1423.00,661.74 1423.00,661.74 C1420.79,661.05 1418.74,659.82 1418.50,659.82 C1418.25,659.83 1417.57,659.87 1417.21,659.90 C1416.82,659.97 1414.33,660.31 1412.36,661.10 C1412.20,661.16 1409.43,665.23 1409.23,665.54 C1408.86,666.11 1406.86,669.72 1406.85,670.39 C1406.82,672.27 1404.85,675.27 1404.76,675.34 C1404.76,675.34 1400.90,678.31 1400.90,678.31 C1400.90,678.31 1395.88,681.73 1395.88,681.73 C1395.89,682.03 1395.42,684.80 1395.40,686.73 C1395.40,687.69 1398.78,690.14 1399.03,690.45 C1400.45,690.52 1402.67,694.32 1404.59,699.34 C1404.80,699.90 1405.13,703.48 1404.99,704.73 C1404.82,706.28 1403.81,708.24 1403.47,710.12 C1403.41,710.56 1404.40,712.82 1405.29,713.87 C1405.29,713.87 1406.79,713.98 1406.79,713.98 C1406.79,713.98 1405.88,712.43 1405.88,712.43 C1405.88,712.43 1409.00,709.65 1409.00,709.65 C1410.51,709.65 1413.17,710.50 1413.90,710.06 C1415.14,709.29 1416.01,707.10 1417.42,705.99 C1418.08,705.47 1420.13,705.71 1420.22,705.79 C1420.66,706.73 1421.68,707.85 1424.00,709.78 C1424.66,710.33 1426.76,710.79 1426.99,710.85 C1427.74,711.05 1430.18,709.86 1431.84,709.19 C1433.07,708.70 1449.13,710.07 1449.31,709.96 C1449.80,709.66 1449.18,706.77 1449.23,705.74 C1450.70,703.94 1455.03,702.54 1458.54,702.76 C1460.01,702.87 1462.44,705.88 1462.65,706.31 C1462.87,706.78 1463.30,709.72 1464.27,710.13 C1468.65,711.91 1472.92,712.55 1473.57,712.54 C1474.13,712.53 1475.41,712.50 1476.13,712.48 C1476.13,712.48 1474.12,716.21 1474.12,716.21 C1475.90,717.48 1481.44,715.06 1482.27,714.96 C1482.80,714.90 1485.97,715.78 1486.63,715.47 C1487.38,714.26 1489.42,714.34 1490.73,713.77 C1491.18,713.58 1492.50,713.39 1493.55,713.05 C1493.55,713.05 1493.09,711.37 1493.09,711.37 C1493.09,711.25 1496.07,709.21 1496.69,709.20 C1496.87,709.20 1498.70,709.21 1499.03,709.06 C1499.03,709.06 1500.32,708.24 1500.32,708.24 C1500.32,708.24 1500.09,703.57 1500.09,703.57 C1500.09,703.57 1507.19,699.52 1507.19,699.52 C1507.38,700.97 1506.23,708.76 1507.34,709.68 C1509.05,711.23 1511.24,711.96 1512.32,711.98 C1513.55,711.98 1516.37,711.98 1517.88,712.34 C1518.59,712.52 1521.49,715.76 1521.53,716.22 C1521.55,716.49 1522.65,720.67 1522.61,720.82 C1522.50,720.87 1520.87,720.99 1520.17,721.80 C1519.19,723.17 1517.44,725.43 1517.33,726.93 C1517.20,728.86 1516.73,729.52 1515.97,731.90 C1515.68,732.83 1516.61,735.61 1516.98,736.68 C1517.34,737.74 1518.61,740.74 1519.47,741.11 C1520.31,741.59 1521.63,742.27 1522.39,742.15 C1526.12,741.46 1530.94,740.26 1532.58,738.67 C1533.21,738.04 1533.76,736.72 1533.66,736.42 C1533.64,736.39 1532.47,732.81 1532.68,732.72 C1538.64,731.63 1547.15,728.18 1551.30,724.84 C1554.42,721.62 1554.66,721.30 1554.85,721.13 C1556.36,721.12 1557.01,721.21 1557.44,722.03 C1557.50,722.16 1558.16,723.58 1558.97,723.60 C1559.39,723.61 1560.79,724.17 1561.34,723.94 C1561.41,723.90 1564.25,722.15 1565.84,721.46 C1567.45,720.77 1570.99,720.48 1571.33,720.61 C1575.27,722.41 1579.24,723.72 1581.27,722.95 C1581.79,722.74 1584.48,721.28 1585.14,720.43 C1587.05,717.96 1586.44,714.18 1586.45,713.98 C1588.95,714.06 1590.96,713.56 1592.66,712.03 C1592.73,711.96 1594.16,710.18 1594.65,709.57 C1594.65,709.57 1595.87,709.29 1595.87,709.29 C1597.03,709.99 1592.88,702.92 1591.35,701.30 C1590.51,700.41 1590.14,700.25 1590.21,700.77 C1590.21,700.77 1589.37,699.88 1589.37,699.88 C1589.37,699.88 1588.90,698.85 1588.90,698.85 C1588.90,698.85 1586.44,696.40 1586.44,696.40 C1586.44,696.40 1583.64,696.78 1583.64,696.78 C1583.64,696.78 1579.66,696.14 1579.66,696.14 C1579.19,695.37 1577.05,693.07 1576.80,692.10 C1576.62,691.36 1576.14,690.44 1576.04,690.20 C1575.44,688.81 1574.74,687.47 1573.88,685.98 C1572.69,683.94 1572.25,681.25 1572.11,680.79 C1571.33,678.22 1569.48,673.11 1568.97,670.82 C1568.50,668.51 1566.90,661.40 1566.80,660.87 C1566.57,659.58 1564.70,641.58 1564.49,640.37 C1564.07,638.16 1562.99,631.87 1562.68,630.01 C1562.67,629.93 1562.81,614.02 1562.78,609.10 C1562.82,603.45 1565.31,595.24 1566.48,588.91 C1567.10,585.20 1566.94,579.54 1567.47,578.46 C1568.54,576.35 1568.94,573.38 1568.97,573.25 C1569.06,572.66 1570.21,571.38 1570.54,570.37 C1570.58,570.25 1570.51,568.31 1570.31,568.14 C1570.31,568.14 1567.39,569.15 1567.39,569.15 C1567.39,569.15 1564.58,571.83 1564.58,571.83 C1564.58,571.83 1563.88,573.89 1563.88,573.89 C1561.14,575.48 1558.32,578.84 1555.40,579.09 C1555.35,579.10 1551.29,579.09 1550.32,579.03 C1550.13,579.01 1547.16,577.19 1546.45,576.71 C1544.35,575.04 1540.67,572.46 1538.22,570.44 C1538.21,570.43 1529.06,560.74 1527.88,559.70 C1527.57,559.44 1517.98,557.05 1517.56,556.63 C1517.20,556.27 1514.03,554.35 1513.51,553.90 C1510.45,551.06 1509.76,549.59 1509.16,549.32 C1509.16,549.32 1509.16,549.90 1509.16,549.90"/>
</g>
</svg>
