<?xml version="1.0" encoding="UTF-8" standalone="no"?>
<!DOCTYPE svg PUBLIC "-//W3C//DTD SVG 1.1//EN" "http://www.w3.org/Graphics/SVG/1.1/DTD/svg11.dtd">
<svg width="480.00" height="480.00" viewBox="0.00 0.00 2000.00 2000.00" xmlns="http://www.w3.org/2000/svg" xmlns:xlink="http://www.w3.org/1999/xlink" fill="rgba(255, 255, 255, 0)"  stroke="rgb(0, 0, 0)" stroke-width="3.00" stroke-opacity="1.00" stroke-linejoin="round" id="svgId">
<g stroke-linecap="round" id="iwate">
<path d="M1543.29,949.79 C1543.28,949.76 1543.33,949.70 1543.26,949.76 C1543.26,949.75 1540.42,948.75 1538.68,947.62 C1538.12,947.25 1537.44,945.07 1537.46,945.03 C1537.91,944.41 1543.60,942.59 1544.76,942.42 C1544.59,942.02 1539.62,937.17 1537.06,935.89 C1535.06,934.92 1533.83,934.05 1532.04,934.45 C1531.69,934.53 1528.76,936.30 1527.72,936.87 C1526.63,937.54 1524.16,936.97 1523.70,936.95 C1523.54,936.94 1521.80,936.80 1521.59,936.47 C1520.33,936.32 1507.97,927.94 1507.62,927.55 C1506.41,926.16 1503.72,923.87 1503.47,923.59 C1503.47,923.59 1499.05,923.03 1499.05,923.03 C1498.45,922.26 1497.73,918.83 1498.04,918.27 C1498.47,917.57 1502.15,912.19 1502.70,911.84 C1502.70,911.84 1502.50,910.47 1502.50,910.47 C1502.50,910.47 1498.44,907.99 1498.44,907.99 C1497.71,906.72 1498.10,904.10 1498.31,903.21 C1498.35,903.05 1499.77,898.90 1499.65,898.61 C1499.48,898.23 1499.27,897.68 1499.08,897.11 C1498.00,897.01 1497.91,893.21 1497.94,892.81 C1498.08,891.41 1499.52,888.38 1500.12,887.50 C1501.16,885.93 1496.19,880.72 1494.85,880.35 C1493.83,880.07 1492.27,879.36 1492.11,879.27 C1491.15,878.66 1490.99,873.12 1490.97,872.48 C1490.26,871.57 1487.97,870.51 1487.19,869.20 C1486.67,868.31 1485.07,859.35 1485.08,858.87 C1485.10,858.19 1485.86,854.46 1486.18,854.27 C1487.16,854.29 1489.31,850.64 1493.69,840.92 C1494.28,839.97 1494.41,837.98 1494.42,837.91 C1494.78,836.15 1502.78,829.64 1502.90,829.56 C1502.90,828.41 1502.90,826.11 1502.90,824.97 C1502.91,822.61 1502.20,819.77 1502.13,819.31 C1502.10,819.12 1502.01,816.96 1501.49,816.50 C1501.16,816.22 1499.19,815.03 1498.98,814.69 C1497.92,813.17 1498.15,809.99 1498.17,809.91 C1498.98,807.73 1503.06,806.93 1503.40,806.82 C1504.45,805.17 1506.19,803.10 1506.18,802.34 C1506.10,800.34 1499.48,797.71 1499.21,797.51 C1498.44,796.91 1498.22,795.36 1498.38,794.63 C1498.51,794.09 1500.12,792.39 1500.49,792.16 C1502.39,791.02 1505.33,793.03 1506.28,792.98 C1507.82,792.87 1509.75,791.63 1509.93,790.18 C1510.13,788.32 1506.91,782.34 1506.67,780.67 C1505.33,772.96 1504.58,766.00 1504.91,764.30 C1505.08,763.38 1507.01,762.02 1507.79,760.87 C1509.00,758.86 1509.11,758.00 1509.15,755.96 C1509.16,754.50 1508.62,752.04 1508.26,750.68 C1508.10,749.73 1508.57,747.12 1509.39,746.01 C1511.96,742.61 1518.33,740.85 1518.64,740.90 C1518.64,740.90 1520.21,741.76 1520.21,741.76 C1520.21,741.76 1521.35,741.89 1521.35,741.89 C1522.49,741.72 1527.38,741.15 1527.49,741.12 C1530.90,740.29 1533.96,737.29 1533.66,736.42 C1533.65,736.39 1532.47,732.80 1532.68,732.72 C1536.70,731.98 1541.91,730.39 1542.56,729.98 C1544.87,728.48 1550.57,725.69 1551.71,724.44 C1552.39,723.67 1554.74,721.22 1554.85,721.13 C1556.33,721.11 1557.03,721.22 1557.44,722.03 C1557.50,722.16 1558.16,723.58 1558.97,723.60 C1559.39,723.61 1560.80,724.18 1561.34,723.94 C1561.42,723.90 1564.42,722.08 1565.84,721.46 C1567.45,720.77 1570.99,720.47 1571.33,720.61 C1572.47,721.11 1575.19,722.38 1576.13,722.70 C1577.05,723.00 1579.96,723.45 1581.27,722.95 C1581.80,722.74 1584.48,721.28 1585.14,720.43 C1586.89,718.17 1586.44,714.17 1586.45,713.98 C1588.95,714.06 1590.78,713.60 1592.04,712.38 C1592.28,712.14 1593.60,709.37 1594.15,708.95 C1594.15,708.95 1595.43,708.01 1595.43,708.01 C1595.82,708.21 1598.78,710.03 1600.19,712.40 C1600.57,713.05 1603.23,720.86 1604.75,722.51 C1605.72,723.41 1607.23,724.93 1608.03,727.16 C1608.91,729.59 1611.56,733.56 1612.45,736.59 C1612.86,737.91 1614.18,741.38 1614.28,741.47 C1612.25,741.70 1609.49,741.11 1609.37,741.24 C1608.86,741.89 1609.53,743.52 1610.83,745.05 C1610.94,745.18 1614.18,747.97 1615.37,749.02 C1616.40,750.11 1617.63,752.48 1618.02,753.61 C1618.02,753.61 1614.05,752.64 1614.05,752.64 C1613.99,753.77 1613.87,756.26 1613.82,757.62 C1613.75,759.74 1613.97,760.47 1615.18,762.26 C1616.44,764.16 1621.15,767.63 1622.62,769.04 C1623.45,769.82 1625.48,773.47 1625.69,773.72 C1626.09,774.17 1629.57,776.53 1629.89,777.03 C1630.18,777.49 1631.02,778.79 1631.00,778.90 C1630.63,780.16 1629.33,781.12 1628.25,781.19 C1627.31,782.21 1627.83,784.96 1628.25,786.36 C1628.59,787.46 1632.28,794.56 1632.95,796.08 C1634.21,798.92 1635.11,804.07 1635.09,806.55 C1635.08,808.86 1635.15,811.37 1634.10,811.94 C1632.98,812.53 1632.68,817.01 1632.67,817.20 C1632.34,821.99 1631.34,824.96 1631.37,827.45 C1631.38,828.10 1631.44,828.40 1631.58,828.54 C1631.58,828.54 1635.33,824.28 1635.33,824.28 C1635.33,824.28 1636.49,826.93 1636.49,826.93 C1636.49,826.93 1636.49,831.51 1636.49,831.51 C1640.03,832.10 1639.88,836.69 1639.94,837.71 C1640.53,837.86 1641.59,838.87 1641.63,839.42 C1641.63,839.47 1641.66,841.47 1641.52,842.33 C1640.24,843.18 1636.80,845.24 1636.37,845.61 C1635.18,846.62 1632.13,847.13 1631.53,847.31 C1631.35,847.36 1630.63,847.62 1629.95,847.60 C1629.95,847.60 1630.30,851.47 1630.30,851.47 C1632.44,851.53 1633.44,851.13 1635.09,850.15 C1635.29,850.03 1637.26,848.84 1637.55,848.70 C1639.21,847.88 1640.44,848.63 1640.94,848.76 C1640.94,848.76 1641.41,851.25 1641.41,851.25 C1641.41,851.25 1639.01,853.19 1639.01,853.19 C1639.01,853.19 1639.18,856.74 1639.18,856.74 C1639.18,856.74 1638.01,859.10 1638.01,859.10 C1638.01,859.10 1638.01,860.26 1638.01,860.26 C1638.01,860.26 1633.75,859.26 1633.75,859.26 C1633.75,859.26 1632.58,860.06 1632.58,860.06 C1632.58,860.06 1631.00,858.29 1631.00,858.29 C1630.33,858.20 1629.29,858.74 1628.72,859.68 C1627.89,861.16 1627.77,862.51 1627.73,863.00 C1627.73,863.00 1627.61,864.39 1627.61,864.39 C1627.61,864.39 1633.10,864.13 1633.10,864.13 C1633.37,864.34 1633.79,865.97 1633.77,866.58 C1633.73,867.45 1632.83,867.85 1632.52,867.82 C1632.52,867.82 1632.29,872.79 1632.29,872.79 C1632.29,872.79 1632.87,876.47 1632.87,876.47 C1631.91,876.50 1630.48,875.77 1630.06,875.31 C1629.87,875.10 1629.09,873.69 1628.25,873.69 C1628.25,873.69 1626.91,877.83 1626.91,877.83 C1626.91,877.83 1626.56,880.61 1626.56,880.61 C1626.56,880.61 1630.82,881.54 1630.82,881.54 C1630.82,881.54 1631.35,882.93 1631.35,882.93 C1631.35,882.93 1628.25,883.87 1628.25,883.87 C1627.67,885.67 1628.72,887.00 1629.25,887.52 C1629.25,887.52 1628.37,889.97 1628.37,889.97 C1627.88,890.00 1626.23,889.64 1625.33,890.39 C1625.15,890.47 1624.87,890.64 1624.45,891.07 C1624.45,891.07 1622.82,893.27 1622.82,893.27 C1621.80,893.82 1620.46,894.75 1620.40,895.35 C1620.36,895.83 1620.10,896.98 1620.13,897.34 C1620.13,897.34 1625.86,898.37 1625.86,898.37 C1625.86,898.37 1625.80,900.82 1625.80,900.82 C1625.80,900.82 1622.11,901.86 1622.11,901.86 C1622.11,901.86 1624.45,905.35 1624.45,905.35 C1624.45,905.35 1624.16,906.44 1624.16,906.44 C1624.16,906.44 1615.10,903.80 1615.10,903.80 C1615.10,903.80 1621.00,911.29 1621.00,911.29 C1621.00,911.29 1616.74,911.64 1616.74,911.64 C1616.74,911.64 1618.14,915.23 1618.14,915.23 C1618.14,915.23 1614.05,915.68 1614.05,915.68 C1613.92,916.53 1613.77,916.66 1611.36,914.84 C1611.36,914.84 1610.54,922.66 1610.54,922.66 C1610.54,922.66 1606.10,917.42 1606.10,917.42 C1606.10,917.42 1606.33,918.85 1606.33,918.85 C1606.33,918.85 1604.11,916.97 1604.11,916.97 C1604.11,916.97 1604.11,925.05 1604.11,925.05 C1602.84,925.05 1601.67,924.74 1601.39,924.25 C1601.07,923.66 1599.80,919.62 1599.14,918.97 C1599.07,918.91 1596.40,917.78 1596.22,917.49 C1596.22,917.49 1594.06,917.42 1594.06,917.42 C1594.05,918.41 1594.46,919.59 1594.89,919.96 C1595.49,920.46 1596.93,921.41 1597.18,921.67 C1597.44,921.97 1597.93,923.46 1598.28,924.81 C1597.94,924.85 1597.28,924.84 1597.18,924.92 C1597.05,925.04 1596.69,925.80 1596.70,925.76 C1596.70,925.76 1593.80,924.50 1593.80,924.50 C1593.80,924.50 1590.76,922.30 1590.76,922.30 C1590.76,922.30 1589.91,921.66 1589.91,921.66 C1587.97,920.49 1584.39,920.10 1584.09,920.11 C1583.30,920.14 1580.94,919.26 1579.93,918.70 C1578.49,918.23 1577.84,921.33 1578.09,922.40 C1578.12,922.51 1579.35,927.34 1579.37,927.83 C1579.41,928.96 1578.53,931.93 1578.09,932.64 C1577.25,933.97 1575.92,934.95 1574.37,935.62 C1575.39,936.88 1576.51,939.10 1576.01,940.61 C1575.75,941.37 1575.23,942.13 1574.91,942.46 C1574.73,943.59 1574.40,947.31 1574.37,947.92 C1574.31,949.70 1573.17,951.64 1572.50,952.27 C1572.00,952.73 1571.20,952.71 1569.75,952.71 C1569.76,951.34 1570.33,948.18 1569.18,947.16 C1568.53,946.61 1565.60,948.04 1564.22,947.48 C1563.28,946.96 1562.16,946.77 1561.86,946.30 C1561.32,945.49 1561.03,945.19 1560.74,945.35 C1560.50,945.49 1556.45,947.84 1555.85,949.79 C1555.57,950.73 1555.15,953.07 1554.14,954.19 C1554.14,954.19 1552.20,953.82 1552.20,953.82 C1551.81,954.15 1550.75,954.35 1549.99,955.47 C1549.92,955.57 1549.83,955.64 1549.72,955.67 C1548.62,955.63 1548.20,955.46 1547.68,954.80 C1545.18,951.56 1543.62,950.38 1543.29,949.79 Z"/>
</g>
</svg>
