<?xml version="1.0" encoding="UTF-8" standalone="no"?>
<!DOCTYPE svg PUBLIC "-//W3C//DTD SVG 1.1//EN" "http://www.w3.org/Graphics/SVG/1.1/DTD/svg11.dtd">
<svg width="480.00" height="480.00" viewBox="0.00 0.00 2000.00 2000.00" xmlns="http://www.w3.org/2000/svg" xmlns:xlink="http://www.w3.org/1999/xlink" fill="rgba(255, 255, 255, 0)"  stroke="rgb(0, 0, 0)" stroke-width="3.00" stroke-opacity="1.00" stroke-linejoin="round" id="svgId">
<g stroke-linecap="round" id="miyagi">
<path d="M1521.73,1034.79 C1521.30,1035.95 1518.52,1043.17 1518.30,1044.59 C1518.12,1045.79 1516.01,1056.75 1516.01,1060.02 C1516.09,1064.15 1516.34,1068.09 1517.14,1069.94 C1517.87,1071.53 1519.26,1077.99 1518.92,1077.81 C1518.92,1077.81 1518.37,1078.68 1518.37,1078.68 C1518.37,1078.68 1508.44,1081.69 1508.44,1081.69 C1508.53,1081.96 1509.31,1085.45 1509.19,1087.26 C1509.03,1089.31 1508.01,1091.76 1506.79,1092.18 C1503.14,1093.39 1498.75,1096.41 1498.12,1097.26 C1495.71,1097.74 1492.79,1097.64 1492.46,1097.59 C1488.59,1096.97 1487.55,1087.59 1487.54,1084.41 C1487.53,1082.83 1488.68,1081.10 1488.59,1080.95 C1487.84,1080.59 1485.12,1079.01 1483.90,1078.46 C1481.75,1077.87 1477.21,1077.16 1475.42,1077.49 C1473.84,1077.79 1471.47,1078.88 1469.89,1079.72 C1469.37,1079.88 1466.74,1079.20 1464.96,1078.07 C1464.96,1078.07 1465.81,1073.38 1465.81,1073.38 C1465.51,1073.30 1460.99,1073.21 1460.51,1072.96 C1459.70,1072.50 1457.66,1070.48 1456.37,1070.70 C1456.29,1070.72 1452.52,1071.99 1451.77,1072.10 C1450.60,1072.25 1446.81,1071.13 1446.51,1071.07 C1446.26,1071.03 1442.84,1070.37 1442.85,1069.74 C1442.85,1069.74 1443.68,1068.67 1443.68,1068.67 C1443.68,1068.67 1444.13,1067.35 1444.13,1067.35 C1444.05,1067.28 1442.51,1061.74 1441.70,1057.41 C1441.64,1057.12 1441.80,1056.95 1442.24,1056.64 C1442.24,1056.64 1443.55,1055.91 1443.55,1055.91 C1444.58,1055.84 1451.17,1057.08 1451.38,1057.06 C1453.29,1056.81 1455.10,1056.03 1456.34,1054.81 C1458.75,1052.42 1461.55,1048.55 1462.10,1045.57 C1462.30,1044.43 1463.45,1041.79 1463.72,1040.77 C1463.96,1039.81 1464.39,1032.76 1464.96,1030.63 C1465.17,1029.25 1466.25,1025.50 1466.63,1025.04 C1467.20,1024.38 1468.80,1018.99 1469.33,1018.32 C1469.33,1018.32 1470.03,1017.03 1470.03,1017.03 C1470.36,1015.86 1470.89,1014.17 1471.66,1012.93 C1472.34,1011.84 1474.81,1010.17 1475.21,1009.63 C1476.26,1008.26 1477.11,1006.80 1477.36,1004.64 C1477.37,1004.52 1478.65,1000.87 1479.46,1000.21 C1479.46,1000.21 1481.89,999.83 1481.89,999.83 C1480.78,998.19 1476.92,990.74 1474.19,986.94 C1472.64,984.59 1475.17,980.80 1475.44,980.31 C1476.03,979.19 1474.47,976.49 1473.40,975.63 C1472.81,974.94 1472.95,973.32 1472.88,972.49 C1472.71,970.14 1478.72,970.21 1481.29,969.76 C1481.31,969.54 1482.36,966.11 1482.28,964.64 C1482.12,963.01 1481.90,960.55 1481.89,958.93 C1481.89,957.48 1482.96,955.37 1482.84,953.88 C1482.50,953.88 1478.41,945.28 1477.72,944.53 C1476.92,943.62 1472.52,939.24 1472.15,938.86 C1472.15,938.86 1472.82,936.22 1472.82,936.22 C1473.18,936.02 1474.52,936.29 1478.78,936.47 C1482.15,936.58 1487.00,934.25 1487.83,933.02 C1488.26,932.37 1490.08,930.20 1490.26,929.75 C1490.26,929.75 1497.36,923.73 1497.36,923.73 C1497.36,923.73 1503.47,923.59 1503.47,923.59 C1505.21,925.14 1508.05,927.92 1510.93,929.82 C1517.53,934.17 1521.46,936.48 1521.59,936.47 C1521.91,936.97 1523.36,936.94 1525.57,937.48 C1526.44,937.69 1532.16,934.37 1533.80,934.35 C1536.58,934.34 1544.65,942.14 1544.76,942.42 C1543.57,942.62 1537.89,944.41 1537.46,945.03 C1537.37,945.17 1538.35,948.22 1540.06,948.36 C1540.06,948.36 1541.17,948.65 1541.17,948.65 C1541.17,948.65 1542.26,949.10 1542.26,949.10 C1542.26,949.10 1543.23,949.73 1543.23,949.73 C1543.23,949.73 1543.36,949.57 1543.36,949.57 C1543.68,950.37 1546.04,952.36 1546.89,953.67 C1548.01,955.40 1548.64,955.63 1549.72,955.67 C1550.02,955.50 1550.54,954.43 1551.10,954.29 C1551.31,954.23 1551.88,954.10 1552.20,953.82 C1552.20,953.82 1554.14,954.19 1554.14,954.19 C1555.21,952.99 1555.66,950.13 1556.03,949.32 C1556.79,947.67 1559.23,946.43 1560.32,945.63 C1560.80,945.28 1561.24,945.35 1561.60,945.92 C1562.17,946.80 1563.21,946.92 1564.22,947.48 C1565.55,948.02 1568.62,946.69 1569.18,947.16 C1570.33,948.20 1569.76,951.28 1569.75,952.71 C1571.14,952.71 1572.01,952.73 1572.50,952.27 C1573.77,951.04 1574.36,947.85 1574.43,947.30 C1574.78,944.78 1574.76,943.36 1574.91,942.46 C1575.85,941.43 1576.42,938.67 1575.55,937.26 C1575.06,936.49 1574.53,935.81 1574.37,935.62 C1576.18,934.85 1577.75,933.39 1578.41,932.09 C1578.73,931.44 1579.46,928.55 1579.33,927.29 C1579.09,925.19 1578.05,922.38 1578.06,921.85 C1578.09,919.97 1579.24,918.23 1580.39,918.93 C1582.31,920.18 1587.13,919.98 1589.91,921.66 C1589.91,921.66 1590.75,922.31 1590.75,922.31 C1590.75,922.31 1592.99,924.11 1592.99,924.11 C1592.99,924.11 1594.23,925.17 1594.23,925.17 C1594.23,925.17 1595.97,928.45 1595.97,928.45 C1595.97,928.45 1598.50,937.25 1598.50,937.25 C1598.50,937.25 1596.16,937.25 1596.16,937.25 C1596.16,937.25 1593.24,936.48 1593.24,936.48 C1593.24,936.48 1593.65,939.87 1593.65,939.87 C1593.65,939.87 1592.54,940.68 1592.54,940.68 C1592.54,940.68 1591.25,943.84 1591.25,943.84 C1591.25,943.84 1590.02,945.72 1590.02,945.72 C1590.02,945.72 1589.38,950.24 1589.38,950.24 C1589.38,950.24 1587.63,948.11 1587.63,948.11 C1587.63,948.11 1585.29,948.75 1585.29,948.75 C1585.29,948.75 1582.36,951.72 1582.36,951.72 C1582.36,951.72 1582.36,953.08 1582.36,953.08 C1582.36,953.08 1586.81,956.70 1586.81,956.70 C1587.19,957.06 1586.63,959.50 1587.27,961.67 C1587.29,961.71 1587.67,962.64 1587.63,962.90 C1587.63,962.90 1586.63,963.29 1586.63,963.29 C1586.63,963.29 1583.59,963.09 1583.59,963.09 C1583.59,963.09 1582.54,964.64 1582.54,964.64 C1582.05,964.97 1580.97,965.68 1580.44,966.42 C1580.16,966.79 1578.25,965.21 1578.04,965.03 C1578.04,965.03 1576.64,965.32 1576.64,965.32 C1576.64,965.32 1582.71,972.01 1582.71,972.01 C1582.71,972.01 1585.29,972.30 1585.29,972.30 C1585.29,972.30 1583.24,975.37 1583.24,975.37 C1583.24,975.37 1579.32,979.89 1579.32,979.89 C1579.32,979.89 1583.30,985.44 1583.30,985.44 C1583.30,985.44 1584.23,986.35 1584.23,986.35 C1584.71,988.11 1584.70,991.66 1584.12,994.49 C1584.01,995.02 1584.97,1000.04 1584.99,1000.14 C1585.02,1000.24 1585.10,1000.42 1585.23,1000.69 C1585.12,1000.79 1584.02,1004.47 1583.53,1004.89 C1582.85,1005.44 1582.01,1005.84 1581.66,1005.92 C1581.66,1005.92 1581.84,1003.01 1581.84,1003.01 C1581.84,1003.01 1580.14,1002.24 1580.14,1002.24 C1580.14,1002.24 1580.38,998.56 1580.38,998.56 C1580.22,998.57 1577.00,1001.06 1577.34,1002.53 C1577.38,1002.73 1578.34,1005.98 1578.39,1006.05 C1580.45,1007.52 1581.08,1007.84 1582.77,1007.87 C1583.65,1007.90 1584.73,1008.18 1585.35,1008.70 C1585.35,1008.70 1584.47,1012.06 1584.47,1012.06 C1584.47,1012.06 1584.23,1015.16 1584.23,1015.16 C1584.23,1015.16 1585.99,1018.45 1585.99,1018.45 C1585.99,1018.45 1588.09,1018.77 1588.09,1018.77 C1588.09,1018.77 1589.38,1021.29 1589.38,1021.29 C1589.38,1021.29 1591.48,1023.10 1591.48,1023.10 C1591.48,1023.10 1590.26,1023.04 1590.26,1023.04 C1588.72,1024.87 1585.10,1024.84 1584.70,1024.85 C1584.70,1024.85 1583.42,1022.42 1583.42,1022.42 C1583.42,1022.42 1583.42,1023.75 1583.42,1023.75 C1583.42,1023.75 1580.67,1027.40 1580.67,1027.40 C1580.67,1027.40 1579.09,1024.46 1579.09,1024.46 C1579.11,1024.46 1575.66,1024.17 1574.59,1023.17 C1574.34,1022.93 1573.99,1022.43 1573.71,1022.00 C1573.71,1022.00 1574.94,1016.93 1574.94,1016.93 C1574.94,1016.93 1573.71,1018.13 1573.71,1018.13 C1573.71,1018.13 1570.91,1012.25 1570.91,1012.25 C1571.49,1011.24 1571.47,1010.91 1570.64,1010.20 C1570.00,1009.69 1569.82,1009.57 1569.50,1009.47 C1569.50,1009.47 1568.45,1006.40 1568.45,1006.40 C1568.45,1006.40 1565.29,1005.98 1565.29,1005.98 C1565.29,1005.98 1564.30,1006.53 1564.30,1006.53 C1564.30,1006.53 1563.89,1005.21 1563.89,1005.21 C1563.89,1005.21 1561.96,1005.27 1561.96,1005.27 C1561.96,1005.27 1560.68,1006.76 1560.68,1006.76 C1560.68,1006.76 1559.39,1007.82 1559.39,1007.82 C1559.39,1007.82 1556.41,1006.24 1556.41,1006.24 C1556.41,1006.24 1553.19,1005.34 1553.19,1005.34 C1553.19,1005.34 1549.46,1008.55 1549.46,1008.55 C1549.46,1008.55 1544.26,1012.01 1544.26,1012.01 C1545.59,1013.42 1546.35,1014.26 1546.52,1014.55 C1546.56,1014.62 1545.68,1016.67 1545.75,1017.09 C1545.75,1017.09 1543.80,1017.95 1543.80,1017.95 C1543.80,1017.95 1537.73,1014.53 1537.73,1014.53 C1537.76,1014.21 1538.05,1011.20 1538.26,1011.19 C1539.27,1011.16 1540.35,1011.50 1541.28,1011.13 C1541.67,1010.98 1542.01,1010.46 1542.28,1009.56 C1541.24,1009.54 1540.21,1009.52 1539.17,1009.50 C1539.11,1009.50 1539.29,1009.48 1539.36,1009.48 C1539.36,1009.48 1536.89,1009.67 1536.89,1009.67 C1536.89,1009.67 1532.44,1010.83 1532.44,1010.83 C1532.44,1010.83 1531.45,1011.09 1531.45,1011.09 C1531.45,1011.09 1529.40,1012.96 1529.40,1012.96 C1529.40,1012.96 1528.93,1016.58 1528.93,1016.58 C1528.93,1016.58 1529.81,1017.42 1529.81,1017.42 C1529.81,1017.42 1533.44,1018.29 1533.44,1018.29 C1533.44,1018.29 1534.18,1019.86 1534.18,1019.86 C1534.18,1019.86 1535.05,1020.92 1535.05,1020.92 C1535.05,1020.92 1535.12,1022.51 1535.12,1022.51 C1535.12,1022.51 1532.02,1024.92 1532.02,1024.92 C1532.02,1024.92 1530.95,1025.28 1530.95,1025.28 C1530.95,1025.28 1529.72,1025.75 1529.72,1025.75 C1529.72,1025.75 1528.09,1026.79 1528.09,1026.79 C1527.66,1027.12 1522.42,1032.94 1521.73,1034.79 Z"/>
</g>
</svg>
