<?xml version="1.0" encoding="UTF-8" standalone="no"?>
<!DOCTYPE svg PUBLIC "-//W3C//DTD SVG 1.1//EN" "http://www.w3.org/Graphics/SVG/1.1/DTD/svg11.dtd">
<svg width="480.00" height="480.00" viewBox="0.00 0.00 2000.00 2000.00" xmlns="http://www.w3.org/2000/svg" xmlns:xlink="http://www.w3.org/1999/xlink" fill="rgba(255, 255, 255, 0)"  stroke="rgb(0, 0, 0)" stroke-width="3.00" stroke-opacity="1.00" stroke-linejoin="round" id="svgId">
<g stroke-linecap="round" id="akita">
<path d="M1417.39,813.74 C1418.74,823.85 1416.90,839.06 1415.65,844.85 C1415.33,846.48 1413.68,856.83 1413.42,860.71 C1413.26,862.99 1411.16,869.42 1411.15,869.66 C1411.14,869.90 1408.78,874.20 1408.75,874.40 C1407.67,875.65 1407.09,876.07 1404.89,876.21 C1403.91,876.28 1403.30,876.35 1403.19,876.54 C1403.10,876.73 1401.53,880.89 1401.32,882.25 C1401.17,883.25 1399.13,886.32 1397.82,888.36 C1397.81,888.37 1397.36,893.42 1397.41,894.43 C1397.41,894.43 1396.72,898.23 1396.72,898.23 C1396.72,898.23 1396.04,900.56 1396.04,900.56 C1396.14,900.85 1399.86,904.06 1403.03,904.09 C1403.62,904.08 1407.14,903.85 1408.27,903.30 C1410.52,902.17 1413.24,900.16 1413.54,899.95 C1413.73,899.96 1415.39,900.64 1415.85,900.82 C1416.52,901.10 1418.21,903.24 1418.59,903.55 C1418.99,903.86 1429.94,911.44 1430.22,911.99 C1430.73,913.00 1432.53,913.00 1433.70,912.13 C1434.58,912.89 1435.85,914.73 1436.65,915.14 C1437.40,915.47 1440.52,914.09 1440.61,914.06 C1441.19,913.89 1443.78,914.06 1447.94,914.57 C1448.98,914.69 1450.38,916.64 1450.44,916.94 C1450.44,916.94 1453.36,917.70 1453.36,917.70 C1454.66,919.46 1455.82,920.61 1456.01,921.24 C1456.35,922.30 1457.75,923.06 1459.30,922.86 C1459.49,922.84 1460.53,922.50 1460.70,922.56 C1462.12,923.09 1462.52,927.84 1463.11,928.88 C1463.44,929.46 1464.54,930.96 1464.57,931.10 C1464.57,931.10 1465.37,932.64 1465.37,932.64 C1465.37,932.64 1466.59,933.76 1466.59,933.76 C1466.97,934.51 1474.44,936.11 1474.71,936.12 C1475.35,936.14 1480.67,936.67 1481.68,936.47 C1483.75,936.04 1486.02,934.47 1486.86,933.91 C1487.70,933.28 1490.14,930.11 1490.31,929.81 C1490.31,929.81 1492.53,927.40 1492.53,927.40 C1492.53,927.40 1498.58,922.16 1498.58,922.16 C1498.25,921.34 1497.90,920.05 1497.84,919.79 C1497.53,918.26 1502.03,912.29 1502.70,911.84 C1502.70,911.84 1502.50,910.47 1502.50,910.47 C1502.50,910.47 1498.44,907.99 1498.44,907.99 C1497.93,907.12 1497.77,906.46 1498.14,904.34 C1498.33,903.04 1498.76,902.47 1499.01,901.69 C1499.57,899.96 1499.94,899.29 1499.35,897.88 C1499.27,897.69 1499.18,897.43 1499.08,897.11 C1499.03,897.10 1497.96,896.43 1497.94,894.77 C1497.94,892.83 1498.22,891.20 1498.58,890.39 C1499.78,887.68 1500.23,887.44 1500.08,885.58 C1499.99,884.60 1496.25,880.87 1495.33,880.51 C1494.84,880.32 1491.41,878.88 1491.14,877.88 C1491.04,877.45 1491.03,874.33 1490.97,872.48 C1490.48,871.84 1488.76,870.88 1488.36,870.66 C1486.63,869.68 1486.45,864.93 1485.68,861.17 C1485.65,861.03 1484.98,858.87 1485.08,858.34 C1485.64,855.39 1485.75,854.56 1486.18,854.27 C1486.60,854.28 1489.38,851.23 1490.00,849.38 C1491.84,843.93 1493.93,840.52 1494.42,837.91 C1494.61,837.00 1498.01,832.93 1502.90,829.56 C1502.90,821.85 1502.18,819.76 1502.09,818.05 C1502.02,816.73 1498.50,814.60 1498.01,813.06 C1497.96,812.91 1498.11,810.08 1498.17,809.91 C1498.75,808.48 1503.04,806.95 1503.40,806.82 C1504.20,805.55 1506.03,803.28 1506.15,803.03 C1506.45,802.31 1504.86,799.66 1500.39,798.05 C1498.99,797.54 1498.13,795.95 1498.38,794.63 C1498.48,794.14 1500.12,792.39 1500.49,792.16 C1502.39,791.02 1505.36,793.04 1506.28,792.98 C1507.98,792.83 1509.77,791.46 1509.93,790.18 C1510.15,787.76 1507.05,783.10 1506.75,781.23 C1506.59,780.21 1505.38,772.55 1504.91,768.94 C1504.55,764.67 1505.41,763.15 1506.92,761.85 C1507.51,761.26 1508.91,759.21 1508.93,759.15 C1509.69,756.47 1508.22,749.91 1508.32,748.64 C1508.41,747.58 1510.59,744.37 1512.58,743.22 C1514.77,742.02 1518.63,740.91 1518.64,740.91 C1518.49,740.53 1517.97,739.62 1516.25,734.55 C1515.61,732.63 1517.26,728.14 1517.33,726.93 C1517.42,725.51 1519.31,723.20 1519.57,722.71 C1520.43,721.09 1522.43,720.89 1522.61,720.82 C1522.74,720.28 1522.02,717.19 1521.50,715.54 C1521.46,715.41 1518.98,712.93 1518.86,712.84 C1517.76,711.97 1510.08,711.99 1508.57,710.80 C1508.34,710.61 1507.53,709.84 1506.93,709.33 C1506.14,708.61 1507.45,701.53 1507.19,699.52 C1506.49,700.08 1506.08,700.71 1505.73,700.90 C1505.00,701.29 1500.89,702.53 1500.34,703.21 C1500.31,703.26 1500.25,703.41 1500.09,703.57 C1500.09,703.57 1500.32,708.24 1500.32,708.24 C1500.32,708.24 1499.03,709.06 1499.03,709.06 C1498.64,709.22 1496.29,709.19 1496.14,709.26 C1495.67,709.47 1493.02,711.30 1493.09,711.37 C1493.09,711.37 1493.55,713.05 1493.55,713.05 C1493.08,713.21 1490.12,714.07 1490.05,714.09 C1489.53,714.26 1487.13,714.43 1486.83,715.11 C1486.81,715.17 1486.74,715.29 1486.63,715.47 C1485.80,715.86 1481.85,714.97 1481.32,715.15 C1480.96,715.27 1475.39,717.07 1474.12,716.21 C1474.12,716.21 1476.13,712.48 1476.13,712.48 C1474.33,712.54 1467.91,711.80 1465.31,710.59 C1463.55,709.75 1463.28,709.26 1462.92,707.34 C1462.71,706.25 1460.57,703.57 1460.36,703.36 C1459.85,702.88 1456.29,702.60 1454.49,702.80 C1453.06,702.99 1449.45,705.28 1449.23,705.74 C1449.19,706.65 1450.02,709.99 1449.03,710.03 C1445.21,710.09 1438.28,709.53 1435.52,709.10 C1433.66,708.86 1430.61,709.75 1430.11,709.87 C1429.85,709.93 1427.77,710.92 1427.72,710.92 C1424.99,711.03 1420.89,707.10 1420.22,705.79 C1417.46,703.05 1414.91,710.16 1413.48,710.26 C1412.43,710.31 1410.63,709.64 1409.00,709.65 C1409.00,709.65 1405.86,712.70 1405.86,712.70 C1405.86,712.70 1406.33,714.11 1406.33,714.11 C1407.51,715.84 1409.82,717.43 1410.37,718.13 C1410.98,718.92 1413.44,723.85 1413.82,727.43 C1414.02,729.44 1413.98,732.79 1413.21,734.95 C1412.67,736.45 1412.43,737.37 1412.36,738.12 C1412.36,738.12 1403.71,765.13 1403.71,765.13 C1403.71,765.13 1401.49,769.19 1401.49,769.19 C1401.49,769.19 1394.24,776.82 1394.24,776.82 C1392.37,776.98 1387.38,775.95 1386.76,775.85 C1384.92,775.52 1381.63,772.90 1381.50,772.94 C1381.50,772.94 1378.81,771.65 1378.81,771.65 C1378.81,771.65 1377.40,770.03 1377.40,770.03 C1376.88,771.78 1376.81,779.80 1377.29,782.53 C1377.54,783.98 1379.70,787.43 1379.92,787.64 C1380.39,788.07 1381.58,788.48 1382.02,789.45 C1382.53,790.61 1382.62,791.17 1382.61,792.80 C1382.71,792.86 1384.38,794.75 1385.18,795.00 C1385.93,795.10 1389.70,796.76 1391.14,795.90 C1391.35,795.78 1391.89,795.34 1392.37,795.10 C1392.37,795.10 1394.47,793.64 1394.47,793.64 C1394.47,793.64 1396.11,791.22 1396.11,791.22 C1396.11,791.22 1397.51,789.15 1397.51,789.15 C1400.25,789.09 1402.74,789.75 1404.88,790.96 C1408.19,792.87 1413.82,798.59 1414.35,799.81 C1414.35,799.81 1414.58,802.91 1414.58,802.91 C1414.69,803.04 1414.65,804.41 1414.76,804.95 C1414.82,805.26 1416.56,808.67 1416.69,809.02 C1417.39,811.86 1417.39,813.77 1417.39,813.74 Z"/>
</g>
</svg>
