<?xml version="1.0" encoding="UTF-8" standalone="no"?>
<!DOCTYPE svg PUBLIC "-//W3C//DTD SVG 1.1//EN" "http://www.w3.org/Graphics/SVG/1.1/DTD/svg11.dtd">
<svg width="480.00" height="480.00" viewBox="0.00 0.00 2000.00 2000.00" xmlns="http://www.w3.org/2000/svg" xmlns:xlink="http://www.w3.org/1999/xlink" fill="rgba(255, 255, 255, 0)"  stroke="rgb(0, 0, 0)" stroke-width="3.00" stroke-opacity="1.00" stroke-linejoin="round" id="svgId">
<g stroke-linecap="round" id="yamagata">
<path d="M1469.22,1018.37 C1469.28,1018.32 1470.77,1014.42 1473.94,1011.26 C1476.79,1008.42 1477.66,1003.70 1477.94,1002.84 C1478.47,1001.21 1479.05,1000.52 1479.46,1000.21 C1479.46,1000.21 1481.89,999.83 1481.89,999.83 C1481.82,999.81 1473.25,985.60 1473.46,984.53 C1473.75,983.24 1475.82,979.16 1475.77,979.02 C1475.25,977.48 1471.66,973.85 1472.91,972.24 C1473.58,971.43 1474.50,970.93 1476.47,970.20 C1476.60,970.16 1480.56,969.89 1481.29,969.76 C1481.31,969.54 1482.45,965.86 1482.08,962.80 C1481.59,958.72 1482.89,954.48 1482.84,953.88 C1482.84,953.88 1478.18,945.02 1478.18,945.02 C1478.18,945.02 1477.27,943.99 1477.27,943.99 C1477.27,943.99 1476.11,942.71 1476.11,942.71 C1476.11,942.71 1474.95,941.59 1474.95,941.59 C1474.95,941.59 1473.58,940.26 1473.58,940.26 C1473.58,940.26 1472.61,939.31 1472.61,939.31 C1472.61,939.31 1471.64,936.53 1471.64,936.53 C1471.64,936.53 1470.05,934.72 1470.05,934.72 C1470.05,934.72 1468.73,934.12 1468.73,934.12 C1468.73,934.12 1467.36,933.36 1467.36,933.36 C1467.36,933.36 1465.73,931.63 1465.73,931.63 C1465.73,931.63 1463.96,930.19 1463.96,930.19 C1463.96,930.19 1463.11,928.88 1463.11,928.88 C1463.11,928.88 1462.71,927.44 1462.71,927.44 C1462.71,927.44 1462.41,926.09 1462.41,926.09 C1462.37,925.77 1462.22,924.16 1461.19,922.91 C1460.76,922.43 1459.18,922.93 1457.93,922.86 C1457.05,922.80 1454.40,919.10 1453.36,917.70 C1453.36,917.70 1450.44,916.94 1450.44,916.94 C1450.38,916.64 1449.53,915.45 1449.31,915.07 C1449.06,914.70 1443.78,914.06 1443.35,914.03 C1441.19,913.89 1438.94,915.10 1438.44,915.22 C1436.51,915.69 1434.58,912.89 1433.70,912.13 C1432.53,913.00 1431.08,913.00 1431.05,912.99 C1430.62,912.79 1429.94,911.44 1429.19,911.00 C1428.10,910.37 1423.12,906.85 1420.94,905.26 C1417.61,902.48 1416.73,901.36 1414.15,899.96 C1414.07,899.92 1413.73,899.96 1413.54,899.95 C1413.13,900.25 1409.00,903.07 1406.93,903.85 C1406.37,904.06 1402.25,904.09 1399.59,903.30 C1399.59,903.30 1396.11,902.51 1396.11,902.51 C1396.11,902.51 1391.80,922.08 1391.80,922.08 C1388.70,922.53 1387.53,926.25 1387.59,926.40 C1387.59,926.40 1388.76,926.86 1388.76,926.86 C1388.76,931.23 1389.43,934.86 1389.34,935.77 C1389.13,937.66 1386.81,942.96 1385.48,945.72 C1385.48,945.72 1374.61,958.38 1374.61,958.38 C1374.61,958.38 1369.93,961.19 1369.93,961.19 C1369.93,961.19 1368.76,961.51 1368.76,961.51 C1368.09,962.58 1367.47,962.60 1367.07,963.25 C1366.74,963.81 1363.36,970.72 1362.27,972.80 C1362.27,972.80 1361.66,974.14 1361.66,974.14 C1361.66,974.14 1361.36,975.36 1361.36,975.36 C1361.36,975.36 1360.71,977.08 1360.71,977.08 C1360.71,977.08 1360.12,979.36 1360.12,979.36 C1360.12,979.36 1359.66,980.36 1359.66,980.36 C1359.66,980.36 1359.12,981.74 1359.12,981.74 C1359.01,982.19 1360.88,983.73 1360.66,983.51 C1360.39,983.22 1360.00,983.08 1359.71,982.82 C1359.57,982.70 1360.95,983.41 1361.02,983.49 C1363.32,986.12 1365.63,988.21 1365.77,988.31 C1365.81,988.34 1371.04,990.91 1372.70,991.00 C1376.37,991.20 1378.91,992.02 1380.21,993.40 C1380.21,993.78 1378.27,997.01 1378.30,998.39 C1378.37,1001.12 1379.80,1008.44 1379.77,1009.87 C1379.77,1010.16 1380.26,1010.97 1381.24,1011.50 C1382.03,1011.89 1391.20,1013.94 1393.62,1015.47 C1399.36,1018.92 1399.98,1023.90 1399.92,1023.92 C1399.42,1024.18 1397.34,1027.46 1397.23,1027.86 C1397.01,1028.77 1392.99,1032.89 1390.09,1034.97 C1389.21,1035.59 1387.38,1035.77 1382.09,1035.46 C1381.60,1035.43 1376.29,1035.65 1375.64,1035.99 C1375.44,1036.53 1373.71,1042.22 1373.95,1042.87 C1374.01,1043.01 1375.42,1045.31 1375.50,1046.22 C1375.65,1048.15 1373.82,1053.71 1373.18,1054.08 C1373.05,1054.80 1373.19,1058.12 1372.88,1058.66 C1372.22,1059.81 1370.46,1062.32 1370.23,1063.18 C1370.19,1063.33 1368.56,1070.89 1368.57,1071.38 C1368.62,1072.84 1370.13,1079.02 1369.75,1078.59 C1370.19,1079.07 1370.21,1080.71 1370.97,1081.74 C1372.46,1083.73 1374.16,1084.76 1375.72,1085.92 C1378.46,1088.03 1382.20,1090.31 1382.64,1090.33 C1382.86,1090.34 1384.83,1090.31 1387.10,1090.25 C1387.71,1090.25 1389.22,1092.09 1389.57,1093.63 C1389.92,1093.75 1393.22,1091.84 1394.36,1091.56 C1395.09,1091.38 1399.77,1091.50 1401.03,1090.92 C1403.05,1089.99 1405.01,1089.97 1405.60,1090.58 C1406.01,1091.05 1406.05,1093.67 1406.08,1093.75 C1406.24,1094.19 1407.61,1097.40 1409.47,1098.97 C1409.47,1098.97 1418.05,1097.21 1418.05,1097.21 C1418.39,1097.46 1420.78,1101.83 1421.44,1102.38 C1421.52,1102.46 1421.78,1102.70 1422.21,1103.12 C1423.63,1103.40 1428.55,1099.52 1428.70,1099.33 C1429.07,1098.88 1429.87,1098.62 1430.02,1098.64 C1431.68,1098.37 1435.72,1102.53 1438.94,1105.46 C1439.21,1105.69 1440.98,1106.46 1441.52,1106.66 C1441.50,1104.51 1440.47,1103.10 1440.23,1102.77 C1439.50,1101.82 1439.62,1099.11 1439.75,1098.70 C1440.42,1098.45 1444.45,1093.93 1444.54,1092.94 C1444.54,1091.65 1444.36,1091.27 1443.77,1090.25 C1443.15,1090.09 1441.49,1089.04 1441.37,1088.44 C1441.10,1086.99 1441.88,1085.91 1442.00,1085.33 C1442.53,1082.46 1442.32,1074.59 1442.08,1073.01 C1441.97,1072.29 1441.97,1071.74 1442.06,1071.32 C1442.06,1071.32 1442.40,1070.29 1442.40,1070.29 C1442.40,1070.29 1443.68,1068.67 1443.68,1068.67 C1443.68,1068.67 1444.13,1067.35 1444.13,1067.35 C1444.07,1067.30 1442.55,1061.69 1442.34,1060.74 C1442.02,1059.08 1441.63,1057.06 1442.24,1056.64 C1442.24,1056.64 1443.55,1055.91 1443.55,1055.91 C1444.90,1055.79 1449.52,1056.67 1451.38,1057.06 C1453.42,1057.01 1457.15,1054.73 1458.35,1052.95 C1459.11,1051.69 1460.34,1050.26 1460.51,1049.79 C1461.13,1048.05 1462.16,1044.88 1462.25,1044.63 C1462.28,1044.54 1463.60,1041.16 1464.01,1036.99 C1464.21,1035.88 1465.18,1029.19 1466.33,1025.63 C1466.45,1025.27 1467.37,1024.19 1467.58,1022.96 C1467.70,1022.15 1468.75,1019.01 1469.04,1018.37 C1469.04,1018.37 1469.22,1018.37 1469.22,1018.37 Z"/>
</g>
</svg>
