<?xml version="1.0" encoding="UTF-8" standalone="no"?>
<!DOCTYPE svg PUBLIC "-//W3C//DTD SVG 1.1//EN" "http://www.w3.org/Graphics/SVG/1.1/DTD/svg11.dtd">
<svg width="480.00" height="480.00" viewBox="0.00 0.00 2000.00 2000.00" xmlns="http://www.w3.org/2000/svg" xmlns:xlink="http://www.w3.org/1999/xlink" fill="rgba(255, 255, 255, 0)"  stroke="rgb(0, 0, 0)" stroke-width="3.00" stroke-opacity="1.00" stroke-linejoin="round" id="svgId">
<g stroke-linecap="round" id="fukushima">
<path d="M1500.46,1232.75 C1500.10,1232.84 1494.85,1229.90 1494.69,1229.71 C1494.69,1229.71 1492.14,1228.04 1492.14,1228.04 C1490.37,1227.35 1486.16,1226.95 1485.48,1226.86 C1484.08,1226.68 1482.44,1225.72 1482.43,1225.79 C1482.43,1225.79 1479.21,1221.35 1479.21,1221.35 C1479.21,1221.35 1476.97,1221.12 1476.97,1221.12 C1476.95,1221.16 1475.83,1222.04 1475.56,1222.84 C1474.75,1225.54 1475.95,1228.31 1476.00,1228.30 C1476.00,1228.30 1477.20,1230.47 1477.20,1230.47 C1476.72,1230.52 1474.43,1230.65 1473.45,1231.36 C1468.65,1234.97 1464.49,1241.55 1463.74,1241.55 C1463.59,1241.17 1460.08,1236.93 1459.59,1236.85 C1457.93,1236.65 1454.27,1235.55 1454.23,1235.56 C1454.23,1235.56 1452.89,1234.34 1452.89,1234.34 C1452.53,1233.58 1449.90,1228.05 1449.44,1227.36 C1448.24,1225.44 1444.40,1221.97 1443.28,1222.34 C1443.03,1222.43 1441.24,1223.05 1440.53,1223.05 C1437.79,1219.99 1436.75,1218.91 1436.94,1218.16 C1437.07,1217.73 1437.62,1217.03 1437.92,1216.78 C1437.94,1216.14 1438.57,1215.57 1438.62,1215.46 C1438.90,1214.98 1439.48,1213.64 1438.79,1212.32 C1438.28,1211.41 1434.01,1208.21 1433.19,1207.54 C1433.17,1207.22 1433.81,1202.82 1432.62,1200.82 C1431.02,1198.16 1425.78,1195.26 1422.94,1193.66 C1418.02,1191.08 1410.53,1188.28 1409.05,1188.15 C1406.99,1187.99 1398.02,1188.93 1396.22,1189.39 C1395.63,1189.55 1389.72,1192.35 1389.18,1195.27 C1389.12,1195.62 1389.10,1196.23 1389.12,1197.10 C1388.84,1197.65 1378.12,1199.00 1374.98,1200.10 C1374.90,1200.13 1366.23,1204.77 1366.17,1204.80 C1363.44,1206.30 1359.79,1211.15 1356.96,1212.15 C1356.42,1212.33 1349.71,1214.27 1349.43,1214.39 C1346.62,1215.60 1339.92,1221.10 1338.61,1223.99 C1338.21,1224.90 1338.09,1225.61 1338.14,1226.45 C1337.02,1225.77 1334.86,1224.14 1334.42,1223.75 C1332.91,1222.41 1328.40,1220.40 1327.36,1219.75 C1325.75,1218.77 1323.52,1218.76 1322.67,1218.74 C1322.03,1216.96 1323.72,1210.98 1323.97,1210.00 C1324.14,1209.39 1324.38,1207.44 1324.41,1207.39 C1324.98,1206.31 1324.65,1204.65 1324.04,1203.67 C1323.44,1202.73 1322.27,1199.48 1321.96,1198.14 C1321.51,1196.11 1321.53,1191.60 1321.63,1190.00 C1321.65,1189.68 1322.91,1186.90 1322.94,1185.85 C1320.52,1183.37 1316.34,1180.71 1316.00,1180.52 C1314.66,1179.75 1314.00,1178.50 1312.89,1176.99 C1312.89,1176.99 1313.83,1174.16 1313.83,1174.16 C1313.81,1174.17 1315.83,1171.56 1316.84,1171.23 C1316.91,1171.22 1317.10,1171.17 1317.41,1171.11 C1318.04,1170.34 1319.78,1162.05 1319.79,1161.50 C1319.79,1161.28 1320.60,1159.38 1321.03,1157.95 C1321.20,1157.35 1321.18,1156.55 1319.52,1153.80 C1318.16,1151.50 1317.77,1150.88 1318.61,1148.40 C1319.25,1146.69 1322.84,1146.02 1323.81,1145.99 C1325.31,1145.95 1328.85,1144.13 1331.51,1144.29 C1333.33,1144.44 1336.77,1144.58 1338.38,1144.57 C1338.78,1144.30 1340.85,1140.52 1340.99,1140.18 C1341.17,1139.75 1343.09,1137.96 1343.57,1136.70 C1349.49,1135.90 1356.31,1136.43 1359.38,1135.56 C1359.69,1135.46 1361.30,1135.21 1362.66,1134.71 C1362.66,1134.71 1362.66,1132.87 1362.66,1132.87 C1361.75,1131.64 1357.91,1125.99 1357.70,1124.20 C1357.63,1122.67 1357.31,1118.86 1357.37,1118.16 C1357.41,1117.64 1357.69,1116.12 1358.24,1115.83 C1359.75,1115.04 1364.77,1111.37 1365.91,1108.78 C1367.51,1105.00 1368.14,1103.96 1370.90,1100.82 C1373.12,1098.50 1380.34,1090.18 1380.89,1089.98 C1380.89,1089.98 1382.38,1090.21 1382.38,1090.21 C1382.38,1090.21 1383.47,1090.13 1383.47,1090.13 C1383.47,1090.13 1384.80,1090.15 1384.80,1090.15 C1384.80,1090.15 1386.41,1090.65 1386.41,1090.65 C1386.41,1090.65 1387.60,1091.78 1387.60,1091.78 C1387.60,1091.78 1388.47,1093.15 1388.47,1093.15 C1388.47,1093.15 1390.04,1093.10 1390.04,1093.10 C1391.12,1093.01 1394.13,1091.47 1395.83,1091.47 C1396.79,1091.48 1399.52,1091.49 1399.59,1091.47 C1400.14,1091.33 1404.00,1089.70 1404.90,1090.03 C1405.62,1090.33 1406.18,1091.91 1406.08,1093.27 C1406.03,1093.82 1406.85,1095.26 1406.92,1095.44 C1406.99,1095.57 1407.59,1097.38 1409.47,1098.97 C1409.47,1098.97 1418.05,1097.21 1418.05,1097.21 C1418.39,1097.46 1420.78,1101.83 1421.44,1102.38 C1421.52,1102.46 1421.78,1102.70 1422.21,1103.12 C1423.63,1103.40 1428.55,1099.52 1428.70,1099.33 C1429.07,1098.88 1429.87,1098.62 1430.02,1098.64 C1431.68,1098.37 1435.72,1102.53 1438.94,1105.46 C1439.21,1105.69 1440.98,1106.46 1441.52,1106.66 C1441.50,1104.51 1440.47,1103.10 1440.23,1102.77 C1439.50,1101.82 1439.62,1099.11 1439.75,1098.70 C1440.42,1098.45 1444.45,1093.93 1444.54,1092.94 C1444.54,1091.65 1444.36,1091.27 1443.77,1090.25 C1443.15,1090.09 1441.49,1089.04 1441.37,1088.44 C1441.10,1086.99 1441.88,1085.91 1442.00,1085.33 C1442.50,1082.58 1441.98,1079.18 1441.94,1078.01 C1441.88,1076.50 1442.14,1074.24 1441.62,1073.00 C1441.25,1072.14 1441.16,1071.85 1441.14,1071.50 C1441.14,1071.50 1442.71,1070.62 1442.71,1070.62 C1442.71,1070.62 1445.01,1070.80 1445.01,1070.80 C1446.50,1071.13 1449.90,1072.52 1452.32,1072.00 C1452.76,1071.90 1454.37,1071.18 1456.37,1070.70 C1457.55,1070.43 1459.21,1071.94 1460.51,1072.96 C1460.85,1073.21 1465.74,1073.29 1465.81,1073.38 C1465.81,1073.38 1464.96,1078.07 1464.96,1078.07 C1466.43,1079.01 1467.17,1079.38 1468.83,1079.67 C1470.04,1079.86 1475.39,1076.64 1475.40,1076.64 C1479.75,1077.91 1482.31,1077.93 1483.90,1078.46 C1486.00,1079.16 1488.07,1080.74 1488.59,1080.95 C1488.76,1081.24 1487.63,1082.32 1487.55,1083.54 C1487.47,1084.81 1487.60,1089.24 1487.95,1090.60 C1488.51,1092.76 1489.96,1095.81 1491.20,1097.03 C1492.27,1098.03 1497.58,1097.37 1498.12,1097.26 C1498.87,1096.26 1503.22,1093.44 1503.57,1093.26 C1504.00,1093.04 1506.37,1092.38 1507.65,1091.90 C1508.97,1091.39 1509.34,1084.31 1508.44,1081.69 C1508.44,1081.69 1518.22,1078.50 1518.22,1078.50 C1518.22,1078.50 1519.24,1078.40 1519.24,1078.40 C1519.36,1078.75 1521.66,1088.51 1521.93,1089.06 C1524.17,1095.23 1526.54,1106.49 1526.61,1107.12 C1526.70,1108.04 1528.07,1121.08 1528.83,1125.49 C1529.38,1129.12 1529.37,1136.35 1530.22,1141.88 C1530.40,1143.41 1530.45,1156.68 1529.82,1162.86 C1527.89,1171.11 1524.95,1184.98 1524.91,1192.57 C1524.90,1193.11 1522.49,1202.39 1521.17,1205.56 C1521.17,1205.56 1521.87,1209.27 1521.87,1209.27 C1521.87,1209.27 1522.45,1212.02 1522.45,1212.02 C1522.45,1212.02 1518.83,1218.15 1518.83,1218.15 C1518.60,1218.14 1515.29,1219.97 1515.26,1219.99 C1515.02,1220.22 1510.83,1221.14 1508.78,1222.25 C1507.10,1223.17 1503.38,1225.97 1502.81,1226.61 C1502.81,1226.61 1501.06,1229.59 1501.06,1229.59 C1501.06,1229.59 1500.90,1232.31 1500.90,1232.31 C1500.70,1232.58 1500.56,1232.73 1500.46,1232.75 Z"/>
</g>
</svg>
