<?xml version="1.0" encoding="UTF-8" standalone="no"?>
<!DOCTYPE svg PUBLIC "-//W3C//DTD SVG 1.1//EN" "http://www.w3.org/Graphics/SVG/1.1/DTD/svg11.dtd">
<svg width="480.00" height="480.00" viewBox="0.00 0.00 2000.00 2000.00" xmlns="http://www.w3.org/2000/svg" xmlns:xlink="http://www.w3.org/1999/xlink" fill="rgba(255, 255, 255, 0)"  stroke="rgb(0, 0, 0)" stroke-width="3.00" stroke-opacity="1.00" stroke-linejoin="round" id="svgId">
<g stroke-linecap="round" id="ibaraki">
<path d="M1506.94,1391.19 C1506.94,1391.19 1507.33,1392.88 1507.33,1392.88 C1507.33,1392.88 1503.53,1392.30 1503.53,1392.30 C1503.53,1392.30 1500.90,1391.50 1500.90,1391.50 C1499.42,1390.74 1493.61,1385.85 1492.63,1384.57 C1491.48,1383.05 1491.07,1382.14 1490.96,1379.89 C1489.70,1378.74 1488.33,1378.36 1486.74,1377.58 C1486.29,1377.39 1484.68,1376.95 1484.26,1376.57 C1484.20,1376.52 1481.66,1374.35 1481.54,1374.27 C1481.53,1374.27 1477.89,1372.62 1477.32,1371.87 C1475.99,1370.12 1475.89,1369.67 1476.34,1367.81 C1476.46,1367.33 1476.26,1366.74 1476.28,1366.67 C1476.30,1366.65 1470.61,1363.24 1467.98,1363.73 C1466.78,1365.05 1466.19,1366.60 1464.80,1368.27 C1463.71,1369.54 1461.73,1369.54 1461.26,1369.39 C1460.03,1369.02 1457.53,1369.01 1456.38,1369.49 C1454.11,1370.42 1449.50,1374.49 1446.71,1375.40 C1444.01,1376.30 1438.78,1377.97 1435.63,1378.01 C1430.50,1378.04 1419.68,1375.26 1414.41,1373.24 C1412.74,1372.59 1406.10,1368.70 1404.80,1368.11 C1402.33,1366.92 1401.61,1365.71 1401.43,1364.50 C1401.00,1361.62 1396.67,1358.64 1395.61,1357.56 C1394.86,1356.84 1393.77,1354.61 1393.58,1354.36 C1393.58,1354.36 1392.68,1353.75 1392.68,1353.75 C1392.54,1353.63 1390.54,1351.92 1390.02,1351.48 C1388.40,1350.08 1387.03,1349.75 1385.13,1348.71 C1383.69,1347.91 1383.10,1345.99 1383.47,1345.00 C1384.01,1343.60 1384.26,1340.95 1383.49,1341.57 C1383.06,1341.54 1380.20,1343.16 1379.14,1343.18 C1377.80,1343.18 1377.44,1342.97 1376.34,1341.81 C1374.87,1340.22 1374.88,1335.40 1373.05,1332.71 C1372.98,1332.60 1370.44,1328.94 1370.01,1327.68 C1369.89,1327.57 1370.95,1327.59 1375.71,1326.89 C1379.37,1326.36 1382.29,1324.75 1384.51,1322.84 C1385.17,1322.26 1386.68,1319.73 1387.21,1319.23 C1387.40,1319.00 1387.41,1315.96 1388.23,1314.20 C1388.70,1313.23 1390.48,1310.61 1391.50,1310.38 C1392.34,1310.21 1395.64,1311.93 1395.72,1311.92 C1395.73,1311.86 1398.32,1308.17 1398.42,1308.01 C1398.96,1307.15 1402.47,1305.40 1403.00,1305.28 C1403.54,1305.16 1408.73,1304.27 1409.34,1304.01 C1410.68,1303.43 1412.01,1303.00 1412.93,1302.46 C1414.09,1301.77 1416.26,1299.42 1416.81,1299.05 C1419.61,1297.22 1424.99,1299.20 1426.39,1298.81 C1427.10,1298.61 1430.03,1295.77 1430.49,1294.54 C1432.20,1290.40 1433.13,1285.98 1433.11,1284.73 C1433.77,1283.52 1436.33,1283.15 1436.90,1282.07 C1436.92,1282.02 1438.30,1279.12 1438.25,1276.79 C1438.12,1274.50 1437.08,1267.88 1436.20,1265.21 C1436.03,1264.69 1433.80,1258.84 1435.19,1257.79 C1436.77,1256.67 1437.39,1255.44 1438.41,1254.51 C1439.70,1253.37 1443.00,1252.88 1443.01,1252.89 C1443.01,1252.01 1441.03,1249.07 1440.89,1248.91 C1440.17,1248.06 1439.83,1241.24 1439.38,1238.29 C1439.28,1236.94 1440.08,1234.06 1440.06,1232.44 C1439.96,1228.49 1439.07,1225.36 1439.50,1224.42 C1439.62,1224.16 1440.30,1223.33 1441.23,1222.89 C1441.23,1222.89 1443.62,1223.32 1443.62,1223.32 C1443.62,1223.32 1445.52,1224.48 1445.52,1224.48 C1445.52,1224.48 1447.07,1225.52 1447.07,1225.52 C1448.17,1225.89 1450.46,1229.61 1450.51,1229.69 C1450.92,1230.39 1452.42,1233.35 1452.89,1234.34 C1452.89,1234.34 1454.23,1235.56 1454.23,1235.56 C1455.61,1235.43 1457.86,1236.53 1459.59,1236.85 C1460.04,1236.94 1463.51,1241.10 1463.74,1241.55 C1464.63,1241.55 1470.38,1234.17 1471.04,1233.60 C1472.62,1232.21 1473.84,1230.90 1475.19,1230.54 C1475.33,1230.51 1476.64,1230.52 1477.20,1230.47 C1477.20,1230.47 1476.00,1228.30 1476.00,1228.30 C1475.48,1228.38 1475.45,1223.76 1475.46,1223.47 C1475.51,1222.39 1476.94,1221.19 1476.97,1221.12 C1476.97,1221.12 1479.21,1221.35 1479.21,1221.35 C1479.21,1221.35 1482.43,1225.79 1482.43,1225.79 C1482.56,1225.76 1485.61,1226.90 1486.67,1226.91 C1487.63,1226.91 1490.37,1227.35 1492.14,1228.04 C1492.14,1228.04 1494.69,1229.71 1494.69,1229.71 C1494.69,1229.71 1500.35,1232.46 1500.35,1232.46 C1500.35,1232.46 1500.23,1233.73 1500.23,1233.73 C1500.23,1233.73 1498.79,1235.47 1498.79,1235.47 C1498.79,1235.47 1498.41,1236.70 1498.41,1236.70 C1498.41,1236.70 1497.32,1237.81 1497.32,1237.81 C1497.04,1238.19 1495.64,1243.73 1495.42,1244.09 C1493.00,1247.88 1493.45,1256.25 1493.42,1256.52 C1492.93,1260.26 1488.72,1266.65 1484.36,1272.83 C1484.27,1272.97 1482.80,1276.17 1482.44,1276.64 C1482.04,1277.20 1482.19,1280.17 1482.17,1280.39 C1482.16,1280.59 1482.15,1283.08 1481.21,1284.98 C1481.05,1285.31 1480.31,1286.16 1480.13,1286.15 C1479.29,1287.76 1480.96,1292.67 1481.08,1294.89 C1481.39,1299.44 1481.06,1302.99 1479.74,1306.53 C1479.42,1307.39 1474.72,1312.43 1473.73,1314.07 C1472.99,1315.31 1472.88,1323.43 1472.94,1323.88 C1473.00,1324.34 1476.15,1332.01 1476.67,1333.87 C1480.10,1340.14 1484.37,1352.24 1484.65,1353.14 C1485.25,1354.94 1489.36,1363.57 1489.49,1363.89 C1489.24,1364.25 1487.51,1365.43 1487.52,1366.18 C1487.53,1366.31 1487.53,1366.43 1487.54,1366.55 C1487.71,1366.68 1489.97,1366.87 1491.04,1368.62 C1491.55,1369.35 1496.03,1376.88 1496.69,1378.01 C1498.96,1381.42 1502.37,1384.79 1503.24,1386.27 C1503.62,1386.92 1504.29,1387.97 1504.47,1388.20 C1504.82,1388.61 1506.20,1390.62 1506.31,1390.72 C1506.40,1390.81 1506.61,1390.97 1506.94,1391.19 Z"/>
</g>
</svg>
