<?xml version="1.0" encoding="UTF-8" standalone="no"?>
<!DOCTYPE svg PUBLIC "-//W3C//DTD SVG 1.1//EN" "http://www.w3.org/Graphics/SVG/1.1/DTD/svg11.dtd">
<svg width="480.00" height="480.00" viewBox="0.00 0.00 2000.00 2000.00" xmlns="http://www.w3.org/2000/svg" xmlns:xlink="http://www.w3.org/1999/xlink" fill="rgba(255, 255, 255, 0)"  stroke="rgb(0, 0, 0)" stroke-width="3.00" stroke-opacity="1.00" stroke-linejoin="round" id="svgId">
<g stroke-linecap="round" id="tochigi">
<path d="M1336.09,1226.68 C1336.40,1226.42 1336.81,1226.17 1337.32,1225.93 C1340.25,1221.92 1343.32,1218.33 1346.64,1216.29 C1350.32,1214.09 1357.13,1212.25 1358.08,1211.72 C1359.02,1211.18 1365.18,1205.37 1368.35,1203.42 C1371.78,1201.35 1375.66,1199.76 1379.57,1199.11 C1380.76,1198.92 1387.84,1197.38 1389.12,1197.10 C1389.52,1195.58 1390.19,1193.46 1390.63,1192.65 C1391.58,1190.97 1397.20,1189.03 1401.08,1188.42 C1404.61,1187.90 1410.66,1188.61 1413.97,1189.66 C1417.05,1190.68 1423.90,1193.99 1426.93,1196.06 C1430.63,1198.65 1433.70,1202.37 1433.59,1204.42 C1433.56,1204.82 1433.43,1205.86 1433.19,1207.54 C1435.88,1209.15 1439.48,1212.94 1439.19,1214.50 C1439.11,1214.87 1438.71,1215.62 1437.97,1216.75 C1437.97,1216.75 1441.69,1223.05 1441.69,1223.05 C1440.45,1223.32 1438.91,1224.34 1438.49,1225.50 C1438.18,1226.42 1439.73,1235.20 1439.73,1238.96 C1439.71,1240.82 1439.71,1244.68 1440.05,1246.03 C1440.54,1248.00 1441.96,1251.11 1443.01,1252.89 C1439.88,1253.66 1436.31,1255.80 1435.25,1258.28 C1434.68,1259.74 1435.97,1265.19 1437.36,1270.46 C1438.40,1274.59 1438.41,1278.47 1437.07,1281.13 C1436.37,1282.46 1435.20,1283.47 1433.11,1284.73 C1432.00,1289.63 1430.61,1295.15 1429.08,1297.09 C1428.30,1298.03 1426.35,1298.56 1424.90,1298.44 C1420.87,1298.04 1417.53,1298.46 1415.63,1300.33 C1413.61,1302.32 1411.26,1303.15 1405.67,1304.77 C1402.99,1305.55 1400.33,1306.44 1399.45,1307.03 C1397.70,1308.21 1396.18,1311.28 1395.72,1311.92 C1394.26,1311.18 1392.15,1310.36 1391.34,1310.51 C1390.41,1310.70 1388.77,1312.94 1388.43,1314.20 C1388.23,1314.98 1387.72,1318.09 1387.08,1319.32 C1386.62,1320.18 1383.93,1323.14 1382.89,1323.99 C1380.11,1326.16 1375.65,1327.05 1370.76,1327.51 C1370.76,1327.51 1369.82,1326.84 1369.82,1326.84 C1369.82,1326.84 1368.77,1325.16 1368.77,1325.16 C1367.37,1321.89 1365.60,1319.48 1362.86,1317.81 C1360.67,1316.58 1357.99,1316.73 1351.76,1317.98 C1349.91,1318.33 1347.30,1317.98 1346.05,1317.17 C1345.55,1316.82 1342.72,1313.38 1342.72,1313.37 C1341.69,1311.88 1340.47,1306.14 1338.55,1304.57 C1337.90,1304.04 1335.40,1301.98 1335.01,1301.09 C1334.08,1298.75 1335.91,1294.34 1338.81,1288.11 C1342.98,1279.13 1343.13,1275.73 1342.98,1274.81 C1347.08,1274.89 1347.96,1274.39 1348.57,1273.12 C1348.55,1271.53 1347.78,1269.36 1346.58,1268.45 C1345.40,1267.58 1336.94,1267.03 1333.91,1266.91 C1332.77,1266.82 1331.43,1265.82 1330.80,1264.66 C1330.18,1263.42 1329.93,1261.08 1330.27,1259.63 C1330.65,1258.15 1331.42,1256.87 1332.97,1254.90 C1334.06,1253.50 1334.47,1251.97 1334.16,1250.43 C1333.99,1249.60 1333.42,1246.63 1333.57,1245.34 C1333.77,1243.82 1334.68,1242.38 1336.21,1240.87 C1337.50,1239.60 1338.01,1238.09 1337.46,1236.88 C1336.83,1235.59 1332.10,1232.83 1332.14,1232.04 C1332.20,1231.18 1335.00,1227.64 1336.09,1226.68 Z"/>
</g>
</svg>
