<?xml version="1.0" encoding="UTF-8" standalone="no"?>
<!DOCTYPE svg PUBLIC "-//W3C//DTD SVG 1.1//EN" "http://www.w3.org/Graphics/SVG/1.1/DTD/svg11.dtd">
<svg width="480.00" height="480.00" viewBox="0.00 0.00 2000.00 2000.00" xmlns="http://www.w3.org/2000/svg" xmlns:xlink="http://www.w3.org/1999/xlink" fill="rgba(255, 255, 255, 0)"  stroke="rgb(0, 0, 0)" stroke-width="3.00" stroke-opacity="1.00" stroke-linejoin="round" id="svgId">
<g stroke-linecap="round" id="gunma">
<path d="M1221.47,1289.08 C1221.52,1288.82 1221.55,1288.56 1221.55,1288.28 C1221.57,1287.35 1221.44,1283.62 1221.54,1282.95 C1221.86,1280.74 1224.95,1275.52 1225.21,1272.70 C1225.55,1269.01 1226.99,1264.58 1228.63,1262.90 C1230.23,1261.33 1233.75,1260.25 1235.24,1259.87 C1235.24,1259.87 1238.45,1259.23 1238.45,1259.23 C1237.88,1255.58 1238.52,1252.81 1240.39,1250.91 C1243.76,1250.41 1248.59,1251.60 1249.36,1251.46 C1250.25,1251.29 1255.10,1248.56 1257.55,1247.81 C1257.55,1247.81 1258.28,1247.12 1258.28,1247.12 C1258.28,1247.12 1258.94,1246.15 1258.94,1246.15 C1260.34,1245.55 1262.67,1244.91 1263.67,1245.27 C1264.73,1245.63 1268.14,1247.78 1269.16,1247.17 C1270.17,1246.52 1272.31,1238.47 1272.70,1236.95 C1276.25,1236.79 1280.13,1235.84 1281.25,1234.08 C1281.87,1233.04 1282.98,1228.52 1283.68,1225.79 C1283.68,1225.79 1291.23,1228.89 1291.23,1228.89 C1292.02,1226.96 1291.33,1222.47 1289.22,1216.69 C1288.90,1215.81 1288.57,1214.93 1288.25,1214.05 C1288.25,1214.05 1288.17,1213.03 1288.17,1213.03 C1291.96,1212.71 1298.59,1213.00 1298.64,1212.99 C1299.72,1212.71 1302.00,1210.98 1302.62,1209.98 C1303.12,1209.10 1304.05,1204.36 1304.68,1201.49 C1304.68,1201.49 1307.29,1200.94 1307.29,1200.94 C1307.29,1200.94 1315.07,1216.82 1315.07,1216.82 C1315.07,1216.82 1322.31,1216.60 1322.31,1216.60 C1322.31,1216.60 1322.67,1218.74 1322.67,1218.74 C1324.62,1218.55 1328.89,1220.44 1334.25,1223.99 C1336.25,1225.33 1337.05,1225.85 1337.04,1225.81 C1334.36,1228.15 1331.20,1232.37 1332.34,1233.45 C1332.66,1233.74 1336.30,1234.50 1336.77,1234.96 C1337.46,1235.65 1337.37,1238.89 1336.69,1240.07 C1336.37,1240.63 1333.51,1243.60 1333.35,1244.27 C1333.17,1245.01 1334.57,1248.87 1334.60,1249.12 C1334.84,1250.69 1331.06,1257.43 1330.63,1258.40 C1330.04,1259.77 1329.62,1262.50 1329.97,1263.51 C1330.40,1264.60 1332.79,1266.70 1333.92,1266.99 C1334.73,1267.19 1338.60,1266.66 1339.03,1266.67 C1341.07,1266.67 1347.60,1269.19 1347.98,1270.12 C1348.13,1270.50 1348.33,1271.50 1348.57,1273.12 C1348.57,1273.12 1342.98,1274.81 1342.98,1274.81 C1343.25,1276.35 1343.47,1278.64 1343.26,1279.55 C1343.22,1279.75 1340.33,1284.45 1338.28,1289.26 C1337.74,1290.51 1335.60,1295.24 1335.22,1296.21 C1334.45,1298.21 1334.50,1300.75 1335.35,1301.93 C1335.51,1302.15 1338.41,1304.45 1339.33,1305.52 C1340.90,1307.34 1342.34,1313.91 1343.80,1315.35 C1344.83,1316.30 1347.25,1317.25 1349.07,1317.46 C1351.67,1317.71 1357.31,1316.64 1359.96,1316.81 C1361.56,1316.95 1363.64,1318.10 1365.15,1319.70 C1367.27,1321.99 1368.73,1324.96 1368.80,1325.77 C1368.80,1325.77 1369.98,1327.87 1369.98,1327.87 C1369.98,1327.87 1370.69,1328.60 1370.69,1328.60 C1370.69,1328.60 1369.32,1329.20 1369.32,1329.20 C1369.32,1329.20 1363.94,1327.84 1363.94,1327.84 C1362.23,1326.38 1359.88,1325.49 1357.90,1325.97 C1357.34,1326.11 1351.89,1328.66 1350.54,1328.99 C1348.82,1329.40 1342.76,1326.80 1342.06,1326.25 C1341.76,1326.01 1339.19,1323.49 1338.45,1322.98 C1336.07,1321.36 1333.03,1321.07 1328.45,1321.50 C1326.65,1321.66 1322.42,1320.19 1317.38,1318.07 C1314.29,1316.80 1306.91,1315.46 1305.13,1315.91 C1304.06,1316.21 1296.52,1330.49 1295.07,1335.99 C1292.28,1336.51 1287.71,1337.73 1286.08,1338.73 C1285.79,1338.91 1282.97,1341.07 1282.21,1341.41 C1281.19,1341.88 1277.45,1342.71 1276.98,1342.95 C1274.64,1344.16 1270.96,1349.24 1268.68,1349.66 C1267.37,1349.89 1265.30,1349.23 1264.67,1349.18 C1263.60,1349.13 1261.77,1350.27 1260.54,1351.76 C1259.64,1352.85 1256.91,1356.44 1256.52,1356.65 C1256.26,1356.79 1255.78,1356.79 1255.09,1356.64 C1253.80,1355.35 1251.99,1353.62 1251.10,1353.00 C1248.06,1350.80 1247.43,1350.03 1247.23,1347.95 C1246.97,1344.79 1247.92,1340.03 1247.64,1338.06 C1247.21,1335.32 1244.19,1332.23 1242.79,1330.97 C1242.79,1330.97 1242.70,1329.76 1242.70,1329.76 C1244.44,1329.53 1246.86,1328.97 1247.56,1328.37 C1248.35,1327.64 1248.60,1324.83 1248.07,1323.80 C1247.76,1323.21 1245.22,1320.85 1244.83,1320.20 C1244.16,1318.99 1243.86,1315.50 1244.47,1314.65 C1244.94,1314.03 1248.99,1312.79 1249.32,1312.62 C1250.18,1312.14 1252.03,1309.68 1251.75,1308.90 C1251.60,1308.49 1250.96,1307.61 1249.82,1306.25 C1250.53,1302.77 1250.24,1299.72 1248.85,1296.27 C1248.77,1296.09 1248.73,1295.96 1248.74,1295.90 C1246.08,1294.54 1242.21,1293.28 1239.82,1293.53 C1238.95,1293.63 1230.89,1295.47 1229.36,1295.29 C1229.10,1295.26 1228.77,1295.12 1228.36,1294.88 C1228.36,1294.88 1220.70,1290.27 1220.70,1290.27 C1220.70,1290.27 1221.36,1289.35 1221.36,1289.35 C1221.36,1289.35 1221.47,1289.08 1221.47,1289.08 Z"/>
</g>
</svg>
