<?xml version="1.0" encoding="UTF-8" standalone="no"?>
<!DOCTYPE svg PUBLIC "-//W3C//DTD SVG 1.1//EN" "http://www.w3.org/Graphics/SVG/1.1/DTD/svg11.dtd">
<svg width="480.00" height="480.00" viewBox="0.00 0.00 2000.00 2000.00" xmlns="http://www.w3.org/2000/svg" xmlns:xlink="http://www.w3.org/1999/xlink" fill="rgba(255, 255, 255, 0)"  stroke="rgb(0, 0, 0)" stroke-width="3.00" stroke-opacity="1.00" stroke-linejoin="round" id="svgId">
<g stroke-linecap="round" id="saitama">
<path d="M1391.69,1388.46 C1391.69,1388.46 1386.17,1383.24 1386.17,1383.24 C1383.71,1383.29 1381.39,1383.93 1380.36,1383.96 C1379.36,1383.98 1377.15,1384.92 1375.51,1386.22 C1374.02,1387.42 1372.13,1389.40 1370.68,1389.05 C1370.22,1388.93 1365.42,1386.46 1364.30,1386.45 C1363.22,1386.46 1361.23,1387.50 1360.96,1387.74 C1360.41,1388.24 1359.36,1389.77 1359.25,1389.83 C1359.06,1389.91 1356.70,1390.97 1356.46,1391.04 C1356.16,1391.11 1352.12,1387.19 1351.99,1387.23 C1351.91,1386.79 1350.46,1386.20 1348.31,1386.47 C1347.03,1386.64 1343.65,1388.23 1343.39,1388.43 C1343.16,1388.62 1339.55,1389.50 1337.93,1390.48 C1336.76,1391.19 1333.59,1389.93 1333.30,1389.83 C1332.99,1389.71 1330.29,1388.31 1329.60,1386.80 C1328.88,1385.28 1326.50,1382.88 1326.00,1382.49 C1324.43,1381.28 1321.67,1380.13 1318.28,1379.23 C1317.94,1379.15 1310.82,1378.20 1308.10,1376.95 C1307.50,1376.67 1303.35,1374.64 1303.18,1374.57 C1302.86,1374.46 1298.89,1374.10 1298.24,1374.06 C1296.68,1373.97 1292.24,1370.41 1292.08,1370.39 C1291.16,1370.28 1290.70,1370.36 1289.82,1370.68 C1289.82,1370.68 1281.94,1376.55 1281.94,1376.55 C1280.07,1377.76 1277.41,1377.76 1274.51,1376.89 C1272.00,1376.14 1267.90,1375.21 1266.64,1373.77 C1264.48,1371.29 1262.56,1370.26 1259.64,1366.87 C1259.22,1366.38 1259.05,1366.12 1259.03,1366.12 C1258.99,1365.73 1259.08,1363.58 1259.00,1363.46 C1258.45,1362.60 1256.67,1358.97 1256.58,1358.68 C1256.05,1356.53 1258.25,1354.27 1258.46,1354.03 C1259.57,1353.12 1261.57,1351.16 1261.89,1350.54 C1262.42,1349.54 1265.27,1349.49 1265.49,1349.57 C1265.87,1349.67 1268.48,1350.39 1269.93,1349.47 C1271.65,1348.36 1272.75,1346.85 1273.44,1346.18 C1273.59,1346.05 1275.78,1343.43 1275.93,1343.35 C1276.46,1343.15 1280.26,1342.24 1280.98,1341.96 C1283.83,1340.85 1286.23,1338.58 1289.84,1337.32 C1291.28,1336.82 1294.69,1336.11 1295.07,1335.99 C1295.44,1335.31 1298.13,1328.87 1298.90,1326.11 C1299.56,1323.78 1304.89,1316.12 1305.66,1315.36 C1305.98,1315.06 1309.06,1316.00 1309.54,1316.13 C1312.83,1317.00 1316.03,1317.05 1319.07,1318.28 C1320.02,1318.78 1324.48,1320.97 1327.09,1321.85 C1327.42,1321.95 1331.62,1320.90 1332.06,1320.97 C1333.21,1321.14 1335.97,1321.55 1337.01,1322.13 C1340.17,1323.92 1343.13,1327.45 1344.43,1327.79 C1347.33,1328.53 1350.75,1329.15 1352.88,1328.06 C1352.96,1328.01 1358.04,1325.90 1360.93,1325.93 C1362.95,1325.96 1364.14,1327.67 1364.17,1327.73 C1364.17,1327.73 1370.51,1329.38 1370.51,1329.38 C1370.76,1329.56 1373.05,1332.09 1373.97,1334.01 C1374.76,1335.70 1375.08,1339.31 1375.34,1340.02 C1375.75,1341.11 1376.51,1341.98 1376.72,1342.23 C1377.86,1343.48 1380.75,1343.06 1381.69,1342.42 C1382.68,1341.76 1383.20,1341.55 1383.49,1341.57 C1384.22,1340.99 1383.38,1345.22 1383.39,1345.28 C1383.58,1348.58 1386.94,1349.27 1387.27,1349.51 C1386.87,1350.04 1385.65,1355.28 1386.66,1356.82 C1390.20,1363.12 1394.76,1371.87 1395.09,1373.14 C1395.57,1374.62 1395.60,1375.70 1395.22,1378.31 C1393.92,1386.67 1392.93,1389.07 1392.92,1389.12 C1392.92,1389.12 1391.69,1388.46 1391.69,1388.46 Z"/>
</g>
</svg>
