<?xml version="1.0" encoding="UTF-8" standalone="no"?>
<!DOCTYPE svg PUBLIC "-//W3C//DTD SVG 1.1//EN" "http://www.w3.org/Graphics/SVG/1.1/DTD/svg11.dtd">
<svg width="480.00" height="480.00" viewBox="0.00 0.00 2000.00 2000.00" xmlns="http://www.w3.org/2000/svg" xmlns:xlink="http://www.w3.org/1999/xlink" fill="rgba(255, 255, 255, 0)"  stroke="rgb(0, 0, 0)" stroke-width="3.00" stroke-opacity="1.00" stroke-linejoin="round" id="svgId">
<g stroke-linecap="round" id="chiba">
<path d="M1391.15,1410.01 C1389.72,1411.91 1394.38,1410.73 1394.58,1410.26 C1394.65,1410.09 1394.72,1409.72 1395.00,1410.32 C1395.48,1411.34 1398.05,1410.89 1398.43,1410.21 C1398.59,1409.91 1398.33,1409.42 1397.88,1408.97 C1397.49,1408.69 1396.78,1408.33 1396.42,1408.18 C1395.90,1407.94 1396.27,1407.48 1397.00,1407.17 C1397.65,1406.87 1396.55,1406.00 1396.59,1405.37 C1396.64,1404.73 1401.49,1401.65 1403.05,1401.65 C1403.06,1401.75 1403.34,1405.97 1403.40,1406.05 C1403.68,1406.45 1404.87,1407.50 1405.16,1407.43 C1405.23,1407.41 1406.92,1405.88 1406.97,1405.71 C1406.97,1405.71 1413.61,1413.93 1413.61,1413.93 C1414.22,1414.12 1416.32,1413.58 1417.17,1414.43 C1417.30,1414.57 1417.65,1415.77 1417.66,1415.79 C1417.65,1415.86 1416.88,1415.29 1416.40,1415.43 C1414.83,1415.92 1416.14,1419.58 1416.14,1419.61 C1415.77,1419.97 1414.76,1419.98 1414.60,1420.19 C1413.65,1421.48 1414.58,1424.01 1414.58,1424.06 C1414.26,1424.30 1413.13,1423.65 1412.88,1423.72 C1412.71,1423.77 1408.04,1429.22 1407.90,1429.70 C1407.65,1430.53 1405.51,1432.42 1405.33,1432.58 C1403.95,1432.72 1401.27,1433.20 1400.82,1433.68 C1400.57,1433.96 1399.48,1435.26 1398.54,1436.30 C1397.18,1437.80 1395.80,1437.92 1395.39,1438.05 C1394.93,1438.20 1393.30,1438.91 1393.33,1438.98 C1393.29,1441.09 1393.62,1443.52 1394.15,1443.87 C1395.35,1444.61 1395.02,1446.56 1394.03,1447.61 C1394.02,1447.61 1392.99,1448.49 1392.69,1448.77 C1391.97,1448.12 1390.31,1446.24 1389.56,1446.54 C1388.74,1446.91 1387.27,1447.48 1387.17,1447.54 C1387.56,1447.81 1386.02,1447.90 1385.78,1448.25 C1385.31,1448.97 1385.27,1451.88 1384.58,1454.22 C1384.53,1454.37 1381.73,1457.36 1381.73,1457.74 C1382.74,1458.06 1385.54,1459.76 1386.02,1460.47 C1387.38,1462.50 1389.54,1467.48 1389.25,1468.92 C1389.25,1468.92 1387.43,1470.52 1387.43,1470.52 C1387.22,1470.79 1384.76,1471.90 1384.24,1473.55 C1383.70,1475.32 1383.74,1478.47 1383.82,1478.62 C1384.02,1479.02 1385.48,1480.67 1385.75,1480.89 C1385.81,1481.20 1383.52,1484.09 1383.86,1485.21 C1384.11,1485.97 1385.97,1486.76 1386.15,1487.11 C1386.16,1487.99 1384.27,1494.13 1384.68,1494.73 C1384.83,1494.94 1386.86,1498.79 1387.01,1499.02 C1387.01,1499.02 1387.04,1502.53 1387.04,1502.53 C1387.04,1502.53 1375.73,1504.57 1375.73,1504.57 C1375.73,1504.57 1380.79,1509.29 1380.79,1509.29 C1380.79,1509.29 1382.74,1511.53 1382.74,1511.53 C1382.74,1511.53 1382.64,1513.13 1382.64,1513.13 C1382.91,1513.25 1384.74,1514.01 1385.70,1514.16 C1387.52,1514.42 1393.19,1513.65 1393.90,1512.92 C1394.37,1512.42 1398.96,1509.16 1400.72,1506.35 C1401.41,1505.23 1404.72,1497.18 1404.77,1497.13 C1407.04,1494.74 1414.44,1491.64 1414.62,1491.53 C1415.75,1490.80 1416.09,1489.08 1416.90,1487.84 C1417.64,1486.71 1420.67,1484.42 1421.30,1484.02 C1423.35,1482.75 1430.58,1483.98 1432.21,1483.46 C1435.78,1482.31 1438.40,1479.80 1439.46,1480.12 C1440.51,1480.49 1443.07,1479.07 1443.28,1479.03 C1443.58,1478.99 1444.32,1479.11 1444.31,1479.11 C1444.31,1479.11 1445.57,1477.55 1445.57,1477.55 C1446.27,1477.40 1449.70,1477.24 1450.44,1476.19 C1450.96,1475.43 1452.51,1474.02 1452.68,1473.79 C1452.73,1473.71 1455.75,1467.59 1454.31,1465.14 C1452.97,1462.94 1452.52,1462.55 1452.43,1462.40 C1452.87,1461.80 1454.96,1460.35 1455.59,1459.09 C1455.73,1458.80 1455.54,1457.31 1455.60,1457.10 C1455.46,1457.09 1449.84,1451.23 1451.47,1444.98 C1452.20,1442.86 1452.23,1439.11 1452.83,1437.89 C1452.83,1437.89 1453.74,1434.92 1453.74,1434.92 C1454.52,1433.45 1456.11,1429.23 1458.86,1424.92 C1460.30,1422.70 1464.21,1416.73 1464.67,1416.36 C1465.33,1415.85 1471.51,1409.29 1471.93,1408.92 C1472.35,1408.55 1479.57,1402.88 1480.77,1402.27 C1483.42,1400.94 1488.61,1399.01 1489.73,1398.72 C1489.73,1398.72 1491.64,1400.57 1491.64,1400.57 C1491.95,1400.49 1500.22,1396.84 1502.43,1396.68 C1503.20,1396.63 1503.38,1396.71 1504.00,1397.25 C1504.83,1397.98 1506.41,1400.61 1506.91,1400.81 C1507.02,1400.86 1509.75,1400.60 1509.74,1399.20 C1509.57,1394.91 1509.66,1394.19 1509.65,1394.09 C1509.65,1394.09 1506.52,1393.21 1506.52,1393.21 C1506.52,1393.21 1503.28,1392.61 1503.28,1392.61 C1503.28,1392.61 1500.89,1391.75 1500.89,1391.75 C1497.82,1389.73 1493.06,1385.14 1492.67,1384.62 C1491.48,1383.05 1491.07,1382.14 1490.96,1379.89 C1489.70,1378.74 1488.33,1378.36 1486.74,1377.58 C1486.29,1377.39 1484.68,1376.95 1484.26,1376.57 C1484.20,1376.52 1481.62,1374.32 1481.60,1374.31 C1481.32,1374.13 1477.97,1372.71 1477.32,1371.87 C1476.00,1370.13 1475.88,1369.66 1476.34,1367.81 C1476.46,1367.34 1476.26,1366.74 1476.28,1366.67 C1476.30,1366.65 1470.62,1363.24 1467.98,1363.73 C1466.78,1365.05 1466.19,1366.60 1464.80,1368.27 C1463.71,1369.54 1461.73,1369.54 1461.26,1369.39 C1460.02,1369.02 1457.53,1369.01 1456.41,1369.48 C1453.70,1370.60 1450.51,1373.68 1447.29,1375.17 C1446.73,1375.43 1440.36,1377.62 1437.60,1377.88 C1434.71,1378.20 1428.64,1377.54 1428.06,1377.41 C1423.12,1375.97 1417.11,1374.27 1413.24,1372.79 C1412.78,1372.61 1406.75,1369.04 1404.22,1367.81 C1402.20,1366.72 1401.61,1365.71 1401.43,1364.50 C1401.00,1361.63 1396.62,1358.60 1395.61,1357.56 C1395.38,1357.34 1393.03,1352.93 1392.82,1352.94 C1392.82,1352.94 1392.82,1352.94 1392.82,1352.94 C1391.23,1351.78 1388.66,1350.09 1388.51,1349.96 C1387.38,1349.00 1387.21,1349.13 1387.07,1349.53 C1386.98,1349.79 1385.60,1353.92 1386.25,1356.16 C1386.58,1357.29 1394.83,1372.18 1394.96,1372.56 C1396.04,1375.83 1394.81,1380.64 1394.24,1383.48 C1393.79,1386.67 1392.95,1389.00 1392.88,1389.72 C1392.83,1390.36 1393.32,1391.09 1393.33,1391.17 C1393.33,1391.17 1394.46,1392.28 1394.46,1392.28 C1394.46,1392.28 1396.54,1397.42 1396.54,1397.42 C1396.54,1397.42 1395.74,1400.63 1395.74,1400.63 C1395.67,1400.69 1393.51,1404.05 1392.64,1404.41 C1392.40,1404.55 1391.52,1404.88 1391.41,1404.93 C1391.41,1404.93 1390.14,1407.63 1390.14,1407.63 C1390.29,1408.07 1391.65,1408.80 1391.65,1408.81 C1391.63,1408.95 1391.17,1409.90 1391.15,1410.01 Z"/>
</g>
</svg>
