<?xml version="1.0" encoding="UTF-8" standalone="no"?>
<!DOCTYPE svg PUBLIC "-//W3C//DTD SVG 1.1//EN" "http://www.w3.org/Graphics/SVG/1.1/DTD/svg11.dtd">
<svg width="480.00" height="480.00" viewBox="0.00 0.00 2000.00 2000.00" xmlns="http://www.w3.org/2000/svg" xmlns:xlink="http://www.w3.org/1999/xlink" fill="rgba(255, 255, 255, 0)"  stroke="rgb(0, 0, 0)" stroke-width="3.00" stroke-opacity="1.00" stroke-linejoin="round" id="svgId">
<g stroke-linecap="round" id="tokyo">
<path d="M1392.51,1389.35 C1392.51,1389.35 1386.17,1383.24 1386.17,1383.24 C1384.19,1383.28 1379.30,1383.97 1377.96,1384.57 C1376.48,1385.25 1372.45,1388.69 1371.39,1388.99 C1370.77,1389.16 1367.04,1387.19 1366.59,1387.07 C1364.96,1386.17 1361.58,1386.80 1360.32,1388.41 C1360.09,1388.71 1359.36,1389.78 1359.25,1389.83 C1359.06,1389.89 1356.70,1390.97 1356.46,1391.04 C1355.86,1391.19 1352.05,1387.23 1351.99,1387.23 C1351.91,1386.79 1350.11,1386.07 1347.33,1386.61 C1346.95,1386.69 1337.69,1390.61 1337.38,1390.62 C1336.78,1390.64 1332.26,1389.58 1330.61,1388.43 C1330.22,1388.15 1328.94,1385.39 1328.48,1385.00 C1328.34,1384.88 1324.36,1381.22 1323.42,1380.78 C1321.23,1379.75 1316.72,1379.01 1314.61,1378.87 C1312.61,1378.73 1306.09,1375.94 1304.18,1375.06 C1302.32,1374.22 1295.80,1373.96 1293.66,1371.89 C1292.22,1370.37 1291.01,1370.25 1289.82,1370.68 C1289.82,1370.68 1282.45,1376.26 1282.45,1376.26 C1282.45,1376.26 1281.44,1376.79 1281.44,1376.79 C1282.86,1377.03 1285.22,1379.10 1285.59,1380.04 C1285.85,1380.74 1286.62,1384.80 1287.53,1386.36 C1288.02,1387.19 1289.27,1390.64 1289.38,1390.89 C1289.59,1391.32 1292.79,1395.19 1293.68,1396.28 C1293.73,1396.34 1313.97,1407.35 1316.28,1408.87 C1316.98,1409.33 1319.06,1412.35 1319.08,1412.34 C1319.28,1412.32 1325.75,1413.81 1328.64,1413.90 C1332.56,1414.17 1334.86,1415.84 1338.34,1418.09 C1340.20,1419.29 1340.63,1419.26 1340.76,1419.20 C1340.76,1419.20 1342.36,1417.68 1342.36,1417.68 C1342.36,1417.68 1347.53,1417.66 1347.53,1417.66 C1348.28,1417.00 1348.22,1415.37 1347.95,1414.65 C1347.16,1411.36 1347.69,1409.98 1348.59,1409.53 C1348.70,1409.54 1351.29,1408.46 1352.41,1408.49 C1354.58,1408.57 1361.17,1410.50 1362.79,1411.20 C1363.59,1411.62 1366.47,1413.43 1367.62,1414.61 C1370.00,1417.13 1371.77,1422.25 1372.70,1422.40 C1378.10,1423.24 1383.54,1425.89 1383.51,1425.94 C1383.80,1425.87 1385.50,1423.71 1385.57,1423.38 C1385.69,1422.69 1382.36,1420.14 1381.79,1419.32 C1381.16,1418.40 1380.03,1415.71 1379.98,1415.60 C1379.34,1414.19 1379.46,1413.20 1380.09,1412.55 C1381.58,1414.77 1383.09,1416.25 1386.21,1416.25 C1388.55,1414.73 1384.04,1412.01 1383.77,1411.43 C1383.77,1411.43 1385.54,1410.13 1385.54,1410.13 C1385.54,1410.13 1386.39,1411.03 1386.39,1411.03 C1386.39,1411.03 1389.63,1410.71 1389.63,1410.71 C1389.63,1410.71 1391.26,1410.51 1391.26,1410.51 C1391.26,1410.51 1393.19,1409.97 1393.19,1409.97 C1393.19,1409.97 1390.61,1407.44 1390.61,1407.44 C1390.61,1407.44 1391.06,1404.74 1391.06,1404.74 C1391.06,1404.74 1395.39,1400.29 1395.39,1400.29 C1395.39,1400.29 1396.54,1397.42 1396.54,1397.42 C1396.54,1397.42 1394.46,1392.28 1394.46,1392.28 C1394.46,1392.28 1393.33,1391.17 1393.33,1391.17 C1393.33,1391.17 1392.90,1390.35 1392.90,1390.35 C1392.90,1390.35 1392.51,1389.35 1392.51,1389.35 Z"/>
</g>
</svg>
