<?xml version="1.0" encoding="UTF-8" standalone="no"?>
<!DOCTYPE svg PUBLIC "-//W3C//DTD SVG 1.1//EN" "http://www.w3.org/Graphics/SVG/1.1/DTD/svg11.dtd">
<svg width="480.00" height="480.00" viewBox="0.00 0.00 2000.00 2000.00" xmlns="http://www.w3.org/2000/svg" xmlns:xlink="http://www.w3.org/1999/xlink" fill="rgba(255, 255, 255, 0)"  stroke="rgb(0, 0, 0)" stroke-width="3.00" stroke-opacity="1.00" stroke-linejoin="round" id="svgId">
<g stroke-linecap="round" id="kanagawa">
<path d="M1358.62,1469.60 C1358.62,1469.55 1358.63,1469.52 1358.62,1469.50 C1358.69,1469.40 1359.57,1469.36 1359.48,1468.57 C1359.21,1466.66 1357.80,1465.28 1355.20,1464.35 C1354.97,1464.27 1353.73,1459.77 1353.63,1459.62 C1352.54,1458.16 1351.44,1457.47 1351.41,1457.37 C1351.41,1457.37 1345.81,1456.25 1345.81,1456.25 C1345.81,1456.25 1344.01,1455.87 1344.01,1455.87 C1344.01,1455.87 1342.76,1455.55 1342.76,1455.55 C1342.55,1456.65 1342.31,1457.25 1342.03,1457.34 C1340.53,1457.78 1339.96,1457.43 1340.33,1456.27 C1340.53,1455.59 1341.92,1456.04 1342.28,1455.43 C1342.53,1454.99 1338.08,1453.76 1337.75,1453.70 C1337.62,1453.69 1327.27,1453.79 1324.47,1454.58 C1320.96,1455.60 1319.84,1456.12 1318.43,1456.83 C1318.43,1456.83 1310.72,1460.92 1310.72,1460.92 C1309.35,1461.98 1307.65,1463.31 1306.91,1464.51 C1306.05,1465.94 1304.67,1471.95 1304.39,1473.81 C1304.16,1474.66 1306.52,1479.60 1306.52,1479.68 C1306.09,1479.80 1303.13,1478.30 1302.87,1478.36 C1302.74,1478.39 1302.29,1478.62 1302.18,1478.66 C1300.06,1478.40 1299.13,1477.35 1298.75,1477.18 C1298.28,1476.98 1293.52,1477.71 1293.18,1477.73 C1292.16,1477.86 1290.07,1477.34 1290.04,1477.34 C1289.29,1474.37 1284.24,1469.37 1284.52,1465.33 C1284.67,1463.49 1286.53,1456.78 1287.67,1456.06 C1287.69,1456.00 1288.74,1455.06 1288.92,1454.37 C1289.17,1453.36 1289.50,1447.67 1288.90,1446.05 C1288.17,1444.13 1286.30,1442.04 1285.10,1441.73 C1283.27,1441.28 1277.00,1442.95 1276.16,1442.97 C1276.26,1442.91 1277.16,1442.11 1277.90,1441.66 C1278.18,1441.47 1281.21,1436.32 1282.43,1435.08 C1282.75,1434.75 1284.58,1433.27 1285.77,1432.86 C1286.25,1432.69 1287.34,1433.48 1288.29,1433.09 C1289.50,1432.58 1291.58,1429.98 1292.31,1429.63 C1293.42,1429.11 1296.86,1427.51 1297.61,1427.48 C1299.23,1426.37 1302.70,1422.25 1302.71,1422.24 C1303.52,1421.03 1303.62,1418.19 1303.78,1416.34 C1303.55,1412.54 1303.32,1408.53 1303.41,1406.75 C1303.84,1403.43 1305.60,1402.87 1305.81,1402.98 C1305.81,1402.98 1307.24,1403.78 1307.24,1403.78 C1307.24,1403.78 1308.59,1404.49 1308.59,1404.49 C1310.41,1405.53 1312.96,1406.90 1314.59,1407.89 C1316.73,1409.12 1318.86,1412.67 1319.08,1412.34 C1319.28,1412.32 1325.75,1413.81 1328.64,1413.90 C1332.56,1414.17 1334.86,1415.84 1338.34,1418.09 C1340.20,1419.29 1340.63,1419.26 1340.76,1419.20 C1340.76,1419.20 1342.36,1417.68 1342.36,1417.68 C1342.36,1417.68 1347.53,1417.66 1347.53,1417.66 C1348.28,1417.00 1348.22,1415.37 1347.95,1414.65 C1347.16,1411.36 1347.69,1409.98 1348.59,1409.53 C1348.70,1409.54 1351.29,1408.46 1352.41,1408.49 C1354.58,1408.57 1361.17,1410.50 1362.79,1411.20 C1363.59,1411.62 1366.47,1413.43 1367.62,1414.61 C1370.00,1417.13 1371.77,1422.25 1372.70,1422.40 C1373.32,1422.49 1381.00,1424.78 1383.47,1425.82 C1383.47,1425.82 1382.83,1427.27 1382.83,1427.27 C1382.83,1427.27 1368.97,1435.04 1368.97,1435.04 C1368.65,1435.37 1370.06,1437.54 1368.94,1439.19 C1368.45,1439.15 1370.72,1441.78 1369.49,1442.85 C1368.24,1443.93 1367.13,1443.26 1365.73,1442.09 C1365.73,1442.09 1363.74,1442.98 1363.74,1442.98 C1363.66,1443.20 1365.25,1444.61 1365.41,1451.43 C1365.42,1452.03 1364.52,1453.23 1364.51,1453.30 C1364.21,1455.20 1364.98,1456.50 1367.80,1459.06 C1367.97,1459.21 1369.38,1459.90 1369.83,1461.31 C1369.99,1461.84 1370.20,1462.04 1370.72,1462.36 C1370.72,1462.36 1372.02,1462.91 1372.02,1462.91 C1372.02,1462.91 1374.18,1463.73 1374.18,1463.73 C1373.90,1467.62 1372.78,1469.90 1372.64,1470.01 C1371.97,1470.47 1368.45,1470.19 1367.48,1471.28 C1367.29,1471.55 1366.13,1473.00 1365.55,1473.93 C1364.65,1475.39 1366.74,1479.07 1366.57,1479.54 C1366.01,1479.36 1365.08,1479.33 1364.30,1479.36 C1364.19,1479.36 1361.82,1480.53 1359.73,1480.44 C1358.88,1480.39 1358.18,1480.11 1358.12,1480.05 C1358.10,1479.69 1359.11,1475.84 1359.14,1475.67 C1359.26,1474.78 1358.44,1473.24 1358.65,1472.06 C1358.65,1472.06 1360.39,1472.28 1360.39,1472.28 C1360.29,1471.94 1358.61,1469.92 1358.62,1469.60 Z"/>
</g>
</svg>
