<?xml version="1.0" encoding="UTF-8" standalone="no"?>
<!DOCTYPE svg PUBLIC "-//W3C//DTD SVG 1.1//EN" "http://www.w3.org/Graphics/SVG/1.1/DTD/svg11.dtd">
<svg width="480.00" height="480.00" viewBox="0.00 0.00 2000.00 2000.00" xmlns="http://www.w3.org/2000/svg" xmlns:xlink="http://www.w3.org/1999/xlink" fill="rgba(255, 255, 255, 0)"  stroke="rgb(0, 0, 0)" stroke-width="3.00" stroke-opacity="1.00" stroke-linejoin="round" id="svgId">
<g stroke-linecap="round" id="niigata">
<path d="M1379.78,1089.52 C1380.15,1090.24 1380.19,1090.50 1380.01,1090.59 C1379.91,1090.80 1371.47,1100.24 1368.52,1103.40 C1368.49,1103.44 1365.01,1110.62 1363.13,1112.22 C1360.87,1114.12 1357.64,1116.58 1357.63,1116.63 C1357.26,1118.85 1357.60,1121.44 1357.63,1122.75 C1357.68,1124.58 1358.10,1125.89 1358.94,1127.21 C1361.54,1131.24 1361.87,1131.80 1362.66,1132.87 C1362.66,1132.87 1362.66,1134.71 1362.66,1134.71 C1361.61,1135.10 1356.62,1136.26 1352.21,1136.22 C1347.72,1136.22 1346.04,1136.37 1343.57,1136.70 C1343.09,1137.96 1341.17,1139.75 1340.99,1140.18 C1340.85,1140.52 1338.78,1144.30 1338.38,1144.57 C1333.49,1144.60 1328.94,1144.29 1328.13,1144.57 C1323.06,1146.32 1319.32,1146.68 1318.88,1147.68 C1318.10,1149.79 1317.83,1150.89 1318.72,1152.40 C1319.84,1154.29 1321.24,1156.68 1321.19,1157.15 C1321.12,1157.57 1318.08,1170.29 1317.41,1171.11 C1317.41,1171.11 1313.83,1174.16 1313.83,1174.16 C1313.83,1174.16 1312.89,1176.99 1312.89,1176.99 C1314.00,1178.50 1314.66,1179.75 1316.00,1180.52 C1316.34,1180.71 1320.52,1183.37 1322.94,1185.85 C1322.89,1188.07 1320.76,1190.66 1321.53,1195.92 C1322.10,1199.82 1325.12,1206.36 1324.88,1206.76 C1324.44,1207.46 1322.30,1214.75 1322.04,1215.38 C1322.04,1215.38 1320.82,1216.37 1320.82,1216.37 C1320.82,1216.37 1315.07,1216.82 1315.07,1216.82 C1315.07,1216.82 1307.29,1200.94 1307.29,1200.94 C1307.29,1200.94 1304.68,1201.49 1304.68,1201.49 C1303.72,1205.33 1303.13,1208.94 1302.80,1209.59 C1302.29,1210.47 1300.69,1211.98 1299.59,1212.58 C1298.22,1213.30 1291.63,1212.51 1290.75,1212.34 C1289.94,1212.21 1289.15,1212.46 1288.17,1213.03 C1288.17,1213.03 1288.25,1214.05 1288.25,1214.05 C1288.31,1214.74 1291.73,1224.67 1291.75,1224.78 C1291.84,1225.38 1291.32,1228.82 1291.23,1228.89 C1290.21,1228.98 1287.65,1226.63 1287.44,1226.49 C1286.19,1225.64 1284.66,1225.61 1283.68,1225.79 C1282.55,1227.21 1282.08,1232.12 1282.06,1232.33 C1281.87,1233.93 1278.37,1236.60 1275.87,1236.48 C1274.74,1236.41 1272.82,1236.94 1272.70,1236.95 C1271.03,1240.65 1270.48,1245.36 1270.23,1246.07 C1269.94,1246.81 1268.91,1247.28 1267.47,1247.19 C1267.08,1247.15 1264.67,1245.85 1263.67,1245.27 C1262.81,1244.86 1259.69,1246.20 1259.51,1246.29 C1259.23,1246.45 1257.15,1245.79 1256.49,1245.25 C1256.49,1245.25 1254.46,1242.26 1254.46,1242.26 C1254.46,1242.26 1254.98,1240.78 1254.98,1240.78 C1254.98,1240.78 1257.37,1240.55 1257.37,1240.55 C1257.29,1239.68 1256.04,1238.65 1255.83,1238.44 C1254.08,1236.67 1253.22,1234.20 1253.47,1233.88 C1254.72,1232.32 1257.64,1230.13 1257.89,1229.97 C1257.90,1229.98 1256.99,1228.83 1255.46,1228.03 C1254.20,1227.40 1250.94,1226.83 1250.12,1226.47 C1248.50,1225.73 1247.13,1223.38 1247.06,1223.27 C1246.37,1222.19 1245.07,1218.40 1244.77,1216.27 C1244.68,1215.58 1244.63,1209.32 1244.55,1208.47 C1244.41,1206.99 1243.47,1204.55 1242.19,1203.91 C1241.83,1203.74 1239.51,1202.85 1237.55,1203.10 C1235.66,1203.56 1225.88,1206.00 1225.21,1206.60 C1222.88,1208.71 1221.39,1209.78 1221.12,1210.24 C1219.16,1213.71 1218.79,1217.48 1218.65,1217.65 C1217.32,1219.29 1215.44,1219.87 1213.16,1220.18 C1210.71,1220.52 1208.83,1231.53 1208.82,1231.72 C1208.69,1231.61 1206.79,1229.34 1205.98,1228.38 C1204.93,1227.28 1203.13,1227.77 1201.04,1228.05 C1197.57,1228.53 1191.85,1228.88 1190.47,1229.44 C1187.96,1230.48 1186.06,1231.68 1184.83,1233.55 C1184.54,1234.02 1184.16,1234.34 1183.76,1234.61 C1183.76,1234.61 1183.84,1237.05 1183.84,1237.05 C1183.28,1236.96 1179.92,1235.92 1179.49,1235.61 C1176.68,1233.56 1176.61,1232.90 1176.62,1232.21 C1176.98,1229.31 1177.02,1228.83 1178.27,1227.48 C1178.83,1226.91 1180.30,1226.45 1180.71,1226.22 C1180.71,1226.22 1180.52,1224.90 1180.52,1224.90 C1179.61,1223.95 1176.17,1221.84 1173.63,1221.03 C1166.28,1218.80 1159.69,1219.68 1159.52,1219.67 C1159.12,1220.35 1158.72,1227.35 1158.53,1227.71 C1157.71,1229.22 1156.47,1231.94 1156.39,1232.78 C1156.31,1233.55 1154.81,1234.63 1154.40,1234.73 C1153.30,1234.98 1151.32,1234.35 1150.16,1232.72 C1149.79,1232.16 1148.70,1229.52 1148.69,1228.95 C1148.53,1223.45 1147.70,1221.57 1147.14,1220.73 C1147.11,1220.75 1146.08,1220.24 1145.71,1220.03 C1144.99,1219.62 1140.59,1214.48 1139.85,1213.93 C1136.14,1211.18 1132.88,1208.83 1132.85,1208.72 C1132.85,1208.72 1132.92,1208.72 1132.92,1208.72 C1133.13,1208.53 1139.75,1206.95 1141.26,1206.24 C1142.66,1205.57 1150.63,1202.81 1151.84,1202.04 C1156.73,1198.44 1163.82,1197.04 1165.70,1196.82 C1166.19,1196.49 1169.45,1193.72 1170.01,1193.28 C1171.33,1192.28 1175.38,1191.85 1175.57,1191.77 C1175.86,1191.65 1177.01,1191.01 1179.43,1189.54 C1180.45,1188.90 1182.71,1185.91 1183.64,1185.73 C1183.64,1185.74 1184.77,1183.61 1185.98,1182.69 C1186.18,1182.61 1186.53,1182.42 1187.15,1181.79 C1187.18,1181.83 1188.14,1180.84 1189.43,1181.01 C1190.83,1181.22 1194.63,1182.55 1197.49,1182.37 C1200.98,1182.10 1205.20,1179.39 1206.09,1178.69 C1206.61,1178.27 1206.72,1177.74 1206.67,1176.75 C1206.67,1176.75 1212.40,1175.94 1212.40,1175.94 C1212.28,1175.93 1216.10,1171.18 1216.90,1170.32 C1217.98,1169.17 1221.41,1168.01 1221.93,1167.22 C1222.79,1165.88 1226.43,1163.21 1227.37,1161.99 C1229.39,1159.38 1232.26,1158.65 1235.49,1157.05 C1236.27,1156.66 1237.86,1156.29 1238.12,1156.05 C1240.26,1154.00 1241.23,1153.03 1241.75,1152.52 C1242.19,1152.46 1247.75,1143.95 1249.11,1140.83 C1250.82,1136.90 1254.32,1132.23 1255.43,1131.43 C1255.88,1131.11 1260.43,1127.85 1260.92,1127.40 C1261.67,1125.86 1265.16,1119.37 1265.48,1118.65 C1265.69,1118.16 1266.35,1113.99 1266.53,1113.57 C1266.53,1113.57 1268.17,1113.12 1268.17,1113.12 C1268.66,1111.75 1269.69,1106.05 1269.92,1104.18 C1270.22,1102.26 1271.09,1097.95 1272.79,1094.75 C1274.81,1090.93 1276.23,1089.12 1278.87,1087.03 C1280.84,1085.34 1282.99,1084.18 1284.50,1083.31 C1288.19,1081.17 1294.67,1074.04 1296.64,1073.59 C1296.64,1073.59 1302.77,1069.42 1302.77,1069.42 C1303.01,1069.39 1312.59,1067.05 1315.63,1065.47 C1315.97,1065.29 1318.82,1063.63 1319.40,1063.30 C1319.40,1063.30 1320.10,1062.25 1320.10,1062.25 C1320.10,1062.25 1321.88,1061.05 1321.88,1061.05 C1321.88,1061.05 1323.17,1060.89 1323.17,1060.89 C1323.17,1060.89 1324.63,1060.37 1324.63,1060.37 C1324.63,1060.37 1325.97,1059.69 1325.97,1059.69 C1325.97,1059.69 1327.32,1058.79 1327.32,1058.79 C1327.32,1058.79 1328.66,1058.31 1328.66,1058.31 C1328.66,1058.31 1334.74,1049.39 1334.74,1049.39 C1334.74,1049.39 1339.89,1042.61 1339.89,1042.61 C1339.89,1042.61 1345.26,1033.57 1345.26,1033.57 C1346.05,1032.54 1347.65,1027.45 1347.72,1025.63 C1348.01,1017.01 1346.78,1010.03 1346.90,1008.34 C1347.39,1002.14 1351.15,997.95 1351.23,997.84 C1352.27,995.73 1355.99,990.56 1356.14,990.16 C1356.59,988.92 1357.86,983.88 1357.90,983.76 C1357.90,983.76 1358.68,982.17 1358.68,982.17 C1358.68,982.17 1359.77,982.70 1359.77,982.70 C1360.09,982.95 1363.32,986.12 1363.78,986.52 C1363.96,986.68 1365.81,988.34 1369.05,989.90 C1371.04,990.91 1376.37,991.20 1377.04,991.41 C1378.65,991.94 1379.38,992.53 1380.21,993.40 C1380.21,993.78 1378.27,997.01 1378.30,998.39 C1378.37,1001.12 1379.80,1008.44 1379.77,1009.87 C1379.77,1010.16 1380.26,1010.97 1381.24,1011.50 C1382.03,1011.89 1391.20,1013.94 1393.62,1015.47 C1399.36,1018.92 1399.98,1023.90 1399.92,1023.92 C1399.42,1024.18 1397.34,1027.46 1397.23,1027.86 C1397.01,1028.77 1392.99,1032.89 1390.09,1034.97 C1389.21,1035.59 1387.38,1035.77 1382.09,1035.46 C1381.60,1035.43 1376.29,1035.65 1375.64,1035.99 C1375.44,1036.53 1373.71,1042.22 1373.95,1042.87 C1374.01,1043.01 1375.42,1045.31 1375.50,1046.22 C1375.65,1048.15 1373.82,1053.71 1373.18,1054.08 C1373.05,1054.80 1373.19,1058.12 1372.88,1058.66 C1372.22,1059.81 1370.46,1062.32 1370.23,1063.18 C1370.19,1063.33 1368.56,1070.89 1368.57,1071.38 C1368.62,1072.84 1370.13,1079.02 1369.75,1078.59 C1370.19,1079.07 1370.21,1080.71 1370.97,1081.74 C1372.46,1083.73 1374.16,1084.76 1375.72,1085.92 C1377.78,1087.51 1379.23,1088.53 1379.28,1088.52 C1379.45,1088.86 1379.62,1089.19 1379.78,1089.52 Z"/>
<path d="M1220.36,1031.32 C1219.64,1030.70 1219.36,1030.48 1219.05,1030.60 C1217.89,1031.07 1216.41,1035.18 1216.37,1035.28 C1216.31,1035.44 1214.38,1039.37 1214.28,1040.36 C1214.04,1042.81 1213.75,1043.43 1212.64,1044.86 C1209.47,1048.94 1208.12,1051.59 1207.25,1054.63 C1205.75,1059.76 1205.96,1066.10 1206.44,1066.97 C1206.66,1067.34 1208.52,1067.51 1208.80,1067.54 C1210.44,1064.66 1214.17,1061.33 1215.80,1062.25 C1218.96,1064.09 1218.94,1065.22 1218.94,1066.49 C1218.46,1066.46 1216.97,1066.17 1216.70,1066.42 C1215.80,1067.37 1214.82,1068.16 1214.79,1068.20 C1214.69,1068.36 1212.40,1072.30 1212.30,1074.21 C1212.20,1076.39 1212.94,1079.67 1212.23,1080.73 C1210.99,1082.08 1208.04,1083.31 1204.53,1083.41 C1204.53,1083.41 1203.64,1084.90 1203.64,1084.90 C1203.65,1085.92 1203.77,1088.96 1204.58,1089.67 C1205.55,1090.51 1208.13,1091.43 1208.80,1090.94 C1210.61,1089.55 1213.32,1088.19 1213.68,1088.10 C1214.17,1087.99 1217.84,1087.99 1219.90,1087.46 C1220.18,1087.40 1225.55,1083.97 1229.32,1081.89 C1231.46,1080.70 1235.45,1076.02 1237.79,1074.24 C1239.19,1073.24 1239.66,1070.93 1240.74,1069.78 C1242.27,1068.16 1245.22,1061.72 1245.54,1060.97 C1246.84,1057.94 1247.27,1052.60 1247.48,1049.95 C1247.53,1048.27 1245.34,1047.71 1244.61,1047.88 C1243.96,1048.04 1241.21,1049.34 1239.84,1049.95 C1237.83,1050.84 1236.96,1051.04 1234.77,1050.77 C1232.59,1050.45 1232.41,1048.49 1232.53,1046.47 C1232.71,1043.88 1237.25,1038.07 1238.01,1036.93 C1239.41,1035.22 1239.88,1034.17 1240.34,1031.83 C1240.99,1028.45 1240.42,1022.07 1240.78,1021.20 C1240.79,1021.18 1242.62,1017.65 1242.52,1016.35 C1242.51,1016.23 1242.21,1014.10 1241.67,1013.83 C1241.35,1013.68 1237.42,1011.94 1236.06,1012.25 C1234.95,1012.51 1233.90,1014.95 1233.13,1016.11 C1232.13,1017.61 1228.15,1025.56 1227.90,1026.06 C1227.90,1026.06 1226.72,1024.10 1226.72,1024.10 C1225.72,1024.04 1224.31,1027.55 1223.94,1028.12 C1223.27,1029.14 1223.28,1031.27 1223.15,1031.50 C1223.15,1031.50 1220.36,1031.32 1220.36,1031.32 Z"/>
</g>
</svg>
