<?xml version="1.0" encoding="UTF-8" standalone="no"?>
<!DOCTYPE svg PUBLIC "-//W3C//DTD SVG 20010904//EN"
              "http://www.w3.org/TR/2001/REC-SVG-20010904/DTD/svg10.dtd">

<svg xmlns="http://www.w3.org/2000/svg"
     width="6.66667in" height="6.66667in"
     viewBox="0 0 2000 2000">
  <path id="hokkaido"
        fill="none" stroke="#000" stroke-width="1"
        d="M 1667.25,72.75
           C 1644.75,54.25 1639.16,35.95 1630.50,31.25
             1613.00,21.75 1622.42,14.47 1612.55,10.55
             1604.00,7.15 1610.55,21.09 1598.00,24.91
             1585.45,28.73 1590.18,17.82 1585.64,19.64
             1581.09,21.45 1576.57,44.97 1576.67,48.33
             1576.96,58.67 1595.38,79.62 1597.33,116.00
             1599.29,152.38 1590.00,155.75 1587.12,166.88
             1584.25,178.00 1590.12,193.12 1585.67,209.33
             1581.21,225.54 1561.88,224.54 1557.75,238.12
             1555.54,245.39 1560.91,257.09 1558.55,265.18
             1556.18,273.27 1574.09,289.73 1553.67,307.33
             1533.24,324.94 1528.45,303.18 1521.00,302.67
             1513.55,302.15 1508.91,311.36 1503.33,308.00
             1497.76,304.64 1476.45,282.36 1471.33,281.00
             1466.21,279.64 1451.55,298.55 1454.00,305.33
             1456.45,312.12 1475.73,327.18 1473.18,333.91
             1470.64,340.64 1464.36,338.82 1459.36,346.73
             1454.36,354.64 1447.91,370.36 1443.64,357.55
             1439.36,344.73 1437.27,371.91 1409.91,373.45
             1393.73,374.55 1405.70,408.12 1400.82,412.91
             1395.94,417.70 1392.18,423.24 1394.64,431.82
             1395.72,435.60 1407.88,442.24 1409.09,448.45
             1410.30,454.67 1418.64,447.64 1426.67,467.33
             1439.55,496.45 1411.64,493.82 1413.91,525.73
             1416.18,557.64 1426.89,540.01 1430.18,548.55
             1435.45,561.27 1436.69,543.80 1446.55,540.36
             1450.99,538.81 1463.39,537.97 1463.29,526.85
             1463.52,510.09 1471.11,514.42 1475.39,511.43
             1477.43,510.01 1482.00,505.26 1482.70,500.78
             1483.39,496.30 1487.98,496.70 1487.09,500.83
             1485.39,508.70 1493.38,510.92 1492.65,505.91
             1491.47,497.82 1511.04,505.57 1516.00,512.67
             1520.96,519.77 1540.96,504.61 1538.67,499.33
             1537.56,496.79 1522.54,484.53 1511.64,473.64
             1499.93,461.94 1497.21,449.88 1487.45,450.82
             1482.49,451.30 1476.00,456.91 1464.36,444.00
             1452.73,431.09 1441.55,438.64 1455.73,409.45
             1467.45,384.18 1476.55,398.09 1484.18,393.82
             1491.82,389.55 1495.33,405.64 1506.73,408.55
             1518.12,411.45 1505.36,422.73 1518.33,433.00
             1531.30,443.27 1519.50,408.50 1589.00,390.67
             1602.75,386.75 1618.50,411.12 1634.00,415.38
             1649.50,419.62 1635.75,421.50 1673.88,444.88
             1682.38,449.00 1681.88,453.75 1696.50,457.25
             1719.00,463.62 1735.04,481.71 1742.19,488.75
             1746.14,492.64 1749.75,500.50 1750.75,483.50
             1751.00,477.38 1757.25,484.38 1756.62,464.38
             1756.00,444.38 1758.45,428.82 1796.67,387.33
             1834.88,345.85 1850.00,351.00 1860.25,361.25
             1865.33,366.33 1866.50,361.75 1878.25,361.75
             1883.62,361.75 1907.36,366.82 1916.36,358.09
             1925.36,349.36 1936.15,333.52 1950.55,333.82
             1964.94,334.12 1989.39,312.91 1988.27,307.36
             1987.73,304.69 1978.64,300.00 1972.73,305.55
             1955.18,325.91 1953.33,316.67 1947.45,310.73
             1936.12,299.27 1948.36,285.91 1946.33,280.33
             1938.36,265.45 1926.36,279.45 1919.27,259.36
             1918.02,255.12 1917.64,247.73 1919.91,244.64
             1922.18,241.55 1917.27,234.82 1925.33,228.00
             1933.39,221.18 1942.09,181.00 1935.00,179.67
             1931.12,178.94 1929.00,199.91 1914.36,206.64
             1899.73,213.36 1898.58,222.34 1890.18,230.27
             1878.91,241.18 1831.94,224.73 1839.27,209.64
             1846.61,194.55 1788.61,216.55 1722.67,145.00
             1655.25,76.00 1689.75,91.25 1667.25,72.75 Z" />
</svg>
